<svg width="32" height="32" viewBox="0 0 32 32" fill="none" xmlns="http://www.w3.org/2000/svg">
<path d="M4.29204 5.70804C4.19907 5.61507 4.12531 5.50469 4.075 5.38321C4.02468 5.26173 3.99878 5.13153 3.99878 5.00004C3.99878 4.86855 4.02468 4.73835 4.075 4.61688C4.12531 4.4954 4.19907 4.38502 4.29204 4.29204C4.38502 4.19907 4.4954 4.12531 4.61688 4.075C4.73835 4.02468 4.86855 3.99878 5.00004 3.99878C5.13153 3.99878 5.26173 4.02468 5.38321 4.075C5.50469 4.12531 5.61507 4.19907 5.70804 4.29204L16 14.586L26.292 4.29204C26.385 4.19907 26.4954 4.12531 26.6169 4.075C26.7384 4.02468 26.8686 3.99878 27 3.99878C27.1315 3.99878 27.2617 4.02468 27.3832 4.075C27.5047 4.12531 27.6151 4.19907 27.708 4.29204C27.801 4.38502 27.8748 4.4954 27.9251 4.61688C27.9754 4.73835 28.0013 4.86855 28.0013 5.00004C28.0013 5.13153 27.9754 5.26173 27.9251 5.38321C27.8748 5.50469 27.801 5.61507 27.708 5.70804L17.414 16L27.708 26.292C27.801 26.385 27.8748 26.4954 27.9251 26.6169C27.9754 26.7384 28.0013 26.8686 28.0013 27C28.0013 27.1315 27.9754 27.2617 27.9251 27.3832C27.8748 27.5047 27.801 27.6151 27.708 27.708C27.6151 27.801 27.5047 27.8748 27.3832 27.9251C27.2617 27.9754 27.1315 28.0013 27 28.0013C26.8686 28.0013 26.7384 27.9754 26.6169 27.9251C26.4954 27.8748 26.385 27.801 26.292 27.708L16 17.414L5.70804 27.708C5.61507 27.801 5.50469 27.8748 5.38321 27.9251C5.26173 27.9754 5.13153 28.0013 5.00004 28.0013C4.86855 28.0013 4.73835 27.9754 4.61688 27.9251C4.4954 27.8748 4.38502 27.801 4.29204 27.708C4.19907 27.6151 4.12531 27.5047 4.075 27.3832C4.02468 27.2617 3.99878 27.1315 3.99878 27C3.99878 26.8686 4.02468 26.7384 4.075 26.6169C4.12531 26.4954 4.19907 26.385 4.29204 26.292L14.586 16L4.29204 5.70804Z" fill="#EFEFEF"/>
</svg>
