<svg width="204" height="80" viewBox="0 0 204 80" fill="none" xmlns="http://www.w3.org/2000/svg">
<path d="M53.0885 64.8131C52.665 64.5796 52.1858 64.4662 51.7027 64.4852C51.1338 64.4861 50.5702 64.5944 50.0415 64.8043C49.4876 65.0162 48.9655 65.3031 48.4896 65.6568C48.0018 66.0137 47.5611 66.4308 47.1781 66.8983C46.7996 67.3581 46.4849 67.8669 46.2426 68.4109V68.4502C46.0231 68.927 45.8913 69.4393 45.8535 69.9628C45.8187 70.3934 45.8908 70.8258 46.0633 71.2218C46.2316 71.59 46.5115 71.8959 46.8633 72.0961C47.29 72.3245 47.7699 72.4347 48.2535 72.4153C48.8244 72.4145 49.3904 72.3093 49.9234 72.1049C50.4763 71.8939 50.9972 71.607 51.471 71.2524C51.9568 70.8899 52.3972 70.4701 52.7825 70.0022C53.166 69.5459 53.4838 69.0383 53.7267 68.494V68.4502C53.9486 67.9759 54.0805 67.4645 54.1158 66.942C54.1502 66.5102 54.0735 66.0768 53.8928 65.683C53.7155 65.3206 53.4359 65.0182 53.0885 64.8131Z" fill="#EFEFEF"/>
<path d="M68.9967 0L63.9388 11.3661C62.7699 13.9502 61.2822 16.3778 59.5104 18.5923C57.2421 21.4376 54.6131 23.9755 51.6896 26.1421C50.1384 27.3634 48.2488 28.0777 46.2776 28.188L58.8415 0H35.6109L0 80H23.2306L35.5847 52.2317C37.6393 52.2317 39.235 53.071 39.9563 54.5749C40.7567 56.3807 41.0861 58.3601 40.9137 60.3279C40.7636 62.3632 40.2483 64.3549 39.3924 66.2076L33.259 80H56.6208L66.8459 57.0361C67.2219 56.188 69.4689 51.4536 68.7519 47.4448C68.1224 43.9475 66.0372 41.7617 64.1705 40.0699C67.2044 39.1388 70.6536 38.2645 75.4186 33.4557C78.4787 30.3607 81.8186 23.4011 82.0546 22.8721L92.2404 0H68.9967ZM21.4863 66.247C21.3274 65.7604 21.0405 65.3256 20.6557 64.988C20.181 64.6576 19.6059 64.503 19.0295 64.5508C18.5003 64.5535 17.9765 64.6573 17.4863 64.8568C16.9607 65.0645 16.4664 65.3441 16.0175 65.6874C15.5474 66.0348 15.1203 66.4369 14.7454 66.8852C14.3669 67.345 14.0522 67.8538 13.8098 68.3978V68.4372C13.5846 68.9242 13.4441 69.446 13.3945 69.9803C13.3402 70.4123 13.3943 70.851 13.5519 71.2568C13.702 71.6049 13.9593 71.8959 14.2863 72.0874C14.6766 72.302 15.1178 72.4063 15.5628 72.3891C16.2988 72.3953 17.0256 72.2259 17.6831 71.8951C18.0239 71.7291 18.3526 71.5392 18.6667 71.3268C18.9902 71.1126 19.3268 70.8896 19.6678 70.6055L21.7661 72.7913C21.215 73.2597 20.6385 73.6975 20.0393 74.1027C19.4485 74.508 18.8223 74.8592 18.1683 75.1519C17.5015 75.4485 16.8076 75.6798 16.0962 75.8426C15.3421 76.0159 14.5704 76.101 13.7967 76.0962C12.8628 76.1194 11.9363 75.9249 11.0907 75.5279C10.3724 75.1869 9.77807 74.6307 9.39016 73.9366C8.99832 73.1945 8.8098 72.362 8.84372 71.5235C8.88293 70.4741 9.13425 69.4436 9.58251 68.494V68.4503C10.0675 67.3657 10.7114 66.3594 11.4929 65.4645C12.286 64.5429 13.1906 63.7235 14.1858 63.0251C15.1594 62.3411 16.223 61.7953 17.3464 61.4033C18.4245 61.0199 19.5597 60.8218 20.7038 60.8175C21.3607 60.8064 22.0162 60.8813 22.6536 61.0404C23.1583 61.1636 23.6366 61.3769 24.0656 61.6699C24.4445 61.9285 24.7696 62.2581 25.023 62.6404C25.2735 63.0218 25.4609 63.441 25.5781 63.882L21.4863 66.247ZM57.8973 68.4328V68.4721C57.4153 69.5544 56.7711 70.5568 55.9869 71.4448C55.1794 72.3702 54.2567 73.1885 53.2415 73.8798C52.2348 74.5627 51.1447 75.1136 49.9978 75.5191C48.9033 75.9103 47.7503 76.1128 46.588 76.118C45.5926 76.1467 44.6044 75.9415 43.7027 75.5191C42.9554 75.1633 42.3313 74.5925 41.9104 73.8798C41.5043 73.142 41.305 72.3083 41.3333 71.4667C41.3656 70.4422 41.6066 69.4352 42.0415 68.5071V68.4634C42.5268 67.3856 43.1708 66.3866 43.9519 65.4995C44.7594 64.5727 45.682 63.7529 46.6973 63.0601C47.6981 62.3736 48.786 61.8238 49.9322 61.4251C51.0292 61.0381 52.1832 60.8372 53.3465 60.8306C54.3413 60.8027 55.329 61.0062 56.2317 61.4251C56.971 61.7799 57.5887 62.3458 58.0066 63.0514C58.4166 63.7893 58.6176 64.6251 58.588 65.4688C58.5603 66.4863 58.3253 67.4874 57.8973 68.4109V68.4328Z" fill="#EFEFEF"/>
<path d="M99.6721 0L64.0393 80H87.401L123.008 0H99.6721ZM84.4021 75.7989H80.8349L78.1114 67.7596L74.553 75.812H70.5267L77.0185 61.1191H80.8218L83.4448 68.8831L86.8765 61.1191H90.9158L84.4021 75.7989Z" fill="#EFEFEF"/>
<path d="M153.661 0H130.304L94.6929 80H137.224L147.502 56.918H128.332L153.661 0ZM115.41 64.6995L110.496 75.8164H106.431L111.331 64.6995H106.929L108.507 61.1235H121.395L119.816 64.6995H115.41ZM133.98 61.1235C134.896 61.0916 135.81 61.2402 136.669 61.5607C137.255 61.7781 137.747 62.1941 138.059 62.7366C138.557 63.5818 138.487 64.7228 137.849 66.1596V66.2033C137.385 67.2855 136.679 68.2471 135.786 69.0142C134.914 69.7551 133.914 70.33 132.835 70.7104L134.072 75.8339H129.346L128.35 71.388H126.566L124.59 75.7989H120.525L127.016 61.106L133.98 61.1235Z" fill="#EFEFEF"/>
<path d="M132.49 67.6897C132.985 67.3938 133.377 66.9506 133.609 66.4219L133.635 66.3738C133.893 65.7837 133.893 65.3465 133.635 65.0624C133.439 64.8961 133.211 64.7715 132.965 64.6963C132.72 64.6212 132.461 64.597 132.205 64.6252H129.539L127.978 68.1618H130.662C131.303 68.1772 131.936 68.0137 132.49 67.6897Z" fill="#EFEFEF"/>
<path d="M165.683 64.8131C165.26 64.5796 164.78 64.4662 164.297 64.4852C163.728 64.4861 163.165 64.5944 162.636 64.8043C162.082 65.0162 161.56 65.3031 161.084 65.6568C160.596 66.0137 160.156 66.4308 159.773 66.8983C159.394 67.3581 159.08 67.8669 158.837 68.4109V68.4502C158.618 68.927 158.486 69.4393 158.448 69.9628C158.413 70.3934 158.485 70.8258 158.658 71.2218C158.826 71.59 159.106 71.8959 159.458 72.0961C159.885 72.3245 160.365 72.4347 160.848 72.4153C161.418 72.4148 161.982 72.3096 162.514 72.1049C163.068 71.8949 163.591 71.6079 164.066 71.2524C164.55 70.8888 164.991 70.4691 165.377 70.0022C165.761 69.5459 166.078 69.0383 166.321 68.494V68.4502C166.543 67.9759 166.675 67.4645 166.71 66.942C166.745 66.5102 166.668 66.0768 166.487 65.683C166.31 65.3206 166.03 65.0182 165.683 64.8131Z" fill="#EFEFEF"/>
<path d="M203.497 0H180.14L144.529 80H187.06L197.338 56.918H178.168L203.497 0ZM170.492 68.4109V68.4503C170.01 69.5325 169.366 70.5349 168.581 71.423C167.774 72.3484 166.851 73.1667 165.836 73.8579C164.829 74.5408 163.739 75.0918 162.592 75.4973C161.498 75.8884 160.345 76.091 159.182 76.0962C158.187 76.1248 157.199 75.9197 156.297 75.4973C155.558 75.1409 154.94 74.5735 154.522 73.8667C154.116 73.1289 153.917 72.2952 153.945 71.4535C153.978 70.4291 154.219 69.422 154.654 68.494V68.4503C155.139 67.3725 155.783 66.3734 156.564 65.4863C157.371 64.5596 158.294 63.7398 159.309 63.047C160.31 62.3605 161.398 61.8107 162.544 61.412C163.641 61.025 164.795 60.8241 165.958 60.8175C166.952 60.7891 167.938 60.9927 168.839 61.412C169.581 61.7654 170.2 62.3315 170.619 63.0382C171.029 63.7762 171.23 64.612 171.2 65.4557C171.169 66.4789 170.928 67.4847 170.492 68.4109ZM179.235 61.106H183.301L178.387 72.2317H185.504L183.93 75.7989H172.743L179.235 61.106Z" fill="#EFEFEF"/>
</svg>
