<svg width="28" height="28" viewBox="0 0 28 28" fill="none" xmlns="http://www.w3.org/2000/svg">
<path d="M0 2.00574C0 0.898298 0.920522 0 2.0561 0H25.9439C27.0794 0 28 0.898301 28 2.00575V25.9943C28 27.1021 27.0794 28 25.9439 28L2.0561 28C0.920522 28 0 27.1021 0 25.9943V2.00574ZM8.65091 23.4389V10.7953H4.44843V23.4389H8.65091ZM6.54965 9.06907C8.01514 9.06907 8.92729 8.09818 8.92729 6.88486C8.89998 5.64422 8.01515 4.70027 6.57745 4.70027C5.13991 4.70027 4.2 5.64422 4.2 6.88486C4.2 8.09818 5.11195 9.06907 6.52226 9.06907H6.54965ZM15.1399 23.4389V16.3782C15.1399 16.0003 15.1673 15.6228 15.2782 15.3527C15.582 14.5977 16.2735 13.8157 17.4345 13.8157C18.9551 13.8157 19.5634 14.9752 19.5634 16.6749V23.4389H23.7656V16.1893C23.7656 12.3057 21.6923 10.4986 18.9274 10.4986C16.6981 10.4986 15.6986 11.7239 15.1401 12.5854V12.629H15.112C15.1212 12.6146 15.1306 12.6 15.1401 12.5854V10.7953H10.9376C10.9928 11.9817 10.9376 23.4389 10.9376 23.4389H15.1399Z" fill="#EFEFEF"/>
</svg>
