<svg width="32" height="32" viewBox="0 0 32 32" fill="none" xmlns="http://www.w3.org/2000/svg">
<path d="M2 10C2 8.89543 2.89543 8 4 8H28C29.1046 8 30 8.89543 30 10C30 11.1046 29.1046 12 28 12H4C2.89543 12 2 11.1046 2 10Z" fill="#EFEFEF"/>
<path d="M14 16.5C14 15.3954 14.8954 14.5 16 14.5H28C29.1046 14.5 30 15.3954 30 16.5C30 17.6046 29.1046 18.5 28 18.5H16C14.8954 18.5 14 17.6046 14 16.5Z" fill="#EFEFEF"/>
<path d="M20 23C20 21.8954 20.8954 21 22 21H28C29.1046 21 30 21.8954 30 23C30 24.1046 29.1046 25 28 25H22C20.8954 25 20 24.1046 20 23Z" fill="#EFEFEF"/>
</svg>
