<svg width="32" height="32" viewBox="0 0 32 32" fill="none" xmlns="http://www.w3.org/2000/svg">
<path d="M16.1023 3.99731C16.1137 3.99734 16.126 3.99737 16.1391 3.9974L16.2807 3.99784C17.9243 4.00388 26.2545 4.06426 28.5005 4.66808C29.8774 5.03737 30.9615 6.12568 31.3295 7.50715C31.5321 8.26614 31.6733 9.27493 31.7717 10.3124L31.7908 10.5203C31.8063 10.6937 31.8206 10.8674 31.8339 11.0406L31.8492 11.248C31.9807 13.0762 31.996 14.787 31.9978 15.1613L31.998 15.2118C31.998 15.2159 31.998 15.2227 31.998 15.2227V15.251C31.998 15.251 31.998 15.2578 31.998 15.2619L31.9978 15.3124C31.996 15.7009 31.9795 17.5287 31.8339 19.4333L31.8175 19.6413L31.8 19.8495C31.7009 20.9947 31.5524 22.1318 31.3295 22.9666C30.9615 24.3481 29.8774 25.4366 28.5005 25.8057C26.1797 26.4298 17.3622 26.4735 16.1391 26.4766L16.0449 26.4768C16.0372 26.4768 16.0304 26.4768 16.0246 26.4768L15.9861 26.4768C15.9861 26.4768 15.9773 26.4768 15.9715 26.4768L15.8569 26.4766C15.2388 26.4751 12.6811 26.4631 10.0026 26.3711L9.66014 26.359C9.603 26.3569 9.54584 26.3547 9.48868 26.3525L9.14583 26.339L8.80376 26.3245C6.58475 26.2271 4.46905 26.0674 3.49578 25.8057C2.11894 25.4366 1.03474 24.3481 0.666759 22.9666C0.443826 22.1318 0.295204 20.9947 0.196123 19.8495L0.178649 19.6413L0.162233 19.4333C0.0218067 17.5979 0.00142223 15.8339 -0.00153681 15.3605L-0.0018904 15.2927C-0.00191522 15.2866 -0.00193589 15.281 -0.00195312 15.2758V15.1979C-0.00193589 15.1928 -0.00191522 15.1872 -0.0018904 15.1811L-0.00153681 15.1133C0.00114308 14.6845 0.0181157 13.1972 0.125609 11.5571L0.139522 11.3513C0.141922 11.3169 0.144362 11.2825 0.146843 11.248L0.162233 11.0406C0.175481 10.8674 0.189797 10.6937 0.205268 10.5203L0.224392 10.3124C0.322841 9.27493 0.464093 8.26614 0.666759 7.50715C1.03474 6.12568 2.11894 5.03737 3.49578 4.66808C4.46905 4.40642 6.58475 4.24681 8.80376 4.14945L9.14583 4.13496L9.48868 4.12142C9.54584 4.11924 9.603 4.1171 9.66014 4.11499L10.0026 4.10281C12.5102 4.01673 14.9118 4.00079 15.7153 3.99784L15.8569 3.9974C15.8701 3.99737 15.8823 3.99734 15.8937 3.99731H16.1023ZM12.7981 10.4197V20.054L21.1116 15.2371L12.7981 10.4197Z" fill="#1C1919"/>
</svg>
