<svg width="240" height="241" viewBox="0 0 240 241" fill="none" xmlns="http://www.w3.org/2000/svg">
<path d="M114.654 0H121.178C121.504 0.113478 121.842 0.191129 122.185 0.231582C129.605 0.339183 137.007 0.975127 144.336 2.13459C162.618 4.89071 180.129 11.4045 195.768 21.2653C204.45 26.6114 212.3 33.2029 219.067 40.829C219.661 41.4303 220.05 42.2031 220.18 43.0379C220.31 43.8728 220.174 44.7274 219.792 45.4808C215.14 57.3016 210.535 69.1391 205.978 80.9935C205.695 81.7399 205.548 82.5311 205.545 83.3294C205.545 90.4581 205.545 97.5868 205.545 104.716V106.004C206.995 106.296 208.354 106.488 209.663 106.85C214.003 108.038 217.335 110.414 218.523 114.996C219.096 117.297 219.533 119.631 219.832 121.984C221.035 130.808 221.197 139.743 220.316 148.605C220.03 153.071 218.977 157.455 217.204 161.564C215.1 166.014 211.868 169.317 206.934 170.284C204.84 170.686 203.964 171.572 203.914 173.506C203.886 173.897 204.004 174.284 204.246 174.593C204.611 174.903 204.881 175.311 205.025 175.768C205.169 176.225 205.182 176.713 205.061 177.177C204.94 177.64 204.691 178.061 204.342 178.389C203.993 178.718 203.558 178.941 203.088 179.033C202.914 179.079 202.751 179.161 202.611 179.274C202.47 179.387 202.355 179.528 202.272 179.688C200.681 184.571 199.141 189.475 197.56 194.489C198.048 194.773 198.422 195.217 198.618 195.746C198.815 196.275 198.821 196.855 198.638 197.389C198.476 197.98 198.103 198.491 197.588 198.824C197.073 199.156 196.454 199.287 195.848 199.191C195.627 199.191 195.325 199.594 195.184 199.886C194.449 201.447 193.804 203.058 193.019 204.588C191.126 208.263 189.183 211.908 187.219 215.664C187.704 216.044 188.036 216.585 188.156 217.189C188.276 217.793 188.176 218.42 187.874 218.956C187.008 220.477 185.629 220.406 184.199 219.963C180.032 226.143 174.866 231.587 168.914 236.073C168.804 236.191 168.719 236.331 168.665 236.483C168.612 236.636 168.59 236.798 168.602 236.959C168.666 237.483 168.566 238.014 168.317 238.479C168.067 238.944 167.679 239.32 167.207 239.556C166.735 239.792 166.202 239.876 165.68 239.797C165.158 239.718 164.674 239.479 164.293 239.114C163.944 238.816 163.511 238.634 163.054 238.59C157.416 238.59 151.777 238.59 146.139 238.59C145.657 238.643 145.21 238.869 144.88 239.225C144.634 239.492 144.335 239.705 144.002 239.851C143.67 239.997 143.31 240.073 142.947 240.073C142.584 240.073 142.224 239.997 141.891 239.851C141.559 239.705 141.26 239.492 141.014 239.225C140.637 238.856 140.14 238.634 139.614 238.6C134.378 238.6 129.143 238.55 123.907 238.6C123.339 238.637 122.799 238.856 122.366 239.225C121.85 239.683 121.176 239.922 120.486 239.892C119.796 239.862 119.146 239.565 118.671 239.064C118.312 238.687 117.83 238.452 117.312 238.399C111.673 238.359 106.035 238.359 100.396 238.399C99.9123 238.436 99.4582 238.647 99.1175 238.993C98.8727 239.275 98.5703 239.501 98.2307 239.655C97.8911 239.81 97.5222 239.89 97.149 239.89C96.7758 239.89 96.4069 239.81 96.0674 239.655C95.7278 239.501 95.4254 239.275 95.1806 238.993C94.815 238.626 94.3283 238.404 93.8112 238.369C88.2935 238.329 82.7758 238.329 77.2581 238.369C76.7295 238.401 76.2234 238.594 75.8082 238.923C75.4334 239.264 74.9682 239.49 74.4682 239.574C73.9682 239.658 73.4546 239.596 72.9889 239.396C72.509 239.216 72.1038 238.88 71.8389 238.441C71.5739 238.003 71.4647 237.488 71.5289 236.979C71.5664 236.714 71.5264 236.444 71.4139 236.201C71.3014 235.958 71.121 235.753 70.8946 235.61C68.1156 233.173 65.246 230.807 62.6885 228.159C60.1311 225.511 58.0267 222.631 55.7008 219.822C54.0696 220.285 53.0426 220.054 52.3378 218.996C51.633 217.939 51.7941 216.862 52.801 215.523L44.3734 199.02C43.8373 199.143 43.2756 199.081 42.7787 198.846C42.2818 198.61 41.8788 198.214 41.6347 197.721C41.3282 197.145 41.2492 196.474 41.4133 195.842C41.5774 195.21 41.9725 194.662 42.5207 194.308C40.95 189.324 39.4296 184.501 37.8589 179.688C37.7679 179.497 37.6388 179.327 37.4794 179.189C37.32 179.05 37.1339 178.946 36.9325 178.882C35.2208 178.369 34.2341 176.285 35.4424 175.096C36.6506 173.908 36.0566 173.153 35.9257 172.076C35.7948 170.998 35.1403 170.566 34.0529 170.394C30.9182 169.911 28.0436 168.369 25.9072 166.024C23.8105 163.672 22.2934 160.862 21.4769 157.818C19.9545 152.117 19.1861 146.24 19.1913 140.339C19.1581 139.872 19.0942 139.408 19 138.949V135.828C19.0934 135.37 19.1573 134.905 19.1913 134.439C19.3034 128.355 19.9333 122.292 21.0742 116.315C22.0811 110.858 25.5044 107.857 30.6697 106.548C31.8981 106.236 33.1668 106.055 34.4153 105.813C34.4153 105.581 34.4153 105.42 34.4153 105.259C34.4153 97.6976 34.4153 90.1561 34.4153 82.5541C34.387 82.034 34.2677 81.5228 34.0629 81.0438C29.4581 69.1156 24.8265 57.1807 20.168 45.2391C19.7943 44.4818 19.668 43.6262 19.8072 42.7933C19.9463 41.9603 20.3437 41.1921 20.9433 40.5974C24.5714 36.4488 28.5646 32.6342 32.8748 29.1995C54.9859 11.4784 80.47 2.63803 108.481 0.483303L114.654 0ZM191.881 192.032C193.492 187.109 195.043 182.346 196.624 177.483L191.177 175.932C189.374 175.419 188.518 174.17 188.941 172.67C189.364 171.17 190.703 170.596 192.445 171.069L197.902 172.599C198.436 169.881 199.302 167.223 199.393 164.544C199.604 157.869 199.463 151.173 199.463 144.487C199.463 144.064 199.463 143.642 199.403 143.259C199.288 143.214 199.17 143.177 199.05 143.148C197.399 143.148 195.748 143.148 194.096 143.148C193.654 143.19 193.207 143.134 192.788 142.983C192.37 142.833 191.99 142.591 191.675 142.277C191.361 141.962 191.119 141.582 190.969 141.164C190.818 140.745 190.762 140.299 190.804 139.856C190.804 134.177 190.703 128.498 190.683 122.819C190.643 114.402 190.616 105.984 190.603 97.5667C190.638 97.1244 190.638 96.6799 190.603 96.2376C190.578 95.8764 190.456 95.5286 190.25 95.2307C188.408 93.0458 186.535 90.8911 184.652 88.6961L184.078 88.9579C179.839 90.9716 175.671 93.1868 171.341 94.9992C156.918 101.013 141.748 105.047 126.243 106.991C123.988 107.402 121.697 107.584 119.406 107.535C115.882 107.293 112.358 106.639 108.904 106.095C94.4839 103.916 80.401 99.9029 66.998 94.1534C63.0611 92.4518 59.2752 90.4883 55.2477 88.6055C53.9387 90.1259 52.6801 91.8174 51.2202 93.2673C50.5456 93.9379 50.0251 94.7473 49.6947 95.6393C49.3644 96.5312 49.2321 97.4844 49.3071 98.4326C49.3071 107.333 49.3071 116.234 49.2568 125.135C49.2568 129.834 49.2568 134.533 49.2568 139.231C49.2568 141.799 48.129 142.896 45.5615 142.907H40.5875C40.5526 143.117 40.529 143.328 40.517 143.541C40.517 150.67 40.3761 157.798 40.5774 164.927C40.6479 167.394 41.5843 169.841 42.1079 172.368C44.0713 171.804 45.8032 171.301 47.5451 170.827C49.287 170.354 50.5657 170.998 51.0087 172.479C51.4518 173.959 50.5858 175.167 48.854 175.67L43.3363 177.271L48.1089 191.801L50.8073 190.623C51.6229 190.27 52.4184 189.888 53.244 189.565C53.6031 189.377 54.0027 189.278 54.4084 189.277C54.8141 189.277 55.2138 189.375 55.5732 189.563C55.9327 189.751 56.2411 190.024 56.472 190.358C56.7029 190.691 56.8494 191.076 56.899 191.478C56.9684 192.066 56.833 192.659 56.5157 193.158C56.1983 193.657 55.7184 194.031 55.1571 194.217C53.4856 194.972 51.8042 195.697 49.8911 196.533C52.5895 201.809 55.1973 206.914 57.8555 212.13C58.5503 211.697 58.9933 211.435 59.4262 211.123C60.4331 210.468 61.44 209.794 62.4469 209.109C62.7239 208.888 63.0438 208.728 63.3862 208.638C63.7286 208.548 64.086 208.531 64.4356 208.586C64.7852 208.642 65.1193 208.771 65.4166 208.963C65.7139 209.155 65.9678 209.407 66.1623 209.703C66.9678 210.962 66.5852 212.371 65.1554 213.328C63.7256 214.284 62.3059 215.221 60.8258 216.197C64.3429 221.373 68.6159 225.992 73.5024 229.901C74.2878 227.414 75.0228 225.088 75.7679 222.752C75.8734 222.188 76.1724 221.678 76.6136 221.31C77.0547 220.943 77.6102 220.74 78.1844 220.738C80.0371 220.738 81.1346 222.319 80.5305 224.303C79.7552 226.87 78.9295 229.418 78.124 232.005H94.5966C94.5966 228.985 94.5966 226.125 94.5966 223.225C94.5966 221.453 95.6034 220.285 97.0936 220.305C98.5838 220.326 99.5504 221.634 99.5504 223.427C99.5504 225.924 99.5504 228.461 99.5504 230.918C99.5504 231.341 99.5504 231.764 99.6108 232.166H118.037C118.037 229.216 118.037 226.357 118.037 223.507C118.037 221.634 119.044 220.487 120.554 220.487C122.064 220.487 123.021 221.675 123.021 223.578C123.021 225.873 123.021 228.169 123.021 230.465V232.378H140.269C140.269 232.086 140.329 231.885 140.329 231.693C140.329 228.914 140.329 226.135 140.329 223.356C140.329 222.689 140.594 222.048 141.066 221.576C141.538 221.104 142.179 220.839 142.846 220.839C143.514 220.839 144.154 221.104 144.626 221.576C145.098 222.048 145.363 222.689 145.363 223.356C145.363 224.444 145.363 225.531 145.363 226.619V232.418H161.816L161.433 231.119C160.739 228.894 160.024 226.669 159.359 224.434C159.26 224.121 159.223 223.792 159.251 223.465C159.279 223.138 159.372 222.82 159.523 222.529C159.674 222.237 159.88 221.979 160.131 221.767C160.382 221.556 160.673 221.396 160.985 221.297C161.298 221.198 161.627 221.161 161.954 221.189C162.281 221.217 162.599 221.31 162.89 221.461C163.181 221.612 163.44 221.819 163.651 222.07C163.863 222.32 164.022 222.611 164.122 222.923C164.343 223.527 164.504 224.152 164.706 224.766L166.437 230.213C171.316 226.29 175.582 221.661 179.094 216.479C177.594 215.472 176.174 214.586 174.785 213.64C173.395 212.693 172.972 211.274 173.778 210.025C174.583 208.777 176.093 208.505 177.584 209.451L181.893 212.25C184.963 207.274 187.626 202.058 189.858 196.654C188.106 195.889 186.484 195.184 184.873 194.459C183.262 193.734 182.678 192.445 183.242 191.066C183.806 189.686 185.256 189.163 186.887 189.857C188.518 190.552 190.059 191.237 191.881 192.032ZM200.581 78.003C200.762 77.5701 200.923 77.2076 201.064 76.835C205.145 66.3433 209.233 55.855 213.328 45.37C213.54 44.9795 213.613 44.5282 213.535 44.0907C213.456 43.6532 213.23 43.2556 212.895 42.9636C208.238 38.05 203.105 33.6113 197.57 29.713C173.455 12.6867 146.239 6.18225 117.161 6.1319C112.786 6.19212 108.417 6.47778 104.071 6.98775C87.4403 8.56848 71.2666 13.3229 56.4257 20.9935C45.5312 26.5358 35.644 33.867 27.1759 42.6817C26.8051 42.9971 26.5546 43.4308 26.4665 43.9096C26.3785 44.3884 26.4583 44.8829 26.6926 45.3096C30.7805 55.7107 34.808 66.1319 38.8557 76.5229C39.0268 76.9559 39.2182 77.3787 39.3994 77.8016C58.4093 70.8944 78.0535 67.7328 98.0804 66.0916C98.0099 65.6486 97.9696 65.2962 97.8891 64.9538L93.9924 48.5518C93.5394 46.679 93.8313 45.9037 95.3719 44.8464L117.523 29.7432C119.95 28.102 120.081 28.1121 122.437 29.9144C122.628 30.0654 122.84 30.1863 123.041 30.3172L144.679 45.078C145.291 45.368 145.771 45.8794 146.021 46.509C146.272 47.1387 146.274 47.8399 146.028 48.4712C145.293 51.6026 144.538 54.7239 143.793 57.8553C143.138 60.6243 142.494 63.3831 141.779 66.2829C161.907 67.9342 181.541 71.0958 200.581 78.003ZM112.479 65.7493V65.4976C115.812 65.4976 119.144 65.4371 122.477 65.4976C126.907 65.5882 131.328 65.7694 135.748 65.9507C136.402 65.9507 136.755 65.9507 136.936 65.1653C138.154 59.8691 139.423 54.5931 140.631 49.3069C140.658 49.0942 140.633 48.8782 140.56 48.6769C140.486 48.4755 140.366 48.2945 140.208 48.149C133.643 43.6315 127.058 39.1475 120.453 34.6971C120.263 34.6007 120.052 34.5504 119.839 34.5504C119.626 34.5504 119.415 34.6007 119.225 34.6971C112.751 39.0569 106.307 43.457 99.8324 47.8369C99.589 47.968 99.4028 48.1846 99.3098 48.445C99.2168 48.7053 99.2236 48.9909 99.3289 49.2465C100.591 54.442 101.826 59.6442 103.034 64.8532C103.195 65.558 103.457 65.7291 104.152 65.7191C106.931 65.7191 109.71 65.7493 112.479 65.7493ZM34.4153 111.935C33.197 112.237 32.1297 112.438 31.1027 112.771C30.0507 113.017 29.1001 113.581 28.3796 114.386C27.6591 115.191 27.2037 116.199 27.0752 117.271C26.4912 121.651 25.726 126.021 25.4138 130.421C24.7698 138.011 25.1321 145.652 26.4912 153.146C27.1155 156.328 28.0619 159.399 30.3274 161.866C31.3892 163.083 32.8286 163.909 34.4153 164.212V111.935ZM205.585 111.935V164.383C207.187 164.016 208.637 163.161 209.733 161.937C211.375 159.992 212.51 157.671 213.036 155.18C214.207 150.079 214.785 144.859 214.758 139.624C214.974 132.059 214.319 124.495 212.804 117.08C212.711 116.358 212.445 115.67 212.028 115.073C211.61 114.477 211.054 113.991 210.408 113.657C208.908 113.002 207.287 112.559 205.595 111.965L205.585 111.935Z" fill="#1C1919"/>
<path d="M63.202 199.836C62.5418 199.967 61.8566 199.874 61.2552 199.571C60.6538 199.269 60.1708 198.774 59.8827 198.165C59.5947 197.557 59.5182 196.87 59.6653 196.213C59.8125 195.556 60.1748 194.967 60.6949 194.539C66.2025 188.559 71.68 182.548 77.2581 176.637C78.0417 175.91 79.0288 175.439 80.0874 175.288C86.6422 174.281 93.1769 173.274 99.7921 172.438C100.7 172.347 101.617 172.482 102.46 172.831C107.938 175.147 113.395 177.496 118.832 179.879C119.204 180.061 119.612 180.155 120.025 180.155C120.439 180.155 120.847 180.061 121.218 179.879C126.605 177.553 132.002 175.248 137.429 173.012C138.309 172.642 139.269 172.5 140.218 172.6C146.931 173.499 153.643 174.466 160.356 175.499C161.215 175.664 162.003 176.089 162.611 176.718C168.22 182.759 173.778 188.8 179.326 194.842C179.792 195.295 180.1 195.886 180.204 196.529C180.307 197.171 180.2 197.829 179.899 198.406C179.608 198.987 179.137 199.458 178.557 199.75C177.977 200.042 177.317 200.139 176.677 200.027L143.934 197.681C136.674 197.157 129.425 196.463 122.145 196.14C118.246 196.084 114.347 196.239 110.465 196.604C101.554 197.167 92.6432 197.822 83.7323 198.436L63.202 199.836Z" fill="#1C1919"/>
<path d="M72.3647 130.955C69.1024 130.955 65.8904 130.955 62.6785 130.955C61.9862 131.026 61.2898 130.867 60.6967 130.503C60.1035 130.139 59.6465 129.59 59.396 128.941C59.2179 128.494 59.1524 128.009 59.2053 127.531C59.2582 127.052 59.4278 126.594 59.6992 126.196C59.9707 125.798 60.3356 125.473 60.7621 125.25C61.1885 125.026 61.6633 124.911 62.1448 124.913C65.6085 124.913 69.0621 124.913 72.5258 124.913C77.3387 124.913 82.1515 124.772 86.9644 124.772C91.4148 124.772 95.8653 124.863 100.316 124.923C100.717 124.898 101.119 124.952 101.498 125.083C101.878 125.215 102.227 125.421 102.526 125.689C102.825 125.957 103.068 126.282 103.24 126.645C103.412 127.008 103.51 127.402 103.528 127.803C103.538 128.216 103.463 128.627 103.308 129.01C103.153 129.392 102.921 129.739 102.626 130.029C102.332 130.319 101.981 130.545 101.596 130.694C101.211 130.843 100.799 130.911 100.386 130.894C98.0502 130.955 95.7142 130.894 93.338 130.894H90.6093C90.4903 132.305 90.0557 133.671 89.3376 134.891C88.6196 136.111 87.6365 137.154 86.461 137.942C84.7719 139.067 82.7545 139.591 80.7318 139.433C76.5533 139.201 73.5326 136.201 72.3647 130.955Z" fill="#1C1919"/>
<path d="M167.716 131.036C165.702 137.329 162.783 139.886 157.97 139.654C153.549 139.433 150.468 136.402 149.31 131.036H148.052C145.162 131.036 142.262 131.036 139.362 131.036C138.65 131.03 137.965 130.761 137.437 130.282C136.91 129.803 136.577 129.146 136.503 128.438C136.424 127.734 136.594 127.025 136.984 126.435C137.374 125.844 137.959 125.409 138.638 125.206C139.22 125.061 139.82 124.997 140.42 125.014C143.843 125.014 147.256 125.175 150.67 125.175C154.244 125.175 157.809 124.994 161.373 124.974C166.589 124.974 171.794 124.974 177.01 125.045C178.03 125.085 179.019 125.406 179.869 125.971C180.331 126.342 180.656 126.856 180.791 127.433C180.926 128.01 180.864 128.615 180.614 129.153C180.423 129.71 180.059 130.193 179.576 130.531C179.093 130.87 178.516 131.046 177.926 131.036C174.905 131.036 171.975 131.036 168.995 131.036H167.716Z" fill="#1C1919"/>
</svg>
