<svg width="240" height="240" viewBox="0 0 240 240" fill="none" xmlns="http://www.w3.org/2000/svg">
<path d="M89.5105 0H119.356C119.625 0.0984484 119.905 0.165909 120.189 0.201077C129.295 0.201077 138.382 0.201077 147.507 0.201077C154.856 0.19698 162.041 2.36786 168.158 6.44023C174.275 10.5126 179.05 16.3043 181.882 23.0856C187.071 35.2843 192.414 47.3968 197.747 59.5476C197.824 59.8161 197.995 60.0477 198.229 60.1992C198.463 60.3508 198.745 60.4118 199.021 60.371C200.352 60.371 201.702 60.371 203.033 60.371C204.055 60.3707 205.067 60.575 206.009 60.9719C206.951 61.3688 207.804 61.9502 208.518 62.6819C209.232 63.4136 209.792 64.2808 210.166 65.2324C210.539 66.184 210.719 67.2007 210.693 68.2226C210.693 72.5889 210.693 76.9519 210.693 81.3118C210.693 81.957 210.615 82.5998 210.463 83.2268C210.197 84.313 209.685 85.3235 208.966 86.1802C208.247 87.0369 207.341 87.7169 206.317 88.1676C207.409 96.5362 208.596 104.78 209.544 113.063C210.983 125.721 211.552 138.464 211.248 151.2C211.035 162.433 209.994 173.634 208.136 184.713C205.637 199.239 201.779 213.362 195.248 226.624C193.333 230.588 190.892 234.332 188.546 238.114C188.019 238.943 187.225 239.568 186.296 239.885C184.381 240.44 182.868 238.928 182.868 236.725C182.868 222.841 182.868 208.951 182.868 195.054V193.791C181.422 193.159 180.79 193.934 180.072 194.968C178.214 197.63 176.242 200.187 174.327 202.81C174.008 203.258 173.807 203.778 173.743 204.323C173.743 204.922 173.518 205.498 173.114 205.939C172.71 206.381 172.156 206.655 171.56 206.707C171.127 206.786 170.725 206.985 170.401 207.282C167.318 210.135 164.247 213.008 161.19 215.899C160.908 216.18 160.721 216.542 160.653 216.934C160.64 217.288 160.548 217.636 160.385 217.951C160.222 218.266 159.992 218.542 159.71 218.759C159.429 218.975 159.103 219.127 158.757 219.204C158.41 219.281 158.051 219.28 157.704 219.203C157.349 219.15 156.986 219.214 156.67 219.385C152.361 222.142 148.069 224.929 143.792 227.744C143.66 227.867 143.553 228.015 143.479 228.179C143.405 228.343 143.365 228.521 143.361 228.701C143.38 229.163 143.267 229.62 143.037 230.02C142.806 230.42 142.467 230.746 142.059 230.961C141.659 231.201 141.193 231.307 140.73 231.262C140.266 231.217 139.829 231.024 139.483 230.712C139.302 230.524 139.058 230.407 138.798 230.384C138.537 230.361 138.277 230.434 138.066 230.588C133.296 232.851 128.222 234.409 123.004 235.212C122.55 235.312 122.144 235.566 121.855 235.931C121.625 236.25 121.325 236.513 120.978 236.7C120.631 236.887 120.246 236.992 119.853 237.009C119.459 237.026 119.067 236.953 118.706 236.796C118.344 236.639 118.023 236.402 117.767 236.103C117.532 235.769 117.221 235.496 116.86 235.306C116.498 235.116 116.097 235.015 115.689 235.011C115.235 234.955 114.784 234.875 114.339 234.772C109.544 233.824 104.889 232.274 100.484 230.157C100.404 230.192 100.327 230.233 100.254 230.281C99.9145 230.693 99.4472 230.978 98.9265 231.093C98.4058 231.208 97.8617 231.144 97.3812 230.913C96.9031 230.698 96.5081 230.333 96.2559 229.874C96.0037 229.414 95.908 228.885 95.9832 228.366C95.9832 228.108 95.6672 227.744 95.4087 227.572C91.2531 224.852 87.0816 222.155 82.8941 219.481C82.4584 219.221 81.9547 219.097 81.4482 219.126C81.1259 219.172 80.7977 219.153 80.4828 219.071C80.1679 218.988 79.8726 218.844 79.6141 218.646C79.3556 218.448 79.1391 218.2 78.9773 217.918C78.8154 217.636 78.7114 217.324 78.6714 217.001C78.581 216.508 78.344 216.054 77.9916 215.698C75.0042 212.845 71.9944 210.02 68.9623 207.224C68.6361 206.938 68.2396 206.743 67.8133 206.659C67.1971 206.604 66.6253 206.315 66.2144 205.853C65.8035 205.39 65.5843 204.788 65.6014 204.17C65.6094 203.801 65.5168 203.437 65.3333 203.117C62.93 199.909 60.4979 196.721 58.0179 193.465L56.4285 193.628V236.122C56.4285 236.428 56.4285 236.735 56.4285 237.08C56.425 237.673 56.2379 238.251 55.8927 238.734C55.5475 239.216 55.0613 239.581 54.5008 239.776C53.9404 239.971 53.3332 239.988 52.7628 239.824C52.1924 239.66 51.6867 239.324 51.3154 238.861C50.827 238.276 50.3578 237.635 49.9557 237.003C46.734 232.175 43.9921 227.044 41.769 221.683C32.8163 200.56 29.1873 178.336 28.1915 155.615C28.1915 154.743 28.0479 153.891 27.9713 153.029V136.847C28.0552 136.488 28.116 136.123 28.1532 135.756C28.766 127.483 29.1586 119.191 30.0107 110.947C30.7768 103.574 32.0215 96.2585 33.0939 88.924C33.1544 88.6955 33.1282 88.4527 33.0204 88.2423C32.9125 88.0319 32.7307 87.8689 32.5099 87.7846C31.2824 87.163 30.2612 86.1993 29.5696 85.0099C28.8781 83.8204 28.5457 82.4562 28.6128 81.082C28.6128 76.754 28.6128 72.4644 28.6128 68.1077C28.5952 67.0676 28.7897 66.0347 29.1843 65.0722C29.579 64.1096 30.1656 63.2376 30.9083 62.5092C31.6511 61.7807 32.5344 61.2113 33.5044 60.8354C34.4745 60.4596 35.5109 60.2853 36.5505 60.3232C37.7762 60.3232 39.0018 60.2753 40.2178 60.3232C40.537 60.3719 40.863 60.3011 41.1333 60.1244C41.4036 59.9478 41.5993 59.6776 41.6828 59.3657C46.9108 47.3074 52.158 35.2619 57.4243 23.2292C62.6906 11.1965 71.7422 3.71833 84.5793 0.794734C86.207 0.440455 87.8635 0.258528 89.5105 0ZM56.7253 99.5811L56.4859 99.6385V100.96C56.4859 126.015 56.4859 151.079 56.4859 176.153C56.423 177.839 56.838 179.509 57.6828 180.969C58.6403 182.521 59.435 184.139 60.3351 185.757C62.164 184.388 63.8396 183.124 65.5344 181.879C65.922 181.557 66.4047 181.371 66.9081 181.351C67.4116 181.33 67.908 181.475 68.3207 181.764C68.7437 182.002 69.0706 182.379 69.2453 182.832C69.4201 183.285 69.4317 183.784 69.2783 184.244C69.0587 184.883 68.6598 185.445 68.1292 185.862C66.4057 187.241 64.6152 188.524 62.7385 189.932L69.6421 199.335C69.9868 199.057 70.1496 198.952 70.2836 198.817C71.9593 197.257 73.6254 195.677 75.3201 194.135C75.7805 193.692 76.3949 193.444 77.0341 193.444C77.6733 193.444 78.2877 193.692 78.748 194.135C78.9742 194.37 79.1505 194.648 79.2661 194.953C79.3818 195.258 79.4346 195.583 79.4211 195.909C79.4077 196.234 79.3284 196.554 79.188 196.848C79.0477 197.142 78.8491 197.405 78.6044 197.621C78.1544 198.09 77.6469 198.511 77.1777 198.952L72.8019 203.031L82.1089 211.706C83.8707 209.551 85.4506 207.588 87.0784 205.673C87.4561 205.2 87.9377 204.82 88.4859 204.563C88.9729 204.375 89.5096 204.36 90.0063 204.52C90.503 204.68 90.9296 205.006 91.2148 205.443C91.5153 205.892 91.6568 206.428 91.6169 206.966C91.577 207.504 91.3579 208.013 90.9946 208.412C89.3668 210.442 87.7103 212.433 85.9006 214.636L98.6834 222.908C100.072 220.218 101.288 217.795 102.58 215.421C102.865 214.89 103.347 214.493 103.922 214.314C104.496 214.135 105.118 214.188 105.654 214.463C106.192 214.727 106.612 215.183 106.83 215.742C107.048 216.3 107.049 216.92 106.832 217.479C106.652 217.901 106.451 218.313 106.229 218.715C105.185 220.773 104.122 222.832 103.05 224.938C107.488 227.101 112.221 228.595 117.096 229.372V228.05C117.096 225.408 117.096 222.765 117.096 220.132C117.058 219.796 117.089 219.457 117.188 219.134C117.288 218.812 117.453 218.513 117.673 218.258C117.894 218.002 118.165 217.795 118.469 217.65C118.774 217.504 119.105 217.423 119.442 217.412C119.81 217.377 120.182 217.42 120.532 217.539C120.882 217.657 121.204 217.848 121.475 218.1C121.746 218.351 121.961 218.657 122.106 218.997C122.251 219.337 122.322 219.704 122.315 220.074C122.315 221.989 122.315 223.904 122.315 225.819V229.458C127.19 228.702 131.921 227.204 136.342 225.015C135.098 222.592 133.901 220.333 132.761 218.044C131.804 216.129 132.934 214.214 134.896 214.348C135.377 214.382 135.837 214.552 136.224 214.839C136.611 215.126 136.908 215.517 137.08 215.966C138.229 218.236 139.406 220.496 140.699 223.023L153.434 214.789C153.118 214.377 153.013 214.224 152.888 214.08C151.346 212.165 149.767 210.308 148.254 208.335C147.866 207.851 147.685 207.234 147.749 206.617C147.814 206.001 148.119 205.434 148.598 205.041C149.078 204.655 149.687 204.466 150.302 204.514C150.916 204.562 151.488 204.843 151.902 205.3C152.17 205.577 152.4 205.893 152.639 206.181L157.273 211.811L166.552 203.098C164.541 201.24 162.722 199.583 160.96 197.917C159.744 196.778 159.6 195.332 160.596 194.279C161.592 193.226 162.942 193.264 164.158 194.365C165.374 195.466 166.341 196.395 167.433 197.4C168.151 198.061 168.888 198.693 169.74 199.459L176.615 190.028C174.7 188.62 172.957 187.346 171.263 185.987C170.727 185.578 170.322 185.022 170.095 184.388C169.939 183.923 169.95 183.42 170.124 182.962C170.299 182.505 170.627 182.122 171.052 181.879C171.463 181.589 171.957 181.441 172.46 181.456C172.962 181.472 173.446 181.651 173.838 181.965C175.552 183.22 177.257 184.503 179.095 185.872C180.292 183.641 181.441 181.534 182.523 179.399C182.777 178.897 182.912 178.343 182.916 177.781C182.916 152.024 182.916 126.27 182.916 100.519C182.916 100.203 182.916 99.8875 182.829 99.313L181.958 100.845C179.488 105.192 177.017 109.546 174.547 113.905C173.953 114.968 173.264 115.82 171.895 115.696C170.525 115.572 170.047 114.671 169.616 113.589C167.95 109.396 166.255 105.221 164.579 101.036L161.908 94.4393C161.649 94.9659 161.477 95.301 161.324 95.6361C158.49 101.688 155.658 107.752 152.831 113.829C152.304 114.959 151.634 115.801 150.274 115.744C148.914 115.686 148.359 114.786 147.957 113.704C145.704 107.812 143.437 101.93 141.159 96.0574C141.015 95.684 140.843 95.3202 140.632 94.8031C140.364 95.3585 140.172 95.7606 140 96.1149C137.29 102.061 134.571 107.998 131.89 113.953C131.373 115.093 130.674 115.945 129.343 115.868C128.784 115.827 128.254 115.606 127.831 115.239C127.408 114.871 127.115 114.377 126.997 113.829C125.695 110.363 124.345 106.916 123.004 103.459L119.682 94.8414C119.442 95.4255 119.27 95.7989 119.117 96.1915C116.876 101.994 114.642 107.803 112.414 113.618C111.974 114.758 111.399 115.667 110.011 115.715C108.622 115.763 107.981 114.882 107.483 113.8C105.817 110.104 104.132 106.427 102.456 102.741C101.25 100.117 100.053 97.4841 98.7409 94.6308C98.5015 95.234 98.3483 95.5883 98.2047 95.9904C95.9449 101.831 93.6756 107.672 91.4446 113.522C91.0042 114.691 90.4009 115.591 89.0508 115.639C87.7008 115.686 87.0401 114.796 86.523 113.724C84.7038 109.766 82.8653 105.818 81.0078 101.879C79.8683 99.4279 78.7097 96.9862 77.4937 94.401C77.2543 94.9467 77.082 95.3585 76.9288 95.7127C74.535 101.656 72.1444 107.608 69.757 113.57C69.3166 114.671 68.7421 115.581 67.459 115.677C66.1759 115.773 65.4578 114.987 64.8737 113.944C63.3513 111.205 61.7905 108.486 60.2394 105.767C59.0584 103.686 57.8871 101.624 56.7253 99.5811ZM191.734 60.3232C191.543 59.8348 191.409 59.4614 191.246 59.088C186.276 47.6744 181.441 36.2035 176.28 24.8761C170.947 13.1562 161.64 6.68342 148.79 6.05147C138.889 5.54399 128.941 5.82166 118.963 5.74506C114.789 5.74506 110.595 5.74506 106.382 5.74506C100.991 5.74506 95.5811 5.50569 90.2094 5.87911C77.8671 6.7313 68.675 12.7828 63.3991 24.0048C57.9509 35.763 53.0102 47.7415 47.8396 59.605C47.7774 59.8302 47.7389 60.0613 47.7247 60.2944L191.734 60.3232ZM161.573 83.0353H202.554C204.574 83.0353 205.005 82.6044 205.005 80.632V69.0078C205.005 66.6619 204.44 66.1352 202.133 66.1352C173.72 66.1352 145.314 66.1129 116.914 66.0682C90.3275 66.0682 63.7438 66.0682 37.1634 66.0682C35.0185 66.0682 34.4153 66.6619 34.4153 68.7684V80.6511C34.4153 82.4034 34.9036 82.8917 36.6654 82.8917L122.028 82.997C135.203 83.0162 148.391 83.0193 161.592 83.0066L161.573 83.0353ZM50.4632 226.509L50.6451 226.442V88.6655H39.0401C38.9539 89.0485 38.8486 89.4123 38.8007 89.7858C37.6996 97.6182 36.4644 105.431 35.5452 113.293C34.0917 125.87 33.5221 138.534 33.8408 151.191C34.0769 162.66 35.1941 174.095 37.1825 185.393C39.3936 198.518 43.3379 211.291 48.912 223.378C49.4099 224.431 49.9461 225.465 50.4632 226.509ZM188.766 88.7516V226.873C189.398 225.618 189.925 224.651 190.384 223.636C191.342 221.482 192.366 219.337 193.257 217.144C200.658 198.798 203.99 179.591 205.197 159.952C205.818 150.829 205.859 141.676 205.321 132.548C204.718 123.366 203.837 114.193 202.861 105.029C202.267 99.8683 201.309 94.7935 200.524 89.623C200.476 89.2974 200.017 88.7899 199.739 88.7899C196.11 88.7325 192.481 88.7516 188.766 88.7516ZM56.5338 88.675C56.5338 89.5751 65.8312 106.427 66.9994 107.576L74.5924 88.675H56.5338ZM183.117 89.0485L182.753 88.7804H164.809C167.366 95.1574 169.884 101.4 172.469 107.864L183.117 89.0485ZM95.8587 88.6559H80.1173C82.9898 94.8127 85.8623 100.864 88.7349 107.155L95.8587 88.6559ZM101.23 88.6559C104.103 94.8797 106.841 100.941 109.714 107.251C112.184 100.874 114.501 94.8031 116.886 88.6559H101.23ZM143.466 88.8282L150.58 107.289L159.198 88.8282H143.466ZM122.401 88.8282L129.554 107.356L138.114 88.8187L122.401 88.8282Z" fill="#1C1919"/>
<path d="M100.876 190.353C94.796 190.353 88.7158 190.353 82.6835 190.353C80.3663 190.353 78.9587 188.438 79.7056 186.446C79.9268 185.875 80.3249 185.389 80.8417 185.06C81.3584 184.731 81.9669 184.576 82.5781 184.618H118.006H156.182C156.561 184.594 156.942 184.594 157.321 184.618C158.052 184.694 158.726 185.043 159.211 185.595C159.695 186.147 159.954 186.861 159.935 187.595C159.893 188.345 159.559 189.049 159.004 189.556C158.449 190.062 157.718 190.331 156.967 190.305H100.876V190.353Z" fill="#1C1919"/>
<path d="M90.9563 135.201C90.152 140.946 85.9007 143.272 82.4345 143.32C77.9725 143.378 74.8414 140.563 73.5775 135.201C70.6284 135.201 67.6601 135.201 64.6822 135.201C64.1864 135.207 63.6916 135.156 63.2077 135.047C62.5316 134.885 61.9406 134.476 61.5509 133.9C61.1611 133.324 61.0007 132.623 61.1011 131.935C61.1739 131.263 61.4911 130.641 61.9924 130.187C62.4938 129.734 63.1443 129.48 63.8205 129.475C72.47 129.475 81.1099 129.475 89.7403 129.475C93.149 129.475 96.5482 129.475 99.9569 129.475C101.929 129.475 103.145 130.537 103.165 132.261C103.184 133.984 101.92 135.201 99.9473 135.21C96.9408 135.21 93.9916 135.201 90.9563 135.201Z" fill="#1C1919"/>
<path d="M165.776 135.239C165.001 140.984 160.615 143.521 156.871 143.406C152.476 143.263 149.211 140.189 148.436 135.239H147.229C144.472 135.239 141.723 135.239 138.966 135.239C138.601 135.239 138.24 135.166 137.904 135.025C137.568 134.884 137.264 134.677 137.009 134.416C136.754 134.156 136.553 133.847 136.419 133.508C136.285 133.169 136.22 132.807 136.227 132.443C136.209 131.713 136.475 131.005 136.971 130.468C137.466 129.932 138.151 129.61 138.88 129.57H139.339C147.248 129.57 155.164 129.545 163.086 129.494C167.136 129.494 171.186 129.494 175.236 129.57C175.998 129.57 176.729 129.873 177.268 130.412C177.806 130.95 178.109 131.681 178.109 132.443C178.109 133.205 177.806 133.935 177.268 134.474C176.729 135.013 175.998 135.315 175.236 135.315L165.776 135.239Z" fill="#1C1919"/>
</svg>
