<svg width="90" height="54" viewBox="0 0 90 54" fill="none" xmlns="http://www.w3.org/2000/svg">
<g clip-path="url(#clip0_1711_33643)">
<path d="M45.2741 0C45.359 0.0176808 45.4448 0.0302634 45.5311 0.0376846C48.0588 0.057446 50.5649 0.521865 52.9422 1.41108C55.2428 2.2629 57.3333 3.62973 59.0645 5.41403C59.9448 6.31655 60.6999 7.341 61.3083 8.45811C61.4931 8.79101 61.5881 9.16916 61.5834 9.55306C61.5713 12.4066 61.5834 15.2581 61.5733 18.1117C61.5708 18.3112 61.6234 18.5073 61.725 18.6769C62.29 19.6077 63.006 20.4307 63.8414 21.1097C65.1909 22.2249 66.6904 23.1305 68.2925 23.7979C68.3451 23.8209 68.3997 23.8376 68.4503 23.8628C68.5741 23.9178 68.6767 24.0139 68.7419 24.136C68.8071 24.258 68.8312 24.3991 68.8104 24.5369C68.6022 26.2255 68.0735 27.8548 67.2545 29.3312C66.464 30.7555 65.306 31.9241 63.9101 32.7061C63.6835 32.8317 63.4448 32.9406 63.1798 33.0725C63.204 33.3237 63.2283 33.5959 63.2607 33.8659C63.3956 35.0788 63.5372 36.291 63.6856 37.5025C63.8231 38.6812 63.9648 39.8599 64.1023 41.0386C64.155 41.4782 64.2116 41.9158 64.2541 42.3575C64.2709 42.4974 64.2633 42.6392 64.2318 42.7763C63.6536 44.8833 62.6808 46.8523 61.369 48.5713C60.7984 49.3223 60.1375 49.9949 59.4024 50.5728C59.2819 50.6713 59.1548 50.7609 59.022 50.8408C58.9361 50.8921 58.8394 50.9209 58.7402 50.9246C58.6411 50.9283 58.5426 50.9068 58.4533 50.8619C58.3641 50.8171 58.2868 50.7503 58.2283 50.6674C58.1698 50.5845 58.1318 50.4881 58.1176 50.3865C58.1075 50.3123 58.1035 50.2373 58.1055 50.1624C58.1203 48.2964 58.1338 46.431 58.146 44.5663C58.1635 42.2815 58.1797 39.9974 58.1945 37.714C58.2017 37.595 58.1873 37.4757 58.152 37.3622C58.1298 37.3915 58.1035 37.4188 58.0832 37.4481C56.3068 40.3393 53.9295 42.5753 51.097 44.3192C49.8725 45.1044 48.5624 45.7369 47.1942 46.2035C46.4787 46.4437 45.7386 46.5968 44.9889 46.6599C44.6739 46.6638 44.3596 46.63 44.0521 46.5594C42.6421 46.2976 41.2819 45.8028 40.0239 45.0939C38.0798 44.059 36.2853 42.7475 34.6926 41.1977C33.5959 40.1057 32.6231 38.8877 31.7933 37.5674C31.7463 37.4841 31.682 37.4126 31.6052 37.358C31.6052 37.5946 31.6052 37.8312 31.6052 38.0678C31.6173 39.3239 31.6288 40.5871 31.6396 41.8572C31.6571 44.6249 31.6746 47.3933 31.6922 50.1624V50.2881C31.693 50.4008 31.6645 50.5116 31.6096 50.609C31.5548 50.7064 31.4756 50.7867 31.3804 50.8416C31.2852 50.8964 31.1775 50.9237 31.0686 50.9206C30.9597 50.9175 30.8536 50.8841 30.7615 50.824C30.4943 50.6508 30.2406 50.4562 30.0028 50.242C28.9153 49.2733 27.9927 48.1226 27.2734 46.8378C26.5594 45.5815 25.9936 44.2411 25.5881 42.8453C25.5345 42.5922 25.5345 42.3301 25.5881 42.077C25.723 40.8655 25.8646 39.654 26.013 38.4425C26.1479 37.2645 26.2868 36.0858 26.4298 34.9064C26.4985 34.3328 26.5653 33.7613 26.6321 33.1876C26.6321 33.1478 26.6321 33.106 26.6321 33.062C26.4722 32.9845 26.3165 32.9154 26.1647 32.8401C24.6435 32.0633 23.381 30.8342 22.5391 29.3103C21.8261 28.0324 21.3376 26.6339 21.0965 25.1796C21.0662 25.0079 21.0338 24.8363 21.0095 24.6625C20.9427 24.1935 21.0621 23.9842 21.487 23.8041C23.0344 23.1606 24.487 22.2959 25.8026 21.2353C26.6073 20.5992 27.3106 19.8362 27.8865 18.9742C27.9411 18.8905 27.9876 18.8005 28.0423 18.7188C28.1755 18.5195 28.2416 18.2804 28.2304 18.0384C28.2304 15.1429 28.2304 12.2496 28.2304 9.35417C28.2275 9.11213 28.2831 8.87319 28.3923 8.65909C29.0003 7.48392 29.7735 6.40866 30.6866 5.46846C32.6654 3.39371 35.0366 1.9931 37.7073 1.1096C39.0748 0.65181 40.4855 0.34582 41.9156 0.196798C42.6723 0.121428 43.431 0.0900244 44.1897 0.0376846C44.2605 0.0376846 44.3293 0.0125615 44.392 0L45.2741 0ZM31.5162 20.0315L31.4717 20.0461V20.3204C31.4851 22.287 31.5 24.2529 31.5162 26.218C31.5344 28.835 31.5607 31.452 31.5607 34.0711C31.5565 34.5031 31.6648 34.9284 31.8743 35.3021C32.7718 37.0094 33.8917 38.581 35.2025 39.9729C36.7917 41.5787 38.6078 42.9249 40.5883 43.9654C41.7027 44.5975 42.9054 45.046 44.1533 45.2948C44.4449 45.36 44.7432 45.3882 45.0415 45.3786C45.9461 45.2861 46.8324 45.0554 47.6717 44.694C49.0362 44.1216 50.3361 43.3964 51.5482 42.5313C52.6637 41.7715 53.701 40.8953 54.6437 39.9164C56.0418 38.4244 57.2174 36.7253 58.1318 34.875C58.1907 34.7579 58.2226 34.6282 58.2249 34.4961C58.2437 32.4709 58.2579 30.4471 58.2673 28.4247L58.2916 25.4141C58.3065 23.6499 58.32 21.885 58.3321 20.1194C58.3244 20.0729 58.3122 20.0273 58.2957 19.9833C58.2491 20.0734 58.2208 20.1236 58.1965 20.1738C57.6841 21.1809 57.074 22.1314 56.3756 23.0107C56.1349 23.3142 55.8799 23.6073 55.6189 23.8921C55.5637 23.9626 55.4944 24.0199 55.4157 24.0601C55.3371 24.1002 55.2509 24.1222 55.1632 24.1246C55.0755 24.127 54.9884 24.1097 54.9078 24.0739C54.8272 24.0381 54.7551 23.9846 54.6963 23.9172L54.5183 23.7455C53.8682 23.0663 53.3376 22.2749 52.9503 21.407C52.4475 20.3111 52.0589 19.1629 51.791 17.9819C51.7714 17.9107 51.7478 17.8408 51.7202 17.7725C51.6534 18.0007 51.6008 18.1766 51.5482 18.3503C51.2138 19.5223 50.7415 20.6473 50.142 21.7001C49.8767 22.1705 49.5484 22.5998 49.1668 22.9751C48.9774 23.1561 48.7706 23.3167 48.5498 23.4545C48.4386 23.5273 48.307 23.5591 48.1762 23.5446C48.0455 23.5302 47.9233 23.4704 47.8295 23.3749C47.7263 23.2828 47.6272 23.1823 47.5321 23.0797C47.0531 22.5345 46.6531 21.9203 46.3444 21.2562C45.7833 20.0784 45.3275 18.8499 44.9828 17.5862C44.9626 17.5129 44.9363 17.4417 44.8978 17.3266L44.827 17.5359C44.6368 18.1389 44.4588 18.7481 44.2524 19.3448C43.9266 20.3354 43.4914 21.2837 42.9555 22.1711C42.6958 22.6056 42.3784 23.0003 42.0127 23.3435C41.9105 23.4606 41.7694 23.5335 41.6176 23.5479C41.4658 23.5622 41.3143 23.5169 41.1933 23.421C40.9437 23.2517 40.7118 23.0559 40.5013 22.8369C39.9492 22.2238 39.4975 21.5216 39.164 20.758C38.7653 19.8986 38.4364 19.0065 38.1807 18.0907C38.1544 17.9965 38.122 17.9065 38.0917 17.8144C38.0457 17.8865 38.0128 17.9666 37.9946 18.0509C37.8307 18.6288 37.685 19.2129 37.4989 19.7823C37.1563 20.8915 36.6506 21.9394 35.9996 22.8892C35.731 23.2742 35.4201 23.6254 35.073 23.936C35.0143 23.9944 34.9448 24.0399 34.8687 24.0699C34.7926 24.0999 34.7115 24.1137 34.6301 24.1106C34.5488 24.1075 34.4689 24.0874 34.3951 24.0517C34.3214 24.0159 34.2554 23.9652 34.201 23.9025C34.0917 23.7895 33.9987 23.6722 33.8874 23.5529C33.0134 22.5421 32.2594 21.4266 31.6416 20.2304L31.5162 20.0315Z" fill="#EFEFEF"/>
<path d="M89.5001 42.2194C89.1622 43.3416 88.8284 44.4659 88.4885 45.5859C88.3699 46.0644 88.2038 46.5288 87.9928 46.9719C87.9627 47.0488 87.9509 47.1321 87.9584 47.2147C87.9584 47.6984 87.9584 48.1841 87.9584 48.6698C87.9652 49.9 87.559 51.0944 86.8092 52.0491C86.0593 53.0037 85.0124 53.6593 83.8472 53.9038C83.1545 54.0451 82.4418 54.0451 81.7491 53.9038C81.2635 53.8117 80.782 53.6944 80.2924 53.6379C79.6713 53.5817 79.0457 53.619 78.4351 53.7488C77.8605 53.8389 77.2838 53.9582 76.7052 53.9896C74.1235 54.1383 71.7341 52.455 71.2425 49.6245C71.1875 49.2953 71.1597 48.9619 71.1595 48.6279C71.1494 47.3885 71.1595 46.1512 71.1595 44.9139C71.1618 44.4531 71.23 43.9952 71.3618 43.5551C71.3976 43.4374 71.4066 43.3128 71.3881 43.1909C71.0806 41.4469 70.765 39.705 70.4514 37.9569C70.1034 36.035 69.754 34.113 69.4033 32.1911C69.3163 31.7075 69.2314 31.2218 69.1423 30.7361C69.0143 30.0007 69.1638 29.2424 69.56 28.6176C69.9561 27.9928 70.5688 27.5491 71.2717 27.3779C71.9747 27.2066 72.7143 27.3209 73.3382 27.6972C73.9622 28.0735 74.4228 28.6831 74.6253 29.4004C74.7447 29.8589 74.8054 30.3341 74.8883 30.8031C75.2242 32.711 75.5614 34.619 75.8999 36.527C75.9404 36.7573 75.9788 36.9875 76.0213 37.2178C76.033 37.3008 76.0635 37.3797 76.1104 37.4481C76.1751 36.9603 76.2419 36.4725 76.3127 35.9826C76.4705 34.8088 76.627 33.6329 76.7821 32.4549C76.9358 31.2951 77.0977 30.1373 77.2373 28.9754C77.3283 28.2196 77.5671 27.5434 78.1154 27.0179C78.9712 26.1993 79.9747 25.9711 81.0592 26.3898C82.1436 26.8085 82.7486 27.6627 82.8801 28.8623C82.8996 29.3137 82.8567 29.7656 82.7526 30.2043C82.4532 32.0188 82.1504 33.8332 81.8442 35.6477C81.8017 35.901 81.7592 36.1564 81.7107 36.4516C82.6414 36.1145 83.5316 36.1543 84.3409 36.7007C84.7272 36.9545 85.048 37.3017 85.2757 37.7124C85.5035 38.1231 85.6312 38.5849 85.6479 39.0581L85.8866 38.9827C86.5907 38.76 87.351 38.8298 88.0063 39.1772C88.6616 39.5246 89.1603 40.1225 89.3969 40.8439C89.4475 41.001 89.4779 41.1643 89.5163 41.3234L89.5001 42.2194ZM86.7222 48.1527L86.4956 48.2364C86.1265 48.3698 85.7346 48.4227 85.3447 48.3918C84.9548 48.3608 84.5754 48.2466 84.2302 48.0565C83.8851 47.8663 83.5817 47.6042 83.3393 47.2868C83.0968 46.9693 82.9205 46.6033 82.8214 46.2119C82.783 46.0591 82.7708 45.9 82.7425 45.743C82.7412 45.7096 82.7303 45.6774 82.7113 45.6504C82.6924 45.6234 82.6661 45.6028 82.6358 45.5911C82.6056 45.5795 82.5727 45.5774 82.5413 45.585C82.5099 45.5927 82.4813 45.6097 82.4593 45.6341C82.4289 45.6613 82.4046 45.6969 82.3763 45.7262C81.937 46.216 81.3412 46.5246 80.6991 46.595C80.3227 46.6348 79.9403 46.6223 79.562 46.6327H79.2626C79.3212 46.7123 79.3516 46.7479 79.3799 46.7856C79.4973 46.9447 79.6267 47.0975 79.734 47.2629C79.7991 47.3746 79.829 47.5044 79.8196 47.6345C79.8102 47.7646 79.7618 47.8883 79.6813 47.9887C79.6008 48.089 79.4921 48.161 79.3703 48.1945C79.2485 48.228 79.1196 48.2214 79.0016 48.1757C78.8725 48.1091 78.7613 48.0106 78.6778 47.8889C78.4575 47.5588 78.1372 47.3142 77.7674 47.1938C77.7188 47.2378 77.6642 47.2838 77.6116 47.3362L76.9257 48.0459C76.854 48.1267 76.7627 48.1861 76.6614 48.2182C76.56 48.2502 76.4522 48.2536 76.3491 48.228C76.2447 48.2028 76.1487 48.1494 76.0707 48.0733C75.9928 47.9972 75.9357 47.9011 75.9053 47.7947C75.8749 47.6884 75.8722 47.5756 75.8976 47.4678C75.9229 47.3601 75.9754 47.2612 76.0497 47.1812C76.2864 46.9175 76.5393 46.6683 76.7861 46.4171C77.1016 46.0821 77.4793 45.8166 77.8966 45.6367C78.3138 45.4568 78.762 45.3662 79.214 45.3703C79.5944 45.3703 79.9747 45.3808 80.3551 45.3703C80.5795 45.3867 80.8048 45.3545 81.0165 45.2758C81.2283 45.1971 81.4218 45.0735 81.5848 44.913C81.7478 44.7526 81.8767 44.5587 81.9633 44.3438C82.0498 44.1289 82.0921 43.8977 82.0874 43.6649C82.0828 43.4321 82.0313 43.2029 81.9362 42.9919C81.8411 42.7809 81.7046 42.5927 81.5353 42.4394C81.366 42.286 81.1677 42.1709 80.953 42.1013C80.7383 42.0317 80.5119 42.0092 80.2883 42.0352C78.5564 42.0352 76.8252 42.0352 75.0947 42.0352C74.7363 42.0349 74.3813 42.1081 74.0503 42.2504C73.7193 42.3928 73.4189 42.6016 73.1663 42.8648C72.9137 43.1279 72.7139 43.4402 72.5785 43.7836C72.4431 44.1271 72.3748 44.4948 72.3775 44.8657C72.3775 46.1219 72.3775 47.378 72.3775 48.6342C72.3766 48.9353 72.4065 49.2356 72.4665 49.5303C72.942 51.783 74.8539 52.8318 76.6445 52.7251C77.1179 52.6958 77.5893 52.6036 78.0608 52.5157C78.7648 52.4027 79.477 52.2729 80.1831 52.3482C80.6566 52.3985 81.126 52.4843 81.5994 52.5764C82.1956 52.7218 82.8116 52.76 83.4203 52.6895C84.4317 52.5238 85.3413 51.958 85.9573 51.1116C86.5734 50.2652 86.8476 49.2043 86.7222 48.1527ZM75.3921 40.7853C75.382 40.6806 75.382 40.6137 75.3699 40.5508C75.2343 39.7846 75.0967 39.0225 74.9652 38.2479L74.073 33.1688C73.8801 32.0662 73.6872 30.9643 73.4943 29.8631C73.4537 29.6316 73.3631 29.4126 73.2293 29.2224C73.0113 28.9165 72.6993 28.6964 72.3445 28.5983C71.9897 28.5001 71.6132 28.5297 71.2769 28.6823C70.9398 28.8325 70.6632 29.0984 70.4936 29.4352C70.3241 29.772 70.272 30.159 70.3462 30.5309C70.4251 30.9831 70.508 31.4353 70.589 31.8876C71.1366 34.9177 71.6862 37.9478 72.2379 40.9779C72.2885 41.2627 72.3431 41.5453 72.4038 41.8698C72.8048 41.4905 73.2755 41.1986 73.7879 41.0115C74.3003 40.8245 74.8438 40.7461 75.386 40.7811L75.3921 40.7853ZM79.3313 40.7686C79.3617 40.6786 79.386 40.6011 79.4123 40.5215L80.258 37.8815C80.2695 37.851 80.2783 37.8195 80.2843 37.7873C80.2843 37.6491 80.2843 37.5089 80.3086 37.3686C80.3935 36.8326 80.4866 36.2967 80.5756 35.7628C80.8454 34.1661 81.1152 32.5687 81.3849 30.9706C81.48 30.4011 81.5873 29.8358 81.656 29.2643C81.6986 28.8429 81.5825 28.4209 81.3319 28.0859C81.0813 27.7509 80.7155 27.5288 80.3106 27.4659C79.8981 27.4011 79.4774 27.5049 79.1375 27.7554C78.7977 28.0058 78.5654 28.3833 78.4897 28.8079C78.433 29.145 78.3946 29.4841 78.3481 29.8254C78.2132 30.868 78.0749 31.9113 77.9333 32.9553C77.7795 34.1054 77.6271 35.2561 77.476 36.4076C77.3412 37.4502 77.2022 38.4935 77.0593 39.5375C77.0046 39.9395 76.954 40.3436 76.8994 40.7644L79.3313 40.7686ZM86.7141 40.107C86.3794 40.1017 86.0517 40.2064 85.7783 40.4062C85.5048 40.606 85.2998 40.8905 85.1927 41.2187C84.788 42.4749 84.3935 43.731 84.0212 45.0123C83.9453 45.2721 83.9324 45.5472 83.9835 45.8133C84.0347 46.0795 84.1483 46.3285 84.3145 46.5385C84.4806 46.7485 84.6941 46.9129 84.9362 47.0174C85.1783 47.1218 85.4414 47.163 85.7025 47.1373C85.9095 47.1255 86.1117 47.0685 86.2959 46.97C86.48 46.8715 86.6418 46.7337 86.7708 46.5657C86.9651 46.2993 87.1092 45.9975 87.1957 45.676C87.5376 44.5266 87.9119 43.3877 88.2498 42.2362C88.3224 41.9881 88.3376 41.7257 88.2943 41.4704C88.2509 41.2151 88.1501 40.9738 88.0001 40.7662C87.85 40.5586 87.6549 40.3904 87.4305 40.2751C87.2061 40.1599 86.9586 40.1009 86.7081 40.1028L86.7141 40.107ZM83.1674 43.3793C83.1907 43.3401 83.2103 43.2988 83.2261 43.2558C83.6024 42.0471 83.9767 40.8384 84.349 39.6297C84.4276 39.373 84.4402 39.0995 84.3854 38.8362C84.3114 38.4787 84.1265 38.156 83.8587 37.9175C83.5909 37.679 83.2551 37.5376 82.9024 37.5151C82.5498 37.4925 82.1997 37.59 81.9056 37.7927C81.6115 37.9953 81.3896 38.2919 81.2737 38.6373C81.0612 39.2947 80.869 39.9584 80.6667 40.6178C80.6505 40.6723 80.6444 40.7267 80.6323 40.7832C81.2714 40.8653 81.8662 41.1641 82.3238 41.633C82.7814 42.102 83.0759 42.7146 83.1613 43.3751L83.1674 43.3793Z" fill="#EFEFEF"/>
<path d="M13.982 37.4231C14.0387 37.1133 14.0953 36.7951 14.1499 36.4936C14.5371 34.2883 14.9221 32.0838 15.3052 29.8799C15.3584 29.5164 15.4648 29.1634 15.6208 28.8331C15.9043 28.2911 16.3457 27.8553 16.8823 27.5878C17.4188 27.3202 18.0232 27.2344 18.6096 27.3427C19.1959 27.451 19.7344 27.7478 20.1484 28.1909C20.5623 28.6339 20.8308 29.2008 20.9156 29.8109C20.9547 30.2192 20.9294 30.6314 20.8408 31.0314C20.3269 33.8717 19.8116 36.7134 19.295 39.5565C19.0765 40.7638 18.8587 41.9718 18.6415 43.1805C18.6171 43.3027 18.6255 43.4294 18.6658 43.5469C18.8027 43.9678 18.8711 44.4092 18.8681 44.8533C18.8681 46.1325 18.8681 47.4138 18.8681 48.693C18.8729 49.9139 18.4665 51.0984 17.7188 52.0428C16.9711 52.9873 15.9288 53.6328 14.7711 53.8683C14.0157 54.0235 13.2389 54.0313 12.4808 53.8913C11.9547 53.8034 11.4287 53.7155 10.9006 53.6359C10.1994 53.5623 9.4912 53.6133 8.80658 53.7867C8.4188 53.8702 8.02712 53.9331 7.63311 53.9751C6.47634 54.0769 5.32049 53.7687 4.35537 53.101C3.39025 52.4333 2.67325 51.4459 2.32212 50.3008C2.16134 49.7819 2.0801 49.24 2.08136 48.695C2.08136 48.203 2.08136 47.709 2.08136 47.2149C2.0831 47.0897 2.0531 46.9663 1.99436 46.8569C1.91372 46.7027 1.84603 46.5415 1.79204 46.3753C1.40358 45.1338 1.01512 43.8944 0.638794 42.6488C0.486208 42.1395 0.470727 41.5969 0.594018 41.0793C0.717309 40.5617 0.974702 40.0886 1.33849 39.7111C1.70227 39.3336 2.15868 39.0659 2.65856 38.9368C3.15844 38.8078 3.68288 38.8222 4.17541 38.9787L4.35952 39.0373H4.3838C4.50519 36.9772 6.46368 35.7148 8.33517 36.4413C8.31494 36.2905 8.30078 36.1544 8.27852 36.0225C7.91839 33.8745 7.55825 31.7251 7.19811 29.5743C7.08642 28.8343 7.2527 28.0782 7.6628 27.4611C8.07291 26.844 8.69574 26.4128 9.40344 26.2559C11.0767 25.9126 12.5799 27.062 12.8004 28.8373C12.9825 30.2798 13.1828 31.7181 13.373 33.1606C13.5565 34.5563 13.7399 35.9472 13.9233 37.3331C13.9233 37.3645 13.9355 37.3959 13.9416 37.4273L13.982 37.4231ZM10.7448 46.635C10.6538 46.635 10.5931 46.6224 10.5425 46.6224H9.73323C9.34385 46.6274 8.95764 46.5494 8.59874 46.393C8.23983 46.2367 7.91593 46.0055 7.64727 45.7138C7.61669 45.6745 7.58284 45.6381 7.54611 45.6049C7.52542 45.589 7.50134 45.5784 7.4759 45.574C7.45045 45.5697 7.42437 45.5717 7.39982 45.5799C7.37527 45.5881 7.35298 45.6022 7.33478 45.6211C7.31659 45.6401 7.30303 45.6632 7.29523 45.6886C7.27869 45.7624 7.2672 45.8372 7.26083 45.9127C7.20576 46.2922 7.07882 46.6568 6.88731 46.9854C6.69579 47.3141 6.44346 47.6005 6.14479 47.828C5.84612 48.0556 5.50697 48.2199 5.1468 48.3116C4.78663 48.4032 4.41252 48.4204 4.04592 48.3622C3.79504 48.3161 3.55023 48.2365 3.269 48.1633C3.28721 48.5255 3.28518 48.8772 3.32565 49.2226C3.45496 50.2586 3.96738 51.2024 4.75519 51.8556C5.543 52.5088 6.54486 52.8205 7.55016 52.7252C7.92797 52.6822 8.30343 52.6193 8.67507 52.5368C9.39216 52.3603 10.1321 52.3052 10.8662 52.3735C11.4429 52.4447 12.0175 52.5493 12.5921 52.6415C13.1892 52.7562 13.8007 52.7654 14.4008 52.6687C15.3118 52.5147 16.1399 52.0296 16.7363 51.3005C17.3326 50.5713 17.6581 49.646 17.6542 48.6909C17.6542 47.4117 17.6542 46.1325 17.6542 44.8533C17.653 44.6277 17.6273 44.403 17.5773 44.1834C17.437 43.5717 17.1006 43.0272 16.623 42.6387C16.1453 42.2501 15.5546 42.0404 14.9471 42.0437C13.2152 42.0437 11.484 42.0437 9.75346 42.0437H9.65634C9.25523 42.0885 8.88474 42.2866 8.61746 42.5993C8.35019 42.912 8.2054 43.3167 8.21148 43.7342C8.21756 44.1516 8.37406 44.5516 8.65032 44.8558C8.92658 45.1601 9.30267 45.3466 9.7049 45.3788C10.0934 45.3788 10.4818 45.3788 10.8703 45.3788C11.5798 45.3665 12.2719 45.6067 12.8308 46.0592C13.2459 46.419 13.6386 46.8057 14.0063 47.217C14.1089 47.3324 14.1634 47.485 14.1581 47.6417C14.1528 47.7984 14.0881 47.9467 13.978 48.0544C13.8702 48.1713 13.7222 48.2396 13.5662 48.2443C13.4101 48.249 13.2585 48.1898 13.1444 48.0795C12.9057 47.8555 12.6831 47.6106 12.4545 47.374L12.2663 47.1877C11.9106 47.2986 11.6013 47.5301 11.3882 47.845C11.3392 47.9223 11.2807 47.9927 11.2142 48.0544C11.1509 48.1196 11.0734 48.1682 10.9882 48.1962C10.9031 48.2243 10.8127 48.2309 10.7246 48.2156C10.6228 48.2005 10.5263 48.1589 10.4443 48.0946C10.3623 48.0304 10.2974 47.9456 10.2557 47.8483C10.214 47.7509 10.197 47.6442 10.2061 47.5382C10.2152 47.4322 10.2502 47.3303 10.3078 47.2421C10.4373 47.0432 10.5891 46.8611 10.7509 46.6433L10.7448 46.635ZM17.6238 41.8595C17.6501 41.7422 17.6704 41.669 17.6825 41.5957C17.8302 40.7813 17.9739 39.969 18.1215 39.1546C18.6206 36.4036 19.119 33.6519 19.6167 30.8995C19.6725 30.6556 19.7057 30.4067 19.7159 30.1563C19.6879 29.7583 19.5235 29.3837 19.2523 29.1C18.9812 28.8163 18.621 28.6421 18.2367 28.6087C17.8524 28.5754 17.4693 28.6851 17.1562 28.9182C16.8432 29.1513 16.6209 29.4923 16.5293 29.8799C16.3998 30.6127 16.2743 31.3455 16.1449 32.0761C15.6552 34.9039 15.1616 37.7274 14.6638 40.5468C14.6517 40.6159 14.6497 40.6871 14.6396 40.7855C15.1835 40.7473 15.7292 40.8239 16.2436 41.0107C16.758 41.1975 17.2303 41.4905 17.6319 41.872L17.6238 41.8595ZM13.1343 40.7561C13.106 40.5468 13.0837 40.3374 13.0574 40.1469L12.5961 36.6695C12.4612 35.6352 12.3263 34.6003 12.1915 33.5647C12.0363 32.3964 11.8806 31.2289 11.7241 30.0621C11.6654 29.6141 11.6229 29.1639 11.5319 28.7243C11.4421 28.3296 11.2154 27.9828 10.8948 27.7497C10.5741 27.5166 10.1819 27.4136 9.79269 27.4601C9.40343 27.5066 9.04425 27.6994 8.78338 28.002C8.52251 28.3045 8.37812 28.6957 8.37766 29.1011C8.38893 29.3434 8.41938 29.5842 8.46871 29.8213C8.87335 32.2918 9.28339 34.7622 9.69883 37.2326C9.7368 37.425 9.75846 37.6205 9.76357 37.8167C9.80122 38.0124 9.86595 38.2013 9.95578 38.3778C10.1783 39.0855 10.3948 39.7952 10.6154 40.5028C10.6437 40.597 10.6761 40.6891 10.7064 40.775L13.1343 40.7561ZM1.70099 41.7757C1.7205 41.9408 1.75023 42.1045 1.79001 42.2656C2.17038 43.5071 2.55682 44.7486 2.94123 45.9901C3.02568 46.2559 3.17315 46.4956 3.37016 46.6873C3.57304 46.901 3.83062 47.0503 4.11266 47.1178C4.3947 47.1853 4.6895 47.1681 4.96244 47.0683C5.36534 46.9399 5.70248 46.6512 5.89976 46.2657C6.09704 45.8802 6.13832 45.4294 6.01452 45.0124C5.85671 44.4618 5.68069 43.9133 5.51074 43.3648C5.28818 42.6488 5.07574 41.9307 4.83903 41.2188C4.71332 40.8477 4.46424 40.5349 4.13626 40.3362C3.80827 40.1376 3.42273 40.066 3.04846 40.1343C2.67542 40.2052 2.33751 40.4074 2.09195 40.7065C1.8464 41.0056 1.70828 41.3833 1.70099 41.7757ZM9.40344 40.7813C9.40651 40.7534 9.40651 40.7253 9.40344 40.6975C9.17684 39.9669 8.97451 39.232 8.71352 38.5076C8.57151 38.1382 8.30396 37.8351 7.96118 37.6555C7.6184 37.4758 7.22401 37.4319 6.85214 37.532C6.63971 37.5844 6.43993 37.6814 6.26516 37.8169C6.09039 37.9524 5.94435 38.1235 5.83606 38.3198C5.72778 38.516 5.65955 38.7331 5.63561 38.9577C5.61167 39.1824 5.63252 39.4097 5.69688 39.6256C6.05499 40.821 6.43131 42.0123 6.79954 43.2036C6.8137 43.2475 6.83393 43.2915 6.87035 43.3794C7.14753 41.9013 7.98718 41.0451 9.40344 40.7813Z" fill="#EFEFEF"/>
<path d="M44.911 35.2082H53.5098C53.5826 35.2082 53.6554 35.2082 53.7283 35.2082C53.812 35.2082 53.8944 35.2298 53.968 35.271C54.0416 35.3123 54.1042 35.3718 54.1499 35.4444C54.1957 35.5169 54.2233 35.6001 54.2303 35.6864C54.2372 35.7727 54.2232 35.8595 54.1896 35.9388C54.1376 36.0884 54.0754 36.2339 54.0034 36.3743C53.1432 38.1225 51.765 39.5399 50.0703 40.4191C48.9446 41.0151 47.7223 41.3912 46.4649 41.5287C44.8795 41.7346 43.2708 41.6266 41.7244 41.2105C39.3633 40.5552 37.4756 39.1986 36.1646 37.0463C35.9623 36.7302 35.8227 36.3827 35.6527 36.0519C35.4059 35.5745 35.7357 35.183 36.1909 35.1956C37.0406 35.2165 37.8904 35.1956 38.7381 35.1956H44.911V35.2082ZM48.7005 39.8832V36.2717H45.4391V40.5385C46.1634 40.6013 48.047 40.2412 48.7005 39.8832ZM41.0992 36.2633V39.902C42.1419 40.2997 43.2399 40.5203 44.3506 40.5552V36.2633H41.0992ZM40.0593 36.2633H36.8929C37.6495 37.5913 38.7451 38.6779 40.0593 39.4037V36.2633ZM49.7465 39.3828C50.7582 39.0018 52.7126 37.0254 52.8482 36.2717H49.7465V39.3828Z" fill="#EFEFEF"/>
<path d="M50.7781 27.4469H48.9734C48.8764 27.4498 48.7794 27.4421 48.6841 27.4238C48.541 27.3924 48.4137 27.3086 48.3256 27.1878C48.2375 27.0671 48.1945 26.9174 48.2045 26.7665C48.2127 26.6142 48.2763 26.4708 48.3826 26.3652C48.4888 26.2595 48.6298 26.1994 48.7771 26.197C49.5136 26.197 50.248 26.197 50.9845 26.197C51.1281 26.197 51.2718 26.1719 51.4154 26.1719C52.2146 26.1719 53.0158 26.1719 53.815 26.1719C54.7106 26.1719 55.6062 26.1782 56.5018 26.1907C56.6456 26.2041 56.78 26.2701 56.881 26.3767C56.9819 26.4834 57.0429 26.6238 57.0529 26.7728C57.0629 26.9218 57.0212 27.0695 56.9354 27.1896C56.8497 27.3097 56.7253 27.3942 56.5848 27.428C56.5052 27.441 56.4246 27.4466 56.344 27.4448H54.4563C54.428 27.7459 54.3338 28.0363 54.181 28.2942C54.0282 28.5521 53.8207 28.7706 53.5742 28.9333C53.2503 29.1443 52.8694 29.2419 52.4877 29.2118C51.6299 29.1573 51.0512 28.5649 50.7781 27.4469Z" fill="#EFEFEF"/>
<path d="M39.005 27.4385C38.9807 27.7239 38.8966 28.0004 38.7586 28.2487C38.6205 28.4971 38.432 28.7114 38.2059 28.8768C37.8738 29.1235 37.4684 29.2414 37.0607 29.2097C36.298 29.1594 35.5008 28.5816 35.3491 27.4553C35.2702 27.4553 35.1852 27.4406 35.1002 27.4406H33.4513C33.3543 27.4425 33.2575 27.4348 33.162 27.4176C33.0296 27.3807 32.9133 27.2985 32.8318 27.1845C32.7503 27.0705 32.7086 26.9313 32.7132 26.7896C32.7179 26.6479 32.7688 26.512 32.8576 26.404C32.9465 26.2961 33.068 26.2223 33.2024 26.1949C33.2267 26.1949 33.251 26.1949 33.2753 26.1949C34.0259 26.1949 34.7785 26.1949 35.5291 26.1949C35.6647 26.1949 35.8002 26.1677 35.9338 26.1656C36.7572 26.1656 37.5827 26.1468 38.4062 26.1656C39.2296 26.1844 40.0672 26.1656 40.8968 26.1803C40.9935 26.1786 41.0901 26.1899 41.1841 26.2138C41.3099 26.2561 41.4183 26.3412 41.4917 26.4551C41.5651 26.5691 41.5993 26.7053 41.5887 26.8418C41.5864 26.9723 41.5431 27.0984 41.4653 27.2012C41.3876 27.3039 41.2796 27.3777 41.1578 27.4113C41.0553 27.4333 40.9508 27.4439 40.8462 27.4427H39.005V27.4385Z" fill="#EFEFEF"/>
</g>
<defs>
<clipPath id="clip0_1711_33643">
<rect width="89" height="54" fill="white" transform="translate(0.5)"/>
</clipPath>
</defs>
</svg>
