<svg width="240" height="240" viewBox="0 0 240 240" fill="none" xmlns="http://www.w3.org/2000/svg">
<path d="M221.941 124.286V134.874C221.857 135.431 221.731 135.998 221.7 136.555C221.434 142.812 220.328 149.006 218.412 154.968C216.605 160.126 213.695 164.422 208.653 166.933C205.452 168.433 201.986 169.286 198.454 169.443C198.215 169.468 197.984 169.547 197.78 169.674C197.576 169.802 197.404 169.974 197.277 170.179C196.71 171.964 196.279 173.792 195.796 175.62C196.847 176.292 197.445 177.101 197.015 178.372C196.49 179.926 195.187 179.832 193.947 179.716L190.796 185.609C192.277 186.859 192.613 187.815 192.015 188.897C191.416 189.979 190.555 190.137 188.475 189.517C187.246 191.408 186.006 193.298 184.777 195.168C185.933 196.544 186.111 197.405 185.46 198.319C184.809 199.233 183.853 199.433 182.078 198.803L178.265 203.55C179.158 204.979 179.315 205.798 178.601 206.618C178.441 206.844 178.238 207.037 178.003 207.184C177.768 207.331 177.506 207.431 177.233 207.477C176.96 207.523 176.68 207.514 176.41 207.451C176.14 207.389 175.885 207.273 175.66 207.111C175.537 207.07 175.406 207.059 175.278 207.08C175.15 207.1 175.029 207.15 174.924 207.227C173.317 208.739 171.773 210.294 170.113 211.859C170.891 213.057 171.069 214.149 170.113 215.074C169.158 215.998 167.96 215.683 166.91 214.937L162.109 218.813C162.845 220.347 162.782 221.345 161.878 222.048C160.565 223.099 159.473 222.426 158.496 221.46L151.353 226.355C151.836 227.574 151.962 228.718 150.754 229.506C149.704 230.189 148.884 229.937 147.487 228.655L139.798 232.647C140.008 234.548 139.672 235.431 138.58 235.798C137.487 236.166 136.679 235.798 135.702 234.527L123.097 237.857L121.122 239.958H119.84L117.813 237.721C116.059 237.342 113.905 236.943 111.805 236.387C109.704 235.83 107.603 235.084 105.502 234.422C104.389 235.861 103.59 236.229 102.508 235.819C101.426 235.41 101.111 234.58 101.3 232.668L93.5168 228.645C92.7395 229.695 91.8046 230.231 90.5546 229.643C89.5042 229.149 89.2416 228.193 89.6933 226.303L82.5609 221.513C81.2269 222.668 80.2815 222.91 79.4097 222.237C79.0294 221.993 78.7497 221.62 78.6218 221.187C78.6175 220.36 78.6878 219.533 78.8319 218.718L74.2101 215C73.2227 215.725 72.1092 216.103 71.1113 215.221C70.6951 214.889 70.4202 214.412 70.3423 213.885C70.2643 213.359 70.389 212.822 70.6912 212.384C70.7216 212.257 70.7222 212.125 70.6931 211.997C70.6639 211.87 70.6058 211.751 70.5231 211.649C68.9895 210.042 67.4349 208.498 65.9328 206.922C64.3151 207.71 63.4118 207.668 62.6555 206.922C61.8992 206.176 61.9202 205.168 62.813 203.582C62.1828 202.815 61.5315 202.038 60.9013 201.261L58.916 198.792C57.3824 199.485 56.3634 199.38 55.6702 198.487C54.9769 197.595 55.1134 196.607 56.2269 195.137L52.7395 189.748C52.6677 189.65 52.5868 189.558 52.4979 189.475C50.7752 190.158 49.7983 190.042 49.1261 189.065C48.4538 188.088 48.6954 187.027 50.1765 185.546C49.2941 183.887 48.3697 182.237 47.5294 180.557C47.2038 179.916 46.8992 179.601 46.1008 179.748C45.6554 179.835 45.1935 179.753 44.8052 179.518C44.4169 179.283 44.1299 178.912 44 178.477C43.8294 178.066 43.7934 177.612 43.8973 177.18C44.0011 176.748 44.2393 176.36 44.5777 176.071C44.7878 175.882 45.0084 175.714 45.1975 175.557C44.7563 173.95 44.2731 172.405 43.958 170.872C43.9497 170.651 43.8953 170.434 43.7983 170.235C43.7013 170.037 43.5638 169.86 43.3946 169.718C43.2255 169.576 43.0285 169.47 42.8161 169.408C42.6038 169.346 42.3809 169.33 42.1618 169.359C32.0252 168.887 25.5861 163.992 22.3718 154.38C20.816 149.413 19.8534 144.279 19.5042 139.086L19 133.403V125.588C19.0735 125.2 19.1681 124.8 19.2101 124.412C19.6933 120.536 20.0609 116.649 20.6492 112.805C21.521 107.143 25.166 103.992 30.5546 102.637C32.4454 102.164 34.4097 101.975 36.3845 101.649V89.6008L35.2395 89.2857C33.4452 88.8374 31.8515 87.804 30.7101 86.3487C29.5688 84.8935 28.9449 83.0994 28.937 81.25C28.8845 74.6534 28.874 68.0672 28.937 61.4706C28.9307 60.353 29.1502 59.2457 29.5823 58.215C30.0144 57.1844 30.6503 56.2516 31.4517 55.4728C32.2532 54.6939 33.2037 54.0849 34.2463 53.6824C35.2888 53.2798 36.402 53.092 37.5189 53.1303H38.7794C39.3256 49.1807 39.9139 45.3676 40.3655 41.5756C41.2941 33.2472 45.285 25.5612 51.563 20.0105C57.3891 14.8535 64.1696 10.8887 71.521 8.34034C85.313 3.15126 99.7143 1.05042 114.368 0.210084C114.767 0.165606 115.164 0.0954326 115.555 0L125.387 0C125.652 0.0960463 125.926 0.162967 126.206 0.19958C135.181 0.57211 144.11 1.6965 152.897 3.56092C162.288 5.56723 171.405 8.40336 179.819 13.0987C186.889 17.0798 192.908 22.1639 196.878 29.4118C199.483 34.1492 200.334 39.3487 201.017 44.6113C201.374 47.4265 201.763 50.2416 202.141 53.0882L203.097 53.1513C208.643 53.2353 212.067 56.7227 212.067 62.2794C212.067 68.4139 212.067 74.5483 212.067 80.6723C212.068 81.8458 211.869 83.011 211.479 84.1176C210.956 85.5598 210.048 86.8313 208.854 87.7941C207.659 88.757 206.224 89.3745 204.704 89.5798V101.586C207.046 102.027 209.315 102.279 211.468 102.91C215.744 104.181 218.916 106.765 220.019 111.313C220.544 113.414 220.891 115.588 221.206 117.742C221.521 119.895 221.731 122.101 221.941 124.286ZM61.2269 191.25L64.3782 188.729C65.6492 187.679 66.8782 187.679 67.7185 188.729C68.5588 189.779 68.3172 191.04 67.0252 192.09C65.9748 192.962 64.8718 193.813 63.7269 194.727L67.4139 199.307C67.5224 199.278 67.6279 199.24 67.729 199.191C68.7794 198.267 69.7773 197.332 70.8172 196.408C71.8571 195.483 73.3277 195.357 74.1576 196.26C74.9874 197.164 74.8193 198.529 73.6218 199.58L70.4706 202.479L75.1134 207.174C76.2269 205.893 77.2878 204.643 78.3802 203.424C78.5489 203.178 78.7655 202.969 79.017 202.808C79.2685 202.648 79.5499 202.54 79.8441 202.491C80.1384 202.442 80.4395 202.453 80.7294 202.523C81.0194 202.593 81.2922 202.721 81.5315 202.899C82.5189 203.708 82.5189 205 81.5315 206.229C80.5441 207.458 79.3466 208.771 78.1912 210.105L81.1639 212.542C81.7206 212.983 82.2878 213.414 82.9496 213.918C84.1576 212.384 85.3235 210.914 86.5 209.443C87.5504 208.172 88.7374 207.931 89.7563 208.771C90.7752 209.611 90.8067 210.788 89.8088 212.101C88.8109 213.414 87.5924 214.937 86.3845 216.471L92.75 220.788C93.8634 218.687 94.8508 216.733 95.9013 214.769C96.0891 214.268 96.461 213.857 96.9412 213.621C97.4215 213.385 97.9737 213.341 98.4853 213.498C99.8823 213.845 100.418 215.284 99.6618 216.744C98.6113 218.845 97.4979 220.872 96.3529 223.046L103.706 226.859C104.672 224.391 105.565 222.143 106.458 219.884C107.057 218.361 108.107 217.784 109.326 218.204C110.544 218.624 110.996 219.874 110.376 221.45L107.582 228.634L118.328 231.618V229.916C118.328 227.237 118.328 224.548 118.328 221.859C118.296 221.558 118.329 221.254 118.425 220.967C118.522 220.68 118.679 220.417 118.887 220.197C119.094 219.976 119.347 219.803 119.628 219.689C119.908 219.576 120.21 219.524 120.513 219.538C120.803 219.537 121.091 219.596 121.357 219.712C121.624 219.828 121.863 219.998 122.061 220.211C122.258 220.425 122.409 220.676 122.504 220.951C122.6 221.226 122.637 221.517 122.613 221.807C122.613 223.74 122.613 225.672 122.613 227.605V231.565L133.349 228.571C133.086 227.836 132.939 227.447 132.792 227.059C132.015 225.074 131.206 223.088 130.45 221.092C130.246 220.567 130.26 219.983 130.487 219.468C130.715 218.953 131.138 218.549 131.663 218.346C132.188 218.142 132.772 218.156 133.288 218.383C133.803 218.611 134.206 219.034 134.41 219.559C134.546 219.863 134.651 220.179 134.777 220.494C135.586 222.595 136.395 224.611 137.267 226.796L144.62 222.962C143.569 220.861 142.519 218.918 141.468 216.954C140.67 215.431 140.901 214.191 142.109 213.582C143.317 212.973 144.42 213.498 145.176 214.905C146.227 216.786 147.183 218.676 148.265 220.714L154.641 216.429C153.475 214.937 152.382 213.561 151.29 212.174C150.197 210.788 150.24 209.538 151.29 208.729C152.34 207.92 153.538 208.13 154.63 209.485L158.107 213.876L160.471 212.038C161.248 211.408 162.015 210.756 162.866 210.053C161.721 208.718 160.618 207.458 159.546 206.176C158.475 204.895 158.496 203.687 159.546 202.847C160.597 202.006 161.784 202.258 162.834 203.456L165.985 207.08L170.67 202.468C169.567 201.418 168.485 200.473 167.414 199.475C166.342 198.477 166.111 197.08 166.983 196.155C167.203 195.945 167.463 195.781 167.748 195.675C168.033 195.568 168.336 195.521 168.64 195.536C168.944 195.551 169.241 195.627 169.515 195.761C169.788 195.894 170.031 196.082 170.229 196.313C171.279 197.279 172.393 198.267 173.601 199.349L177.351 194.674C176.122 193.676 175.008 192.784 173.916 191.88C173.659 191.722 173.438 191.512 173.267 191.263C173.096 191.014 172.979 190.732 172.924 190.435C172.868 190.138 172.876 189.833 172.945 189.539C173.015 189.245 173.145 188.969 173.328 188.729C173.525 188.497 173.767 188.308 174.041 188.174C174.315 188.041 174.613 187.966 174.918 187.954C175.222 187.942 175.525 187.994 175.809 188.105C176.092 188.217 176.349 188.387 176.563 188.603C177.613 189.443 178.664 190.305 179.872 191.229L183.359 185.872C181.91 184.916 180.544 184.034 179.158 183.12C177.771 182.206 177.456 181.019 178.107 179.968C178.758 178.918 180.05 178.718 181.426 179.601C182.803 180.483 184.011 181.282 185.429 182.206L188.422 176.618C186.689 175.693 185.134 174.874 183.59 174.034C182.046 173.193 181.689 172.143 182.319 170.956C182.95 169.769 184.158 169.559 185.597 170.315L189.914 172.584C192.351 167.101 197.908 130.735 197.057 126.134H194.525C194.525 126.439 194.473 126.681 194.441 126.922C193.989 131.277 192.595 135.482 190.355 139.244C185.597 147.111 178.569 151.964 169.882 154.569C165.786 155.788 161.616 156.67 157.34 155.914C145.912 154.013 137.645 147.416 131.426 137.994C129.148 134.392 127.666 130.345 127.078 126.124H113.916C113.832 126.576 113.769 126.985 113.685 127.395C113.601 127.805 113.485 128.288 113.38 128.739C110.901 138.739 104.609 145.861 96.1534 151.25C91.3454 154.492 85.6594 156.182 79.8613 156.092C75.7829 155.933 71.7646 155.055 67.9916 153.498C58.0126 149.527 50.8592 142.773 47.6555 132.3C47.0462 130.315 46.7521 128.225 46.3109 126.145H43.8004C44.0105 137.311 48.958 168.687 51.1534 172.542C52.5924 171.786 54.021 171.019 55.4706 170.273C56.9202 169.527 58.0546 169.832 58.6218 170.914C59.1891 171.996 58.8004 173.267 57.4139 174.065L52.6134 176.607L55.6176 182.195C57.0567 181.25 58.3172 180.42 59.5882 179.601C60.8592 178.782 62.1933 178.845 62.9076 179.916C63.6218 180.987 63.2437 182.279 61.8571 183.193L57.708 185.924L61.2269 191.25ZM198.475 89.7479H42.729C42.5609 100.515 42.729 111.145 43.4748 121.754H46.4055C46.7311 120.357 46.9412 118.992 47.3613 117.679C49.3992 111.376 53.7899 107.069 59.5882 104.296C72.6555 98.0567 85.9958 97.9937 99.3782 103.246C103.687 104.893 107.46 107.695 110.282 111.345C112.587 114.325 113.925 117.939 114.116 121.702H126.836C127.624 115.641 129.557 111.796 133.58 108.246C136.212 105.971 139.224 104.175 142.477 102.941C150.108 99.9791 158.356 98.9612 166.479 99.979C173.084 100.518 179.444 102.723 184.966 106.387C189.557 109.601 192.876 113.739 194.105 119.338C194.284 120.137 194.42 120.956 194.578 121.807H197.824C198.023 111.029 198.244 100.42 198.475 89.7479ZM160.87 103.803C153.737 103.887 147.214 105.032 141.237 108.13C132.088 112.847 128.989 120.735 132.519 130.378C135.565 138.718 141.437 144.569 149.063 148.76C153.703 151.496 159.172 152.473 164.473 151.513C172.571 149.958 179.557 146.481 184.767 139.905C188.271 135.549 190.239 130.158 190.366 124.569C190.555 117.805 187.214 112.889 181.71 109.349C175.239 105.221 167.992 103.929 160.87 103.803ZM80.5861 103.803C76.4544 103.697 72.3318 104.243 68.3697 105.42C65.6396 106.226 62.9969 107.303 60.4811 108.634C52.0252 113.298 48.9265 120.798 51.4055 130.116C54.0525 140 60.7017 146.197 70.0399 149.727C74.3887 151.376 78.9265 152.616 83.5903 151.586C95.7227 148.908 104.01 141.565 108.538 130.032C110.017 126.515 110.297 122.61 109.336 118.918C107.929 113.771 104.263 110.515 99.7353 108.162C93.7962 105.19 87.2264 103.698 80.5861 103.813V103.803ZM45.2605 53.0567H195.765L194.935 46.7542H47.792C47.462 46.6957 47.1242 46.6957 46.7941 46.7542C46.479 46.8802 46.0483 47.1534 45.9958 47.4265C45.7017 49.2857 45.4811 51.1134 45.2605 53.0567ZM42.1933 163.057C38.861 144.893 36.9574 126.497 36.5 108.036C35.1134 108.246 33.8739 108.382 32.6555 108.603C29.3046 109.233 27.2458 110.987 26.6471 114.569C25.6244 120.697 25.2233 126.912 25.4496 133.12C25.56 138.7 26.2643 144.253 27.5504 149.685C28.4118 153.078 29.5567 156.376 32.0357 158.981C34.7563 161.765 38.2542 162.679 42.1933 163.057ZM204.504 108.193C204.039 126.611 202.143 144.965 198.832 163.088C203.349 162.689 206.426 161.523 208.695 159.286C210.854 156.97 212.365 154.126 213.076 151.04C214.948 143.756 215.804 136.248 215.618 128.729C215.653 123.52 215.107 118.323 213.99 113.235C213.832 112.452 213.492 111.717 212.997 111.089C212.503 110.461 211.867 109.959 211.143 109.622C209.062 108.664 206.795 108.176 204.504 108.193Z" fill="#1C1919"/>
<path d="M120.523 176.26H165.25C168.496 176.26 169.62 177.92 168.212 180.893C162.897 192.132 154.252 199.8 142.803 204.433C134.076 207.8 124.69 209.105 115.376 208.246C106.662 207.783 98.1922 205.202 90.7017 200.725C82.9241 196.094 76.7061 189.247 72.8445 181.061C72.6391 180.65 72.4635 180.226 72.3193 179.79C72.1685 179.394 72.1167 178.968 72.1685 178.548C72.2203 178.128 72.3741 177.727 72.6165 177.379C72.8589 177.032 73.1825 176.75 73.5592 176.557C73.9358 176.364 74.354 176.265 74.7773 176.271C76.1639 176.218 77.5504 176.271 78.979 176.271L120.523 176.26ZM140.176 199.842V181.586H123.223V203.141C129.015 202.965 134.741 201.852 140.176 199.842ZM100.859 181.555C100.805 181.675 100.766 181.802 100.744 181.933C100.744 187.636 100.744 193.34 100.744 199.055C100.744 199.779 101.122 200.01 101.679 200.105C105.134 200.945 108.58 201.87 112.057 202.584C113.946 202.878 115.85 203.071 117.76 203.162V181.555H100.859ZM145.586 181.555V197.395C152.415 193.734 158.095 188.251 161.994 181.555H145.586ZM95.4496 181.555H79.0105C82.9302 188.224 88.6202 193.677 95.4496 197.311V181.555Z" fill="#1C1919"/>
<path d="M147.151 162.332C147.572 162.483 147.983 162.662 148.38 162.868C151.405 164.59 154.417 166.341 157.414 168.12C158.79 168.929 159.179 170.116 158.464 171.271C157.75 172.426 156.605 172.574 155.313 171.817L146.101 166.418C145.641 166.204 145.273 165.831 145.067 165.368C144.86 164.905 144.828 164.382 144.977 163.897C145.1 163.424 145.385 163.009 145.782 162.723C146.179 162.437 146.663 162.299 147.151 162.332Z" fill="#1C1919"/>
<path d="M119.609 164.916C119.328 165.444 118.946 165.911 118.485 166.292C115.334 168.193 112.183 170.021 108.937 171.838C108.7 171.983 108.436 172.079 108.162 172.121C107.888 172.163 107.608 172.151 107.338 172.085C107.068 172.02 106.814 171.901 106.59 171.737C106.366 171.573 106.177 171.367 106.033 171.129C105.888 170.892 105.792 170.629 105.75 170.354C105.708 170.08 105.72 169.8 105.786 169.53C105.851 169.261 105.97 169.006 106.134 168.783C106.298 168.559 106.504 168.369 106.742 168.225C109.893 166.334 113.16 164.454 116.416 162.647C117.95 161.828 119.641 162.815 119.609 164.916Z" fill="#1C1919"/>
<path d="M146.752 169.78C146.797 170.183 146.728 170.591 146.553 170.958C146.378 171.324 146.104 171.634 145.762 171.853C145.42 172.072 145.023 172.19 144.617 172.195C144.211 172.2 143.812 172.091 143.464 171.88C140.25 170.074 137.078 168.204 133.895 166.366C133.784 166.304 133.679 166.234 133.58 166.156C133.173 165.849 132.891 165.406 132.787 164.907C132.682 164.409 132.763 163.889 133.013 163.446C133.261 162.975 133.684 162.621 134.191 162.46C134.698 162.299 135.248 162.343 135.723 162.584C139.126 164.475 142.494 166.422 145.828 168.424C146.332 168.729 146.553 169.475 146.752 169.78Z" fill="#1C1919"/>
<path d="M158.485 162.322C158.931 162.482 159.366 162.672 159.788 162.889C162.771 164.59 165.744 166.306 168.706 168.036C170.124 168.855 170.555 170.011 169.924 171.135C169.294 172.259 168.023 172.521 166.542 171.67C163.489 169.913 160.443 168.162 157.403 166.418C156.964 166.209 156.61 165.854 156.403 165.413C156.196 164.973 156.149 164.474 156.269 164.002C156.393 163.512 156.68 163.079 157.082 162.773C157.485 162.468 157.98 162.309 158.485 162.322Z" fill="#1C1919"/>
<path d="M96.1323 164.916C95.8488 165.457 95.4595 165.936 94.9874 166.324C91.8361 168.235 88.6848 170.053 85.439 171.87C85.2026 172.029 84.9364 172.138 84.6564 172.191C84.3765 172.243 84.0888 172.239 83.8107 172.177C83.5327 172.115 83.2701 171.997 83.039 171.831C82.8079 171.664 82.6131 171.452 82.4664 171.208C82.3099 170.958 82.2078 170.678 82.1666 170.386C82.1254 170.094 82.1461 169.797 82.2274 169.514C82.3086 169.231 82.4486 168.967 82.6381 168.742C82.8277 168.516 83.0627 168.333 83.3277 168.204C86.479 166.366 89.6302 164.538 92.7815 162.752C94.3886 161.849 96.1428 162.815 96.1323 164.916Z" fill="#1C1919"/>
<path d="M84.8088 164.916C84.5082 165.479 84.1016 165.978 83.6113 166.387C80.4601 168.299 77.3088 170.116 74.0525 171.933C73.8127 172.084 73.545 172.184 73.2653 172.229C72.9857 172.273 72.6999 172.261 72.4252 172.192C72.1504 172.124 71.8924 172 71.6667 171.829C71.4409 171.658 71.252 171.443 71.1113 171.198C70.9678 170.953 70.8753 170.682 70.8394 170.4C70.8035 170.119 70.825 169.833 70.9025 169.56C70.9801 169.287 71.1121 169.033 71.2906 168.813C71.4691 168.592 71.6904 168.41 71.9412 168.278C75.1554 166.387 78.3697 164.506 81.626 162.7C83.0756 161.849 84.7458 162.815 84.8088 164.916Z" fill="#1C1919"/>
<path d="M106.374 162.111C107.024 162.61 107.597 163.201 108.076 163.866C108.287 164.287 108.325 164.775 108.182 165.224C108.039 165.674 107.725 166.05 107.309 166.271C106.553 166.796 105.723 167.216 104.924 167.679L97.9706 171.702C96.4685 172.563 95.2815 172.405 94.5673 171.25C93.853 170.095 94.3467 168.897 95.7962 168.099C98.7304 166.397 101.665 164.702 104.599 163.015C105.061 162.658 105.576 162.479 106.374 162.111Z" fill="#1C1919"/>
<path d="M123.685 162.342C124.072 162.469 124.448 162.627 124.809 162.815C127.897 164.58 130.978 166.355 134.052 168.141C134.337 168.258 134.592 168.437 134.8 168.663C135.008 168.89 135.164 169.16 135.256 169.454C135.348 169.747 135.375 170.057 135.334 170.362C135.293 170.667 135.185 170.96 135.019 171.219C134.867 171.472 134.663 171.691 134.42 171.86C134.178 172.03 133.902 172.146 133.612 172.201C133.321 172.257 133.022 172.25 132.734 172.182C132.446 172.114 132.176 171.986 131.941 171.807C128.79 170.032 125.702 168.225 122.592 166.418C122.123 166.206 121.749 165.828 121.54 165.358C121.33 164.887 121.301 164.356 121.458 163.866C121.591 163.391 121.887 162.978 122.295 162.699C122.702 162.421 123.194 162.295 123.685 162.342Z" fill="#1C1919"/>
<path d="M150.943 127.941C147.529 127.941 144.179 127.941 140.828 127.941C140.311 127.973 139.794 127.874 139.325 127.653C138.856 127.433 138.45 127.098 138.144 126.679C137.839 126.261 137.644 125.772 137.577 125.258C137.509 124.745 137.573 124.222 137.76 123.739C137.938 123.148 138.301 122.63 138.797 122.262C139.294 121.895 139.895 121.698 140.513 121.701C144.2 121.701 147.866 121.701 151.584 121.701C152.445 121.701 153.317 121.586 154.179 121.586C158.422 121.586 162.662 121.586 166.899 121.586C171.321 121.586 175.754 121.586 180.187 121.68C182.855 121.68 184.389 123.687 183.622 125.882C183.411 126.537 182.985 127.1 182.412 127.482C181.84 127.863 181.156 128.04 180.471 127.983C177.498 127.983 174.515 127.983 171.532 127.983H170.061C169.92 129.477 169.448 130.92 168.68 132.208C167.911 133.496 166.865 134.597 165.618 135.43C163.845 136.583 161.737 137.109 159.63 136.922C155.26 136.554 152.078 133.403 150.943 127.941Z" fill="#1C1919"/>
<path d="M65.9958 121.786C68.0966 121.786 70.1975 121.786 72.2983 121.786C77.0252 121.723 81.7521 121.607 86.4895 121.576C90.9223 121.576 95.355 121.576 99.7878 121.66C102.319 121.66 103.884 123.424 103.359 125.536C103.205 126.246 102.804 126.878 102.226 127.319C101.649 127.759 100.933 127.98 100.208 127.941C97.1828 127.941 94.1681 127.941 91.1428 127.941C90.313 127.941 89.9244 128.057 89.7563 128.992C89.3589 131.16 88.2163 133.121 86.5261 134.536C84.836 135.951 82.7045 136.731 80.5002 136.741C78.2959 136.751 76.1574 135.99 74.4545 134.591C72.7516 133.191 71.5914 131.24 71.1744 129.076C71.0063 128.088 70.6071 127.878 69.7038 127.889C66.6786 127.889 63.6534 127.889 60.6281 127.889C58.5273 127.889 57.2458 126.712 57.1723 124.864C57.0987 123.015 58.4643 121.712 60.5546 121.586H65.9748L65.9958 121.786Z" fill="#1C1919"/>
</svg>
