<svg width="91" height="50" viewBox="0 0 91 50" fill="none" xmlns="http://www.w3.org/2000/svg">
<g clip-path="url(#clip0_1711_33626)">
<path d="M46.1083 0C46.1527 0.0167253 46.199 0.0281652 46.2462 0.0340709C47.3166 0.0688098 48.3822 0.154321 49.443 0.290604C51.7711 0.601251 54.0457 1.07624 56.1947 2.03022C57.3141 2.50466 58.3401 3.16521 59.2268 3.98228C60.3328 4.99741 61.0392 6.35731 61.2235 7.82628C61.3203 8.56582 61.4294 9.30335 61.5302 10.0409C61.5368 10.0722 61.5457 10.103 61.557 10.1331C61.6373 10.1331 61.7258 10.1331 61.8122 10.1331C62.0352 10.1314 62.2562 10.1734 62.4622 10.2565C62.6682 10.3397 62.8548 10.4623 63.0112 10.6171C63.1675 10.7719 63.2902 10.9558 63.3721 11.1577C63.454 11.3596 63.4933 11.5755 63.4878 11.7925C63.4878 13.003 63.4878 14.2129 63.4878 15.4221C63.5014 15.8064 63.3737 16.1829 63.1277 16.4838C62.8817 16.7847 62.5335 16.9902 62.1457 17.0635C62.1101 17.0722 62.0751 17.0829 62.0407 17.0956V19.4124C62.3207 19.4485 62.5924 19.4605 62.8538 19.5206C63.1817 19.5884 63.5022 19.6864 63.811 19.8132C64.1338 19.9493 64.4177 20.1598 64.6382 20.4265C64.8588 20.6933 65.0094 21.0083 65.0769 21.3444C65.2763 22.2373 65.388 23.1466 65.4104 24.06C65.4608 25.4136 65.3642 26.7686 65.1222 28.1025C65.0095 28.7669 64.8146 29.4156 64.5417 30.0345C63.9407 31.3372 62.895 32.0507 61.4541 32.2571C61.1865 32.2972 60.9147 32.3152 60.6307 32.3473C60.5236 32.7241 60.4248 33.1069 60.3034 33.5037C60.4969 33.64 60.643 33.8063 60.5319 34.0649C60.4516 34.2532 60.2993 34.3114 59.9493 34.2833L59.3318 35.4076C59.6262 35.6782 59.6838 35.8526 59.5603 36.051C59.4368 36.2494 59.2371 36.2795 58.8872 36.1452C58.6443 36.5079 58.3993 36.8727 58.1544 37.2334C58.3849 37.5261 58.4117 37.6844 58.2676 37.8648C58.1235 38.0451 57.9609 38.0532 57.6336 37.9329L56.9008 38.8147C56.9529 38.9537 56.9908 39.0974 57.014 39.2436C57.005 39.3308 56.9641 39.4119 56.8987 39.4721C56.7629 39.6184 56.5735 39.6164 56.3347 39.4982L55.3261 40.5002C55.3893 40.5848 55.4172 40.6895 55.4042 40.7932C55.3912 40.897 55.3383 40.9921 55.2561 41.0594C55.0976 41.1957 54.9267 41.1857 54.6529 41.0193L53.7122 41.7589C53.8501 42.0815 53.8254 42.2679 53.6381 42.3962C53.4508 42.5244 53.2614 42.4824 53.0206 42.2639L51.6105 43.1878C51.6847 43.4243 51.732 43.6628 51.452 43.8111C51.2606 43.9133 51.0918 43.8612 50.8633 43.6287L49.3812 44.3783C49.3592 44.5407 49.3255 44.7015 49.2804 44.8593C49.2598 44.9214 49.1651 44.9735 49.0931 44.9996C48.8872 45.0778 48.7287 44.9996 48.5188 44.721C47.7141 45.0261 46.8764 45.2412 46.0219 45.3624C45.9642 45.6029 45.8407 45.7832 45.5608 45.7752C45.2808 45.7672 45.1841 45.6049 45.1326 45.3644C44.2713 45.2415 43.4274 45.0229 42.6172 44.713C42.5369 44.8493 42.4525 44.9996 42.2693 45.0096C42.1801 45.0183 42.0901 45.0074 42.0058 44.9776C41.8103 44.8954 41.7567 44.717 41.8206 44.4044L40.322 43.6468C40.1908 43.7248 40.0531 43.7918 39.9103 43.8472C39.8214 43.859 39.7312 43.8383 39.6571 43.7891C39.4698 43.6809 39.4369 43.4965 39.546 43.1878L38.1318 42.2599C37.9424 42.4363 37.7201 42.5645 37.469 42.3681C37.2981 42.2379 37.2899 42.0455 37.4319 41.7669L36.4912 41.0233C36.1866 41.1917 36.0157 41.1957 35.8552 41.0414C35.6946 40.887 35.7008 40.7367 35.8222 40.4902L34.8218 39.5262C34.6859 39.5509 34.5483 39.5657 34.4101 39.5703C34.3278 39.5532 34.2547 39.5076 34.2043 39.442C34.0705 39.2957 34.0931 39.1033 34.266 38.8588L33.8852 38.3999L33.5044 37.9389C33.1648 38.0612 32.9795 38.0351 32.8519 37.8547C32.7243 37.6744 32.7716 37.494 32.9836 37.2435L32.2467 36.1532C31.8926 36.2835 31.7012 36.2554 31.5756 36.061C31.4501 35.8666 31.5077 35.6762 31.8041 35.4197L31.1866 34.2913C30.9416 34.3154 30.6802 34.3254 30.5876 34.0288C30.5551 33.93 30.5618 33.8229 30.6064 33.7287C30.6509 33.6344 30.7302 33.5599 30.8284 33.5197C30.7214 33.1329 30.6226 32.7481 30.5032 32.3553C30.2294 32.3252 29.9618 32.3032 29.6942 32.2671C29.2039 32.2051 28.7279 32.0628 28.2862 31.8462C27.5874 31.4951 27.0247 30.9324 26.6827 30.2429C26.3649 29.6158 26.141 28.9477 26.0178 28.2588C25.7129 26.661 25.616 25.0321 25.7296 23.4107C25.7736 22.7313 25.8692 22.0561 26.0158 21.3905C26.0883 21.0228 26.2558 20.6792 26.5025 20.392C26.7492 20.1049 27.067 19.8836 27.4258 19.7491C27.7911 19.6018 28.1768 19.5079 28.5703 19.4705C28.7268 19.4525 28.8811 19.4404 29.0561 19.4244V17.1056L28.8853 17.0595C28.5427 16.9786 28.2358 16.7928 28.0098 16.5294C27.7838 16.2661 27.6505 15.939 27.6296 15.5964C27.6214 15.5083 27.6172 15.4201 27.6172 15.3319C27.6172 14.1955 27.6172 13.0572 27.6172 11.9248C27.6132 11.7224 27.6361 11.5203 27.6852 11.3236C27.7787 10.9919 27.9792 10.6983 28.2572 10.4861C28.5352 10.2739 28.8759 10.1543 29.229 10.1451H29.5645C29.6016 9.86452 29.6325 9.60197 29.6716 9.34343C29.7889 8.58385 29.8774 7.81626 30.04 7.0667C30.3488 5.71589 31.1187 4.62362 32.1767 3.71372C33.1679 2.89156 34.2937 2.23713 35.5073 1.7777C36.9743 1.20723 38.4992 0.789381 40.0565 0.531105C41.6351 0.252091 43.2326 0.0866337 44.8362 0.036075C44.9009 0.0288995 44.9649 0.0168381 45.0276 0L46.1083 0ZM54.4594 39.5523L55.3857 38.6424C55.2993 38.5702 55.2375 38.5201 55.1799 38.466C55.0152 38.3217 54.8485 38.1774 54.6879 38.0291C54.6463 37.9938 54.6124 37.9508 54.5882 37.9025C54.564 37.8542 54.55 37.8017 54.547 37.748C54.5441 37.6944 54.5523 37.6407 54.5711 37.5902C54.5898 37.5397 54.6189 37.4933 54.6564 37.454C54.694 37.4146 54.7393 37.383 54.7896 37.361C54.8399 37.339 54.8943 37.3271 54.9495 37.3259C55.0047 37.3248 55.0595 37.3345 55.1108 37.3544C55.162 37.3743 55.2086 37.4041 55.2478 37.4419C55.3178 37.498 55.3816 37.5601 55.4537 37.6203L55.9395 38.0491L56.6805 37.1473L56.3244 36.8767C56.1906 36.7705 56.0506 36.6763 55.9271 36.554C55.8491 36.486 55.802 36.3905 55.7962 36.2887C55.7904 36.1868 55.8264 36.0869 55.8962 36.0109C55.9612 35.9377 56.0512 35.8899 56.1496 35.8763C56.248 35.8627 56.3481 35.8842 56.4314 35.9367C56.5032 35.9811 56.572 36.03 56.6373 36.0831L57.1725 36.5039L57.8415 35.4738L57.578 35.2974C57.3722 35.1611 57.1478 35.0309 56.9399 34.8866C56.853 34.8298 56.7926 34.7421 56.7718 34.6422C56.751 34.5424 56.7714 34.4387 56.8287 34.3535C56.8841 34.2684 56.9703 34.2067 57.0702 34.1807C57.1702 34.1547 57.2765 34.1663 57.368 34.2132C57.4338 34.247 57.4971 34.2851 57.5574 34.3274L58.2614 34.7743L58.8419 33.7201C58.8245 33.701 58.806 33.6829 58.7863 33.666L58.2202 33.3714C58.0823 33.2993 57.9403 33.2351 57.8085 33.153C57.718 33.1024 57.6513 33.0194 57.6229 32.9216C57.5944 32.8239 57.6064 32.7191 57.6562 32.6299C57.705 32.5412 57.7863 32.4736 57.8839 32.4405C57.9816 32.4075 58.0884 32.4114 58.1832 32.4515C58.2665 32.4861 58.3477 32.5256 58.4261 32.5697L59.1404 32.9385C59.6159 31.9224 60.7048 25 60.5401 24.0661H60.0728C60.0564 24.0861 60.0481 24.0901 60.0461 24.0981C60.0377 24.1291 60.0315 24.1606 60.0276 24.1923C59.9486 24.9588 59.7148 25.7026 59.3396 26.3809C58.9645 27.0591 58.4553 27.6585 57.8415 28.1445C56.8679 28.9175 55.7119 29.4423 54.478 29.6717C53.3996 29.8915 52.2775 29.7751 51.2709 29.339C50.0905 28.8338 49.052 28.0599 48.2429 27.0823C47.5981 26.3186 47.1487 25.4167 46.9317 24.4509C46.8988 24.3206 46.8741 24.1883 46.8473 24.05H44.2742C44.2627 24.0688 44.2537 24.0891 44.2475 24.1101C44.04 25.3248 43.4702 26.4532 42.6089 27.3549C41.7461 28.3207 40.6444 29.056 39.4081 29.4913C38.8209 29.705 38.1963 29.8044 37.5699 29.784C36.498 29.7253 35.4521 29.4401 34.5048 28.9482C32.7675 28.0564 31.6106 26.7096 31.166 24.8236C31.1084 24.5751 31.0796 24.3206 31.0363 24.0661H30.5258C30.5236 24.0954 30.5236 24.1249 30.5258 24.1542C30.5896 24.8417 30.6329 25.5291 30.7317 26.2125C30.9108 27.5453 31.0919 28.8781 31.3183 30.2048C31.4604 31.0486 31.6847 31.8783 31.8762 32.714C31.8974 32.7884 31.9235 32.8614 31.9544 32.9325L32.0944 32.8664C32.3558 32.7321 32.6152 32.5918 32.8786 32.4655C32.9267 32.4382 32.98 32.4207 33.0352 32.414C33.0904 32.4073 33.1465 32.4115 33.2 32.4265C33.2535 32.4415 33.3033 32.4669 33.3464 32.5012C33.3895 32.5354 33.4251 32.5778 33.4509 32.6259C33.4765 32.6742 33.4918 32.727 33.4958 32.7812C33.4998 32.8355 33.4925 32.8899 33.4742 32.9413C33.4559 32.9927 33.4271 33.0399 33.3894 33.0801C33.3518 33.1202 33.3062 33.1525 33.2553 33.175C33.1709 33.2231 33.0824 33.2672 32.9939 33.3113L32.2549 33.6941L32.8437 34.7643L33.0804 34.618C33.2718 34.4957 33.4632 34.3715 33.6588 34.2512C33.7031 34.2159 33.7545 34.1899 33.8096 34.175C33.8648 34.16 33.9226 34.1565 33.9793 34.1645C34.036 34.1726 34.0903 34.192 34.1388 34.2217C34.1873 34.2513 34.2289 34.2905 34.261 34.3367C34.2931 34.3829 34.3149 34.4351 34.325 34.49C34.3352 34.5449 34.3335 34.6012 34.32 34.6555C34.3066 34.7097 34.2816 34.7605 34.2468 34.8048C34.212 34.8491 34.1681 34.8858 34.1178 34.9126C33.9902 35.0008 33.8585 35.081 33.7267 35.1651L33.2615 35.4658L33.9511 36.4919L34.1878 36.3135C34.3484 36.1893 34.5048 36.055 34.6716 35.9408C34.7565 35.883 34.8607 35.8586 34.9633 35.8723C35.066 35.8861 35.1595 35.937 35.2253 36.0149C35.2897 36.0941 35.321 36.194 35.313 36.2947C35.305 36.3954 35.2582 36.4895 35.1821 36.558C35.1218 36.6127 35.0585 36.6642 34.9927 36.7124L34.439 37.1473L35.1821 38.0491L35.6184 37.6623C35.7234 37.5721 35.8243 37.4739 35.9334 37.3938C36.0118 37.3331 36.1111 37.3038 36.211 37.312C36.3109 37.3202 36.4037 37.3652 36.4706 37.4379C36.5434 37.5105 36.5842 37.608 36.5842 37.7094C36.5842 37.8109 36.5434 37.9084 36.4706 37.981C36.4207 38.034 36.367 38.0835 36.3101 38.1293C36.1248 38.2977 35.9375 38.464 35.7564 38.6263L36.6785 39.5162L36.9441 39.2176C37.0841 39.0592 37.2179 38.8949 37.3681 38.7466C37.438 38.6712 37.5356 38.6258 37.6397 38.6201C37.7438 38.6145 37.8459 38.6492 37.9239 38.7165C38.0029 38.782 38.0536 38.8742 38.0658 38.9745C38.078 39.0749 38.0509 39.176 37.9898 39.2577C37.9306 39.3343 37.8674 39.4079 37.8004 39.4781L37.257 40.0834L38.1894 40.8149C38.2533 40.7407 38.3068 40.6826 38.3582 40.6145C38.5476 40.382 38.7391 40.1515 38.9223 39.915C38.9558 39.8685 38.9989 39.8291 39.0487 39.7993C39.0985 39.7695 39.154 39.75 39.2119 39.742C39.2697 39.7339 39.3287 39.7374 39.3851 39.7524C39.4415 39.7673 39.4941 39.7933 39.5398 39.8288C39.5826 39.8636 39.6177 39.9065 39.643 39.9549C39.6682 40.0033 39.6831 40.0561 39.6868 40.1103C39.6905 40.1644 39.6828 40.2188 39.6642 40.2699C39.6457 40.3211 39.6167 40.3681 39.5789 40.408C39.406 40.6325 39.2228 40.849 39.0458 41.0694C38.9922 41.1376 38.9408 41.2077 38.8749 41.2939L40.11 42.1096C40.1717 42.0034 40.217 41.9292 40.2602 41.8511C40.4311 41.5404 40.5937 41.2257 40.7728 40.9191C40.7969 40.8723 40.8304 40.8307 40.8714 40.7969C40.9125 40.7631 40.9601 40.7378 41.0115 40.7224C41.0629 40.707 41.1169 40.702 41.1704 40.7075C41.2238 40.7131 41.2755 40.7292 41.3224 40.7548C41.4147 40.8027 41.4847 40.883 41.5184 40.9794C41.552 41.0759 41.5467 41.1811 41.5036 41.2738C41.4797 41.3247 41.4529 41.3742 41.4233 41.4222L40.9169 42.3581C40.8881 42.4102 40.8654 42.4683 40.8325 42.5445L42.2549 43.266L42.364 43.0175C42.506 42.6667 42.646 42.316 42.788 41.9673C42.811 41.8973 42.8421 41.83 42.8807 41.7669C42.9278 41.6957 42.9978 41.6418 43.0797 41.6135C43.1616 41.5852 43.2509 41.5842 43.3335 41.6105C43.421 41.6363 43.4973 41.6896 43.5502 41.7622C43.6031 41.8348 43.6297 41.9225 43.6258 42.0114C43.6151 42.0805 43.595 42.1479 43.5661 42.2118C43.4159 42.5906 43.2615 42.9714 43.1091 43.3522C43.0824 43.4163 43.0639 43.4844 43.0371 43.5646C43.708 43.828 44.4087 44.013 45.1244 44.1158V42.8872C45.1244 42.6868 45.1141 42.4703 45.1244 42.2619C45.1255 42.1921 45.1454 42.1238 45.182 42.0637C45.2186 42.0037 45.2706 41.954 45.333 41.9196C45.3954 41.8851 45.466 41.8672 45.5377 41.8675C45.6094 41.8678 45.6798 41.8863 45.7419 41.9212C45.8175 41.9572 45.88 42.015 45.9208 42.0867C45.9617 42.1583 45.979 42.2405 45.9704 42.322C45.9704 42.8351 45.9704 43.3482 45.9704 43.8612C45.9704 43.9434 45.9704 44.0276 45.9807 44.1278C46.6942 44.0213 47.3926 43.8344 48.0618 43.5706C48.0288 43.4744 48 43.3923 47.9691 43.3121C47.8251 42.9533 47.6789 42.5966 47.541 42.2359C47.5026 42.1484 47.483 42.0543 47.4834 41.9593C47.4855 41.901 47.5014 41.844 47.5297 41.7927C47.5581 41.7413 47.5982 41.697 47.6469 41.6631C47.6956 41.6292 47.7517 41.6067 47.8108 41.5972C47.8698 41.5878 47.9304 41.5916 47.9877 41.6085C48.0589 41.6292 48.1236 41.667 48.1758 41.7185C48.228 41.77 48.266 41.8335 48.2861 41.9032C48.4302 42.2699 48.5784 42.6347 48.7267 42.9994C48.7596 43.0796 48.7966 43.1578 48.8358 43.252C49.3297 43.0361 49.8108 42.7932 50.2767 42.5244C50.0852 42.1757 49.9082 41.851 49.7332 41.5224C49.6794 41.4328 49.6319 41.3397 49.5912 41.2438C49.5641 41.1549 49.5695 41.0596 49.6064 40.9742C49.6433 40.8887 49.7096 40.8183 49.7938 40.7751C49.878 40.7318 49.9751 40.7184 50.0684 40.7369C50.1617 40.7555 50.2455 40.805 50.3055 40.877C50.3428 40.9299 50.3758 40.9855 50.4043 41.0434L50.8901 41.9332C50.9245 41.992 50.9623 42.0489 51.0033 42.1036L52.2384 41.2879C52.1931 41.2278 52.1704 41.1937 52.1437 41.1616C51.9378 40.9111 51.732 40.6626 51.5262 40.406C51.4873 40.3652 51.4577 40.317 51.439 40.2645C51.4204 40.2119 51.4132 40.1561 51.4179 40.1007C51.4226 40.0453 51.4391 39.9914 51.4663 39.9425C51.4935 39.8937 51.5309 39.8508 51.5761 39.8168C51.6212 39.7827 51.6732 39.7582 51.7286 39.7447C51.784 39.7313 51.8417 39.7292 51.898 39.7386C51.9543 39.7481 52.0079 39.7688 52.0555 39.7995C52.1032 39.8302 52.1437 39.8702 52.1746 39.917C52.2693 40.0273 52.3598 40.1435 52.4504 40.2557L52.8971 40.8029C53.2306 40.5624 53.5352 40.3239 53.8213 40.0794C53.8091 40.0541 53.7947 40.03 53.7781 40.0072L53.3767 39.5503C53.2861 39.446 53.1873 39.3498 53.107 39.2376C53.0543 39.1563 53.0334 39.0593 53.048 38.9642C53.0626 38.8692 53.1119 38.7824 53.1867 38.7197C53.2616 38.657 53.3571 38.6226 53.4558 38.6228C53.5545 38.6229 53.6499 38.6576 53.7246 38.7205C53.798 38.7875 53.8668 38.8591 53.9304 38.935L54.4594 39.5523ZM46.7958 23.2484C46.8102 23.1542 46.8246 23.084 46.8308 23.0119C46.9304 22.1596 47.3426 21.3711 47.9918 20.7912C48.5479 20.2755 49.2083 19.8783 49.9309 19.6248C51.8946 18.9045 54.0438 18.816 56.063 19.3723C57.0824 19.6189 58.0208 20.1133 58.7904 20.8093C59.3828 21.3386 59.7932 22.0328 59.9658 22.7974C59.9967 22.9457 60.0214 23.094 60.0543 23.2624H60.643C60.7809 21.2001 60.8283 19.1659 60.7809 17.1296H30.3159C30.2809 19.1799 30.3159 21.2141 30.4641 23.2524H31.026C31.0399 23.2379 31.0517 23.2218 31.061 23.2043C31.0729 23.1662 31.0818 23.1274 31.0878 23.088C31.2038 22.2382 31.6158 21.453 32.2549 20.8634C32.8264 20.316 33.5114 19.8937 34.264 19.6248C36.2822 18.8845 38.4951 18.814 40.5587 19.4244C41.4601 19.6602 42.2939 20.0942 42.9959 20.693C43.6079 21.2021 44.034 21.8905 44.2104 22.6551C44.2536 22.8555 44.2763 23.056 44.3092 23.2564L46.7958 23.2484ZM37.8148 19.8072C36.9324 19.7967 36.0531 19.9115 35.2047 20.1479C34.3338 20.3723 33.532 20.7994 32.8684 21.3925C32.5288 21.6984 32.2632 22.0739 32.0909 22.4919C31.9186 22.9099 31.8439 23.3599 31.8721 23.8095C31.9145 25.0406 32.4285 26.2116 33.313 27.0924C34.2249 28.0303 35.3714 28.5574 36.6436 28.856C37.7101 29.1011 38.8316 28.9645 39.8033 28.4712C40.7248 28.0192 41.5389 27.3843 42.1931 26.6073C42.8305 25.8859 43.257 25.011 43.4282 24.0741C43.5428 23.5782 43.5187 23.0615 43.3583 22.5779C43.1979 22.0942 42.9071 21.6613 42.5163 21.3244C42.0966 20.951 41.6131 20.6519 41.0877 20.4405C40.0504 20.0212 38.938 19.806 37.8148 19.8072ZM53.5084 19.8072C52.616 19.7963 51.7266 19.9104 50.8674 20.1459C50.0283 20.3586 49.2526 20.761 48.6031 21.3203C48.2739 21.6014 48.0152 21.9522 47.8471 22.3459C47.679 22.7396 47.606 23.1656 47.6336 23.5911C47.6707 24.3142 47.8823 25.0187 48.2512 25.6473C49.0474 27.0591 50.3383 28.1452 51.8884 28.7077C52.4556 28.9325 53.069 29.0245 53.6793 28.9763C54.5165 28.8996 55.3318 28.6719 56.0836 28.3049C57.8744 27.413 58.9963 26.0422 59.2186 24.054C59.282 23.6034 59.2409 23.1447 59.0984 22.7115C58.956 22.2784 58.7157 21.8818 58.3952 21.5508C57.9524 21.0964 57.4204 20.7331 56.8308 20.4826C55.7862 20.0384 54.6586 19.8091 53.5187 19.8092L53.5084 19.8072ZM60.1367 8.95062H30.9705C30.919 9.35145 30.8675 9.73024 30.8161 10.1251H60.2931C60.2396 9.72823 60.1902 9.34744 60.1367 8.95262V8.95062ZM29.1014 20.6429C28.6838 20.6451 28.2704 20.724 27.8828 20.8754C27.7175 20.9386 27.5713 21.0413 27.4576 21.1741C27.3439 21.3068 27.2664 21.4654 27.2323 21.635C27.0884 22.2952 26.9969 22.9653 26.9585 23.6392C26.8816 24.8707 26.9305 26.1067 27.1047 27.3288C27.1946 28.0525 27.3758 28.7627 27.644 29.4432C27.8124 29.884 28.1048 30.2698 28.4877 30.5565C28.8707 30.8433 29.3287 31.0193 29.8095 31.0646L30.2212 31.1127C29.5674 27.6567 29.1929 24.156 29.1014 20.6429ZM62.0098 20.6429C61.9157 24.1592 61.5413 27.663 60.89 31.1227C61.063 31.1007 61.207 31.0887 61.3491 31.0666C61.8005 31.0152 62.2294 30.8469 62.5914 30.5794C62.9534 30.3119 63.2352 29.9549 63.4075 29.5455C63.5955 29.1184 63.7383 28.6739 63.8336 28.2187C64.0756 27.0404 64.1908 25.8408 64.1774 24.6392C64.1817 23.6466 64.0824 22.6562 63.881 21.6831C63.8482 21.4968 63.7652 21.3224 63.6404 21.1777C63.5156 21.0329 63.3535 20.9231 63.1708 20.8594C62.7982 20.7272 62.4062 20.6541 62.0098 20.6429Z" fill="#EFEFEF"/>
<path d="M77.3189 50C77.0451 49.9519 76.7693 49.9158 76.4955 49.8537C74.3588 49.3687 72.9961 48.098 72.4589 46.0217C72.3713 45.6476 72.3278 45.265 72.3292 44.8813C72.3148 43.6788 72.3292 42.4623 72.3292 41.2518C72.3294 40.8112 72.3988 40.3732 72.535 39.9531C72.5685 39.8473 72.5756 39.7353 72.5556 39.6264C72.0561 36.9809 71.5511 34.3374 71.0406 31.6959C70.7867 30.3732 70.5315 29.0517 70.2749 27.7317C70.1341 27.023 70.2805 26.2888 70.6834 25.6829C71.0862 25.0771 71.7143 24.6465 72.436 24.4814C73.1577 24.3164 73.917 24.4297 74.5548 24.7976C75.1926 25.1655 75.6594 25.7595 75.8574 26.455C75.9788 26.91 76.0447 27.3809 76.1312 27.8459C76.455 29.5829 76.7768 31.3151 77.0966 33.0427L77.2695 33.9646C77.2794 34.0204 77.3084 34.0713 77.3518 34.1089L77.5186 32.9305C77.6736 31.8282 77.8287 30.7259 77.9838 29.6236C78.121 28.6255 78.2582 27.6234 78.3955 26.6174C78.4407 26.2987 78.4819 25.982 78.5354 25.6654C78.6469 25.0146 78.9915 24.4234 79.5081 23.9964C80.0247 23.5695 80.6799 23.3345 81.3575 23.333C82.0351 23.3316 82.6913 23.5638 83.2098 23.9886C83.7283 24.4133 84.0756 25.0031 84.19 25.6533C84.2535 26.0337 84.2458 26.4221 84.1674 26.7997C83.7968 28.864 83.4284 30.9297 83.062 32.9966C83.0578 33.0513 83.0578 33.1063 83.062 33.161C83.4953 32.9929 83.9637 32.928 84.428 32.9717C84.8924 33.0155 85.3392 33.1665 85.7315 33.4124C86.1238 33.6582 86.45 33.9917 86.6832 34.3852C86.9163 34.7786 87.0495 35.2205 87.0718 35.6742C87.4583 35.5333 87.8699 35.4692 88.2822 35.4858C89.0052 35.5167 89.6891 35.8144 90.1949 36.3184C90.7007 36.8224 90.9905 37.4949 91.0055 38.1994C91.005 38.5673 90.9467 38.933 90.8326 39.2837C90.458 40.404 90.0936 41.5244 89.7231 42.6447C89.6703 42.8123 89.6014 42.9747 89.5173 43.1297C89.4474 43.2564 89.4133 43.3989 89.4185 43.5426C89.4185 43.9995 89.4185 44.4565 89.4185 44.9134C89.4189 46.115 88.9817 47.2779 88.1846 48.1953C87.3874 49.1127 86.282 49.7251 85.0648 49.9238L84.5338 50.012H83.8421C83.8143 49.9969 83.7845 49.9854 83.7536 49.9779C83.2616 49.8958 82.7676 49.8276 82.2756 49.7354C81.6245 49.6016 80.9546 49.5785 80.2954 49.6673L78.4716 49.9399L77.9673 50.012L77.3189 50ZM79.0439 43.4604C78.9801 43.5185 78.9245 43.5666 78.873 43.6167L78.1917 44.2781C78.1161 44.3608 78.0178 44.4208 77.9084 44.4509C77.799 44.4811 77.683 44.4803 77.5741 44.4484C77.4698 44.4214 77.3745 44.3682 77.2979 44.2941C77.2212 44.22 77.1659 44.1277 77.1374 44.0263C77.1088 43.9249 77.1081 43.818 77.1353 43.7162C77.1624 43.6145 77.2165 43.5214 77.2921 43.4464C77.5165 43.2119 77.7573 42.9934 77.9879 42.7649C78.3204 42.424 78.7227 42.1547 79.1687 41.9745C79.6148 41.7943 80.0946 41.7072 80.5774 41.7188C80.9397 41.7188 81.302 41.7188 81.6643 41.7188C81.8916 41.7308 82.119 41.6969 82.3321 41.6191C82.5453 41.5413 82.7396 41.4213 82.9027 41.2667C83.0658 41.1121 83.1942 40.9263 83.2799 40.7209C83.3655 40.5155 83.4064 40.2951 83.4002 40.0736C83.3939 39.852 83.3405 39.6341 83.2434 39.4337C83.1462 39.2332 83.0075 39.0546 82.8358 38.909C82.6642 38.7634 82.4634 38.654 82.2462 38.5878C82.029 38.5215 81.8 38.4998 81.5737 38.5241C79.8309 38.5241 78.0867 38.5241 76.3411 38.5241C76.0194 38.5224 75.6998 38.5746 75.3963 38.6784C74.8597 38.8597 74.3943 39.199 74.0645 39.6493C73.7348 40.0996 73.5571 40.6386 73.556 41.1917C73.5457 42.4403 73.556 43.6909 73.556 44.9395C73.5577 45.116 73.5729 45.2922 73.6013 45.4666C73.8689 47.2563 75.3736 48.7935 77.7697 48.7734C78.1889 48.7512 78.6062 48.703 79.0192 48.6291C79.54 48.559 80.0587 48.4688 80.5815 48.4147C81.3703 48.3659 82.1621 48.4376 82.9282 48.6271C83.5335 48.7745 84.1614 48.8125 84.7808 48.7394C85.8111 48.5793 86.7372 48.0359 87.364 47.2238C87.9907 46.4117 88.269 45.3944 88.1402 44.3863L87.8623 44.4725C87.4831 44.5965 87.0814 44.6419 86.6831 44.6056C86.2848 44.5694 85.8987 44.4524 85.5497 44.2621C85.2007 44.0718 84.8965 43.8124 84.6566 43.5007C84.4167 43.189 84.2466 42.8319 84.1571 42.4523C84.1282 42.328 84.12 42.1978 84.0871 42.0755C84.069 42.0181 84.0312 41.9686 83.98 41.9352C83.9641 41.9256 83.9463 41.9193 83.9278 41.9167C83.9092 41.914 83.8903 41.9151 83.8722 41.9198C83.8541 41.9244 83.8372 41.9327 83.8224 41.9439C83.8077 41.9552 83.7955 41.9693 83.7865 41.9853C83.7662 42.0107 83.7442 42.0348 83.7207 42.0575C83.2774 42.5233 82.6768 42.8185 82.0286 42.8892C81.6457 42.9273 81.2567 42.9132 80.8697 42.9233H80.5651L80.6844 43.0696C80.8059 43.2219 80.9376 43.3662 81.0467 43.5265C81.1239 43.6506 81.1524 43.7977 81.1269 43.9407C81.1015 44.0836 81.0238 44.2128 80.9082 44.3044C80.7926 44.3959 80.6469 44.4437 80.4979 44.4389C80.349 44.434 80.2069 44.3769 80.0978 44.2781C80.0428 44.2293 79.995 44.1733 79.9558 44.1117C79.7375 43.7992 79.4156 43.5692 79.0439 43.4604ZM76.6334 37.3236C76.619 37.2234 76.6149 37.1693 76.6046 37.1232C76.4502 36.3055 76.2938 35.4878 76.1414 34.6681C75.6598 32.0841 75.1795 29.5014 74.7005 26.92C74.6397 26.5691 74.4571 26.2492 74.1833 26.0136C73.9094 25.778 73.5609 25.641 73.1958 25.6253C72.8229 25.6012 72.4529 25.7022 72.1472 25.9116C71.8416 26.1209 71.6188 26.4259 71.5161 26.7757C71.443 27.064 71.443 27.3652 71.5161 27.6535C71.8578 29.4158 72.1975 31.1775 72.535 32.9385C72.8685 34.6754 73.202 36.4124 73.5354 38.1493C73.5478 38.2155 73.5704 38.2776 73.5972 38.3678C74.0059 38.0049 74.4851 37.7255 75.0066 37.5462C75.5282 37.3668 76.0813 37.2911 76.6334 37.3236ZM80.6309 37.3116C80.6639 37.2214 80.6927 37.1392 80.7215 37.0571C80.95 36.3636 81.1805 35.6722 81.4049 34.9767C81.5021 34.729 81.5711 34.4716 81.6108 34.2091C81.654 33.7241 81.7693 33.2451 81.8536 32.7641C82.2283 30.6598 82.6009 28.5547 82.9714 26.449C83.0095 26.2449 83.0095 26.0358 82.9714 25.8317C82.8939 25.4636 82.6851 25.1341 82.3818 24.9018C82.0785 24.6694 81.7005 24.5491 81.3148 24.5623C80.9292 24.5756 80.5608 24.7214 80.275 24.9739C79.9893 25.2265 79.8047 25.5695 79.754 25.9419C79.5955 27.0102 79.4514 28.0804 79.3012 29.1486C79.1296 30.3712 78.9588 31.5924 78.7886 32.8122C78.5992 34.1484 78.4092 35.4878 78.2184 36.8306C78.1958 36.9849 78.1814 37.1412 78.1608 37.3096L80.6309 37.3116ZM89.7828 38.3257C89.7751 38.1995 89.7607 38.0737 89.7396 37.9489C89.6671 37.6134 89.486 37.3093 89.223 37.0814C88.9599 36.8534 88.6288 36.7135 88.2781 36.6823C87.9139 36.6472 87.5484 36.7342 87.2419 36.9288C86.9353 37.1234 86.7062 37.414 86.5922 37.7525C86.1805 38.955 85.7688 40.1695 85.3983 41.3861C85.3272 41.6194 85.3125 41.8655 85.3552 42.1053C85.3979 42.345 85.497 42.5719 85.6446 42.7683C85.7923 42.9646 85.9845 43.1251 86.2064 43.2371C86.4283 43.3492 86.6737 43.4098 86.9236 43.4143C87.281 43.4313 87.6338 43.33 87.9246 43.1269C88.2153 42.9239 88.427 42.631 88.5251 42.296C88.9368 41.1315 89.3052 39.9531 89.6861 38.7786C89.7269 38.6295 89.7592 38.4783 89.7828 38.3257ZM84.5255 39.8148C84.5467 39.7825 84.566 39.7491 84.5832 39.7146C84.9722 38.5361 85.3654 37.3577 85.7421 36.1752C85.8 35.9752 85.814 35.7656 85.7832 35.56C85.7362 35.1976 85.5625 34.862 85.2914 34.6095C85.0202 34.3571 84.6682 34.2031 84.2942 34.1735C83.9203 34.1439 83.5473 34.2404 83.2379 34.4469C82.9284 34.6534 82.7013 34.9572 82.5947 35.3074C82.3888 35.9087 82.1995 36.5099 82.0019 37.1112C81.9792 37.1773 81.9648 37.2455 81.9422 37.3296C82.5891 37.4022 83.1937 37.6796 83.663 38.1193C84.1356 38.5758 84.439 39.1722 84.5255 39.8148Z" fill="#EFEFEF"/>
<path d="M4.36789 35.5078C4.49552 34.5438 4.64578 34.2552 5.49181 33.3774C5.39918 33.3373 5.31478 33.2952 5.22832 33.2591L0.535057 31.3031C0.457833 31.2743 0.382847 31.2402 0.310686 31.2009C0.219475 31.1474 0.144015 31.0719 0.0916311 30.9816C0.039247 30.8914 0.0117188 30.7895 0.0117188 30.6858C0.0117187 30.5821 0.039247 30.4802 0.0916311 30.39C0.144015 30.2997 0.219475 30.2242 0.310686 30.1707C0.377046 30.1354 0.445823 30.1046 0.516531 30.0785C2.14271 29.3998 3.77163 28.7164 5.40329 28.0283C5.53921 27.9744 5.68471 27.9471 5.83145 27.9481C6.30901 27.9481 6.78657 27.9481 7.27237 27.9481C7.33 27.9481 7.38558 27.9481 7.47821 27.9381C7.44734 27.7537 7.42058 27.5833 7.39176 27.413C7.33 27.0422 7.25178 26.6734 7.2065 26.3007C7.14029 25.5754 7.36775 24.8536 7.84034 24.2893C8.31294 23.725 8.99329 23.3627 9.73629 23.2799C10.4793 23.197 11.2262 23.4 11.8176 23.8457C12.409 24.2913 12.7982 24.9443 12.9022 25.6654C12.9969 26.3728 13.1081 27.0683 13.2007 27.7838C13.2007 27.8299 13.2233 27.876 13.2378 27.9341H15.2324C15.3024 27.5546 15.371 27.1778 15.4382 26.8037C15.4712 26.6314 15.4979 26.455 15.5473 26.2866C15.7321 25.6911 16.115 25.1722 16.6357 24.8116C17.1565 24.4509 17.7855 24.2691 18.424 24.2945C19.0625 24.32 19.6742 24.5514 20.1629 24.9523C20.6516 25.3531 20.9896 25.9008 21.1237 26.5091C21.1965 26.9129 21.1888 27.3266 21.101 27.7276C21.0887 27.7898 21.0784 27.8519 21.066 27.9281C21.1319 27.9281 21.1875 27.9481 21.2431 27.9501C21.3911 27.9611 21.5397 27.9611 21.6877 27.9501C22.157 27.888 22.4843 28.0924 22.7684 28.4351C23.3736 29.1606 23.7153 29.9663 23.6371 30.9143C23.5986 31.3304 23.4777 31.7354 23.2809 32.1068C23.0833 32.4765 22.8377 32.8201 22.5502 33.1289C22.4788 33.2119 22.3887 33.2778 22.287 33.3216C22.1853 33.3654 22.0746 33.3858 21.9635 33.3814C21.4119 33.3814 20.8602 33.3814 20.3168 33.3814H20.0327C19.9874 33.5818 19.9421 33.7943 19.9051 33.9967C19.5593 35.7991 19.2162 37.6029 18.8759 39.4079C18.8367 39.5791 18.8474 39.7575 18.9067 39.923C19.0386 40.3031 19.1026 40.7023 19.0961 41.1035C19.0961 42.33 19.0961 43.5546 19.0961 44.7811C19.0974 45.9462 18.6844 47.0757 17.9271 47.9778C17.1698 48.8799 16.1151 49.4988 14.9422 49.7294C14.1582 49.883 13.3515 49.8904 12.5646 49.7515L11.2019 49.537C10.426 49.4321 9.63672 49.4716 8.8759 49.6533C8.28333 49.7911 7.67576 49.8584 7.06652 49.8537C5.84355 49.8173 4.67245 49.3643 3.75728 48.5736C2.8421 47.7829 2.24086 46.7046 2.05831 45.5267C2.02649 45.2806 2.00794 45.0331 2.00273 44.7851C2.00273 44.5045 2.00273 44.224 2.00273 43.9434C2.03586 43.5139 1.96023 43.0831 1.78248 42.6888C1.57588 42.2002 1.40326 41.6987 1.26581 41.1876C1.01879 40.4341 0.759428 39.6825 0.524765 38.9229C0.381246 38.4389 0.374202 37.9263 0.504373 37.4387C0.634545 36.9512 0.89713 36.5067 1.26456 36.1521C1.63199 35.7974 2.09072 35.5456 2.59258 35.4231C3.09444 35.3005 3.62092 35.3118 4.11676 35.4557L4.32261 35.5178C4.32261 35.5178 4.34525 35.5138 4.36789 35.5078ZM3.24192 44.25C3.24192 44.4765 3.24192 44.6749 3.24192 44.8753C3.25091 45.6262 3.49746 46.3561 3.94797 46.9657C4.31939 47.5041 4.82653 47.9407 5.42085 48.2337C6.01517 48.5267 6.67677 48.6663 7.34235 48.6391C7.73672 48.6192 8.12858 48.5662 8.51361 48.4808C9.28142 48.3325 10.0513 48.1942 10.8376 48.2804C11.4407 48.3445 12.0418 48.4447 12.6429 48.5349C13.2811 48.6555 13.9362 48.665 14.5778 48.563C15.5035 48.4056 16.3416 47.9326 16.942 47.2287C17.5423 46.5248 17.8659 45.6359 17.8549 44.721C17.8549 43.5292 17.8549 42.336 17.8549 41.1415C17.8566 40.9397 17.8373 40.7383 17.7972 40.5403C17.6786 39.9345 17.3462 39.3881 16.8575 38.9958C16.3688 38.6035 15.7546 38.3898 15.1212 38.3918C13.3366 38.3738 11.5498 38.3918 9.76927 38.3918C9.3623 38.4263 8.98301 38.6067 8.70506 38.8982C8.42711 39.1897 8.27035 39.5713 8.26522 39.969C8.26009 40.3667 8.40695 40.752 8.67729 41.0502C8.94764 41.3484 9.32215 41.5381 9.7281 41.5825C10.1398 41.5825 10.5659 41.5825 10.9858 41.5825C11.7388 41.5878 12.4665 41.8478 13.0443 42.318C13.4225 42.6395 13.7832 42.98 14.125 43.3381C14.2258 43.4462 14.2816 43.5869 14.2816 43.7329C14.2816 43.8789 14.2258 44.0197 14.125 44.1278C14.0222 44.238 13.8812 44.3072 13.7291 44.322C13.577 44.3368 13.4247 44.2961 13.3016 44.2079C13.229 44.1523 13.1602 44.092 13.0957 44.0275C12.8528 43.7911 12.6079 43.5546 12.365 43.3161C12.0127 43.4193 11.7038 43.6301 11.484 43.9173C11.4313 43.9988 11.3684 44.0736 11.2966 44.1398C11.2044 44.227 11.0861 44.2833 10.9587 44.3006C10.8314 44.3179 10.7018 44.2952 10.5885 44.236C10.4757 44.1826 10.3835 44.0954 10.3253 43.9871C10.2671 43.8789 10.2461 43.7554 10.2654 43.6347C10.2936 43.5105 10.3476 43.3933 10.4239 43.29C10.5412 43.1217 10.6791 42.9653 10.8355 42.7709C10.4794 42.7709 10.1707 42.7709 9.85984 42.7709C9.44658 42.789 9.03422 42.7194 8.65139 42.5667C8.26856 42.4141 7.92443 42.1822 7.64289 41.8871C7.62626 41.8625 7.60427 41.8417 7.57847 41.8263C7.55267 41.811 7.52371 41.8013 7.49364 41.798C7.46357 41.7948 7.43313 41.798 7.40449 41.8075C7.37585 41.817 7.34971 41.8326 7.32794 41.853C7.29383 42.3069 7.14836 42.7461 6.90376 43.1338C6.65916 43.5216 6.32256 43.8465 5.92224 44.0814C5.52192 44.3162 5.06957 44.4541 4.60317 44.4834C4.13677 44.5128 3.66996 44.4327 3.24192 44.25ZM17.8178 38.2215C17.8351 38.1836 17.8502 38.1447 17.8631 38.1052C17.9317 37.7445 18.0003 37.3824 18.0689 37.019C18.4203 35.1791 18.7743 33.3386 19.1311 31.4975C19.3966 30.1146 19.6704 28.7317 19.9277 27.3448C19.9894 27.0721 19.9716 26.7879 19.8763 26.5245C19.7811 26.261 19.6121 26.0287 19.3884 25.8537C19.1665 25.6738 18.8999 25.5539 18.6154 25.5059C18.3309 25.458 18.0384 25.4837 17.7673 25.5806C17.4963 25.6774 17.2561 25.842 17.0709 26.0577C16.8858 26.2734 16.7621 26.5328 16.7124 26.8097C16.464 28.1726 16.2122 29.5347 15.957 30.8962C15.6359 32.6198 15.3134 34.3441 14.9895 36.069C14.9236 36.4277 14.8578 36.7885 14.7837 37.1853C15.3349 37.151 15.8877 37.2251 16.4089 37.4031C16.9302 37.5811 17.4093 37.8594 17.8178 38.2215ZM15.0142 29.1626H6.64042C6.94507 30.1767 7.06652 31.1808 6.7557 32.2009H14.4502C14.6375 31.1868 14.8207 30.1888 15.0142 29.1626ZM6.0867 41.6065C6.06106 41.4498 6.0267 41.2946 5.98378 41.1415C5.83763 40.6686 5.67707 40.1956 5.52268 39.7246C5.29214 39.0231 5.06982 38.3217 4.82899 37.6222C4.69851 37.2196 4.40909 36.8839 4.02441 36.689C3.63973 36.4941 3.19128 36.456 2.77774 36.5831C2.36419 36.7101 2.01942 36.9919 1.81926 37.3664C1.6191 37.741 1.57995 38.1776 1.71043 38.5802C2.0933 39.7827 2.49264 40.9852 2.90022 42.1877C2.99896 42.4952 3.19671 42.7637 3.46423 42.9533C3.70561 43.1386 3.99752 43.2508 4.30377 43.2761C4.61003 43.3014 4.91718 43.2386 5.18716 43.0956C5.76352 42.809 6.05994 42.322 6.0867 41.6065ZM9.48932 37.1813C9.23407 36.4297 9.01793 35.6822 8.72769 34.9607C8.62323 34.6955 8.44037 34.4663 8.20223 34.3023C7.96409 34.1382 7.68134 34.0465 7.3897 34.0388C7.12194 34.0141 6.85207 34.0544 6.60427 34.1562C6.35646 34.258 6.13845 34.418 5.96976 34.622C5.80107 34.8259 5.68698 35.0674 5.63769 35.3249C5.58841 35.5823 5.60547 35.8476 5.68736 36.0971C6.04965 37.2515 6.44075 38.3998 6.81951 39.5502C6.83619 39.5927 6.85686 39.6337 6.88126 39.6725C7.16327 38.2595 8.01341 37.4358 9.48932 37.1813ZM13.2666 37.1713C13.0875 35.9026 12.9125 34.6701 12.7376 33.4335H9.71163C9.73427 33.5738 9.75486 33.6981 9.77133 33.8343C9.81775 34.2019 9.90259 34.5638 10.0245 34.9146C10.2695 35.594 10.4815 36.2834 10.7079 36.9669C10.7326 37.041 10.7614 37.1132 10.7882 37.1813L13.2666 37.1713ZM11.9492 27.9361C11.9492 27.8519 11.9492 27.7958 11.9492 27.7357C11.8545 27.0703 11.768 26.4029 11.661 25.7315C11.593 25.3156 11.3581 24.943 11.008 24.6956C10.6579 24.4483 10.2212 24.3466 9.79397 24.4127C9.36678 24.4789 8.98408 24.7076 8.73007 25.0485C8.47606 25.3894 8.37154 25.8146 8.43951 26.2305C8.49509 26.6013 8.56919 26.9721 8.633 27.3428C8.668 27.5433 8.70299 27.7337 8.74004 27.9441L11.9492 27.9361ZM20.2653 32.1448C20.2856 32.1567 20.307 32.1668 20.3291 32.1749H21.2184C21.8565 32.1749 21.8544 32.1749 22.1611 31.6197C22.6181 30.792 22.4679 29.9743 21.8833 29.2729C21.8406 29.2162 21.7785 29.1764 21.7083 29.1606C21.4242 29.1486 21.1381 29.1606 20.8396 29.1606C20.6441 30.1647 20.4547 31.1528 20.2653 32.1368V32.1448ZM5.38683 29.341L2.21887 30.6738C2.63056 30.9002 5.30655 31.9945 5.51239 32.0186C5.85409 31.1227 5.70383 30.2489 5.38683 29.341ZM14.0714 33.9927H14.1105L14.2155 33.4215L13.9891 33.4415L14.0714 33.9927Z" fill="#EFEFEF"/>
<path d="M45.543 33.6299H54.524C54.6047 33.6316 54.6839 33.6519 54.7549 33.6893C54.826 33.7267 54.8868 33.78 54.9325 33.8448C54.9782 33.9097 55.0073 33.9841 55.0175 34.0621C55.0278 34.1401 55.0188 34.2193 54.9913 34.2933C54.9359 34.4529 54.8671 34.6077 54.7854 34.7562C53.9144 36.4172 52.5249 37.7665 50.8167 38.6102C49.6809 39.1788 48.4472 39.5388 47.1774 39.6725C45.6233 39.8663 44.0459 39.7814 42.5232 39.4219C40.2449 38.9119 38.244 37.5926 36.9119 35.7222C36.6174 35.317 36.3683 34.8823 36.1688 34.4255C36.138 34.3612 36.1139 34.2941 36.0968 34.2251C36.0822 34.1583 36.0823 34.0892 36.097 34.0224C36.1117 33.9556 36.1407 33.8926 36.182 33.8374C36.2234 33.7822 36.2762 33.7361 36.337 33.7021C36.3979 33.668 36.4654 33.6469 36.5352 33.6399C36.6257 33.6339 36.7165 33.6339 36.8069 33.6399H45.543V33.6299ZM46.0823 38.7545C47.2171 38.7229 48.3389 38.5096 49.4026 38.1232C49.4479 37.5641 49.4293 34.8324 49.3799 34.652C49.0732 34.6099 46.2676 34.6219 46.0864 34.668L46.0823 38.7545ZM45.014 38.7345V34.654C44.6826 34.6079 41.8851 34.6199 41.6978 34.67V38.1052C42.4306 38.4579 44.2565 38.7806 45.014 38.7345ZM53.6595 34.662C53.3527 34.6099 50.6397 34.6199 50.4627 34.662C50.4195 35.0488 50.438 37.4478 50.4915 37.6342C51.8074 36.9467 52.9056 35.9225 53.6677 34.672L53.6595 34.662ZM37.4636 34.646C37.8958 35.6481 39.8575 37.4518 40.6459 37.6082V34.646H37.4636Z" fill="#EFEFEF"/>
<path d="M42.6776 30.9886C42.7683 30.9774 42.8603 30.9952 42.9397 31.0393C43.0192 31.0834 43.0818 31.1514 43.1181 31.2331C43.15 31.3062 43.1579 31.387 43.1406 31.4646C43.1232 31.5422 43.0816 31.6126 43.0213 31.666C42.9713 31.7078 42.9168 31.7441 42.8587 31.7743C42.2823 32.0989 41.708 32.4236 41.1296 32.7443C41.0527 32.7893 40.9685 32.8212 40.8805 32.8385C40.7945 32.8525 40.7062 32.838 40.6297 32.7973C40.5531 32.7566 40.4929 32.6921 40.4586 32.614C40.4218 32.5324 40.414 32.4413 40.4363 32.3549C40.4587 32.2685 40.51 32.1919 40.5821 32.137C40.6212 32.1086 40.6625 32.0832 40.7056 32.0609L42.4573 31.0768C42.5288 31.0431 42.6024 31.0137 42.6776 30.9886Z" fill="#EFEFEF"/>
<path d="M38.557 31.4233C38.547 31.4984 38.5168 31.5697 38.4694 31.6299C38.4221 31.69 38.3593 31.737 38.2873 31.766L37.0914 32.4374C36.8691 32.5616 36.6509 32.6899 36.4265 32.8041C36.358 32.8428 36.2791 32.8604 36.2001 32.8547C36.1212 32.849 36.0458 32.8202 35.9839 32.7721C35.9182 32.7298 35.8685 32.6677 35.8425 32.5953C35.8165 32.5229 35.8155 32.4442 35.8398 32.3712C35.8686 32.272 35.931 32.1851 36.0169 32.1247C36.6529 31.7559 37.291 31.3932 37.9374 31.0445C38.0024 31.0071 38.0768 30.9878 38.1524 30.9888C38.2279 30.9898 38.3017 31.011 38.3657 31.0501C38.4297 31.0893 38.4814 31.1448 38.5151 31.2106C38.5488 31.2764 38.5633 31.35 38.557 31.4233Z" fill="#EFEFEF"/>
<path d="M55.2816 32.4517C55.2819 32.5162 55.2662 32.5799 55.2358 32.6372C55.2055 32.6946 55.1613 32.7439 55.1072 32.7811C55.053 32.8183 54.9904 32.8422 54.9247 32.8508C54.8591 32.8594 54.7922 32.8524 54.7299 32.8305C54.6767 32.81 54.6257 32.7844 54.5776 32.7543C53.9992 32.4297 53.429 32.097 52.8444 31.7863C52.5953 31.652 52.478 31.4176 52.6035 31.1851C52.7291 30.9526 53.0337 30.9406 53.2684 31.0809C53.8427 31.4216 54.4314 31.7402 55.016 32.0669C55.0922 32.1013 55.1572 32.1553 55.2041 32.2232C55.2509 32.291 55.2777 32.3701 55.2816 32.4517Z" fill="#EFEFEF"/>
<path d="M45.3766 31.3794C45.3799 31.4514 45.3623 31.5228 45.3259 31.5855C45.2895 31.6482 45.2358 31.6997 45.1708 31.7342L44.7015 32.0007C44.2527 32.2513 43.806 32.5058 43.3552 32.7543C43.2713 32.8027 43.1782 32.834 43.0815 32.8465C42.9989 32.8548 42.9157 32.8366 42.8448 32.7946C42.7738 32.7526 42.7188 32.6892 42.6883 32.614C42.6546 32.5359 42.6473 32.4494 42.6672 32.3669C42.6872 32.2845 42.7335 32.2103 42.7995 32.1551C42.8309 32.1294 42.8647 32.1066 42.9003 32.0869C43.5055 31.7462 44.1107 31.4068 44.7159 31.0688C44.7865 31.0281 44.865 31.0022 44.9464 30.9926C45.0015 30.9872 45.0571 30.9933 45.1096 31.0104C45.1621 31.0275 45.2103 31.0552 45.251 31.0918C45.2916 31.1283 45.3239 31.1729 45.3455 31.2225C45.3672 31.2721 45.3778 31.3256 45.3766 31.3794Z" fill="#EFEFEF"/>
<path d="M50.7776 30.9865C50.8435 31.0013 50.9077 31.0228 50.969 31.0506C51.5865 31.4014 52.2247 31.7521 52.8484 32.1088C52.9261 32.1651 52.981 32.2463 53.0033 32.338C53.0256 32.4298 53.014 32.5263 52.9705 32.6105C52.927 32.6948 52.8544 32.7614 52.7654 32.7987C52.6764 32.836 52.5768 32.8415 52.484 32.8143C51.815 32.4555 51.1543 32.0788 50.4976 31.698C50.4259 31.6493 50.3733 31.5784 50.3483 31.4969C50.3232 31.4154 50.3272 31.328 50.3597 31.249C50.3904 31.1669 50.4479 31.0968 50.5233 31.0494C50.5988 31.002 50.688 30.9799 50.7776 30.9865Z" fill="#EFEFEF"/>
<path d="M38.5141 32.8503C38.4257 32.8615 38.336 32.8445 38.2585 32.8019C38.1809 32.7592 38.1196 32.6932 38.0838 32.6138C38.0501 32.5441 38.0391 32.466 38.0523 32.39C38.0656 32.3141 38.1024 32.2439 38.1579 32.1889C38.2114 32.1395 38.2716 32.0977 38.337 32.0647C38.912 31.7387 39.4884 31.4146 40.0661 31.0926C40.1353 31.0498 40.211 31.018 40.2905 30.9984C40.3794 30.978 40.473 30.9886 40.5546 31.0286C40.6363 31.0685 40.7009 31.1352 40.7372 31.2169C40.7776 31.2966 40.7883 31.3875 40.7677 31.4741C40.7471 31.5607 40.6963 31.6376 40.624 31.6919C40.5781 31.7261 40.5292 31.7563 40.4778 31.7821C39.9028 32.1068 39.3265 32.4301 38.7487 32.7521C38.6729 32.7901 38.5945 32.8229 38.5141 32.8503Z" fill="#EFEFEF"/>
<path d="M46.1823 30.9884C46.2413 31.0003 46.2987 31.0192 46.3531 31.0445C46.9892 31.3992 47.6232 31.752 48.251 32.1167C48.3325 32.1697 48.3951 32.2461 48.4301 32.3352C48.4586 32.403 48.4653 32.4777 48.4491 32.5494C48.4329 32.621 48.3947 32.6861 48.3395 32.736C48.2842 32.7902 48.2141 32.8279 48.1375 32.8445C48.0609 32.8612 47.981 32.8563 47.9073 32.8302C47.8454 32.8088 47.7867 32.7798 47.7323 32.744L46.0258 31.784C45.9675 31.754 45.9123 31.7185 45.8612 31.6778C45.7986 31.6246 45.7549 31.5535 45.7364 31.4746C45.7179 31.3958 45.7256 31.3133 45.7582 31.2389C45.7913 31.1579 45.8506 31.0897 45.9272 31.0445C46.0037 30.9993 46.0932 30.9796 46.1823 30.9884Z" fill="#EFEFEF"/>
<path d="M48.4153 30.9887C48.4813 31.0051 48.5454 31.028 48.6067 31.0568C49.2243 31.4015 49.8418 31.7522 50.4593 32.101C50.5334 32.1382 50.5941 32.1965 50.6335 32.268C50.6728 32.3396 50.6889 32.4211 50.6796 32.5018C50.6724 32.5636 50.6505 32.623 50.6157 32.6752C50.5809 32.7274 50.534 32.7709 50.4789 32.8024C50.4238 32.8339 50.3619 32.8525 50.2981 32.8567C50.2343 32.8609 50.1704 32.8505 50.1115 32.8265C50.0586 32.8044 50.0077 32.7783 49.9591 32.7483L48.2733 31.7983C48.208 31.7643 48.146 31.7248 48.088 31.6801C48.0258 31.6266 47.9823 31.5556 47.9635 31.477C47.9447 31.3983 47.9515 31.3159 47.983 31.2412C48.0161 31.1584 48.0766 31.0887 48.1548 31.043C48.2331 30.9973 48.3247 30.9781 48.4153 30.9887Z" fill="#EFEFEF"/>
<path d="M35.8385 24.4229H34.4738C34.2515 24.4229 34.0291 24.4229 33.8089 24.4229C33.7247 24.4278 33.6404 24.4159 33.5612 24.3879C33.4819 24.3599 33.4094 24.3164 33.3481 24.26C33.2867 24.2037 33.2379 24.1358 33.2046 24.0604C33.1713 23.985 33.1541 23.9037 33.1543 23.8216C33.1541 23.7388 33.1714 23.6568 33.2052 23.5809C33.2391 23.5049 33.2886 23.4365 33.3509 23.3801C33.4131 23.3236 33.4866 23.2803 33.5669 23.2528C33.6471 23.2253 33.7323 23.2143 33.8171 23.2204H35.7912C36.8204 23.2204 37.8496 23.2204 38.8912 23.2204C39.7846 23.2204 40.6779 23.2204 41.5672 23.2204C41.6829 23.2152 41.7978 23.2427 41.8978 23.2996C41.9979 23.3565 42.0789 23.4403 42.1312 23.541C42.1867 23.6328 42.2143 23.7381 42.2107 23.8446C42.207 23.951 42.1723 24.0543 42.1106 24.1423C42.0524 24.2358 41.9692 24.312 41.8698 24.3629C41.7704 24.4137 41.6587 24.4372 41.5466 24.4309H39.5684C39.5451 24.6902 39.4671 24.9421 39.3392 25.1707C39.2114 25.3994 39.0364 25.5999 38.8253 25.7597C38.5054 26.0045 38.1083 26.134 37.7014 26.1264C37.2347 26.1296 36.785 25.9556 36.4478 25.6414C36.1555 25.3628 36.0485 25.1484 35.8385 24.4229Z" fill="#EFEFEF"/>
<path d="M51.5241 24.4226H51.2544C50.6863 24.4226 50.1181 24.4226 49.55 24.4226C49.3862 24.4317 49.2255 24.377 49.1031 24.2706C48.9807 24.1643 48.9068 24.0149 48.8975 23.8554C48.8882 23.696 48.9444 23.5395 49.0536 23.4203C49.1629 23.3012 49.3162 23.2292 49.48 23.2201C49.5459 23.2201 49.6118 23.2201 49.6859 23.2201C50.4001 23.2201 51.1144 23.2482 51.8287 23.2462C52.6253 23.2462 53.422 23.2181 54.2165 23.2141C55.2354 23.2141 56.2523 23.2141 57.2692 23.2141C57.3592 23.2107 57.4493 23.2194 57.5368 23.2402C57.6692 23.2829 57.7829 23.3681 57.8592 23.4818C57.9356 23.5956 57.9701 23.7311 57.9572 23.8664C57.9444 24.0017 57.8848 24.1287 57.7883 24.2268C57.6917 24.3249 57.5639 24.3883 57.4256 24.4066C57.3434 24.4116 57.2609 24.4116 57.1786 24.4066H55.2704C55.2446 24.6771 55.1598 24.9391 55.0218 25.1751C54.8837 25.4112 54.6955 25.6158 54.4697 25.7754C54.1395 26.007 53.7378 26.1216 53.3314 26.1001C52.3968 26.0801 51.7649 25.4949 51.5241 24.4226Z" fill="#EFEFEF"/>
</g>
<defs>
<clipPath id="clip0_1711_33626">
<rect width="91" height="50" fill="white"/>
</clipPath>
</defs>
</svg>
