<svg width="94" height="56" viewBox="0 0 94 56" fill="none" xmlns="http://www.w3.org/2000/svg">
<g clip-path="url(#clip0_1711_33652)">
<path d="M68.6752 0C68.7042 0.0140311 68.734 0.0263382 68.7645 0.0368583C68.9196 0.0593019 69.0601 0.141208 69.1568 0.265541C69.2536 0.389873 69.2991 0.547059 69.284 0.704403C69.284 0.982887 69.284 1.26137 69.284 1.53781C69.262 4.09481 68.8759 6.63536 68.1375 9.08147C67.7241 10.4795 67.0984 11.8044 66.2828 13.0089C66.0271 13.3775 65.7329 13.7174 65.4569 14.0696L65.3473 14.213L65.8627 14.2949C67.3358 14.4964 68.7675 14.9339 70.1038 15.591C70.4649 15.7753 70.8038 16.0006 71.1528 16.2054C71.6743 16.5166 71.7616 16.8852 71.3821 17.434C70.8434 18.2135 70.2131 18.9244 69.5051 19.5513C68.7795 20.1971 67.9756 20.7476 67.1127 21.1894C67.0498 21.2201 66.991 21.259 66.8976 21.3123L67.1736 21.4249C67.8711 21.6918 68.544 22.02 69.1845 22.4057C69.5883 22.635 69.9556 22.9243 70.2742 23.2637C70.4631 23.4869 70.6328 23.726 70.7815 23.9784C70.8543 24.0899 70.8872 24.2232 70.8746 24.3561C70.8621 24.4891 70.8049 24.6137 70.7125 24.7094C70.5273 24.9169 70.3235 25.1068 70.1038 25.2766C69.6103 25.636 69.0829 25.9454 68.5291 26.2001C68.4561 26.2349 68.3871 26.2738 68.3262 26.3086C68.3972 26.6506 68.4743 26.9762 68.5291 27.3058C68.7167 28.4449 68.7881 29.6004 68.7422 30.7541C68.7218 31.8489 68.6015 32.9395 68.383 34.012C68.2664 34.5896 68.0839 35.1517 67.8392 35.687C67.2669 36.8951 66.3112 37.5832 65.0186 37.8227L64.7386 37.878C64.7954 37.9743 64.838 38.0521 64.8847 38.1258C65.4948 39.0814 66.1035 40.037 66.711 40.9925C66.784 41.0993 66.8351 41.2197 66.8611 41.3468C66.8747 41.4341 66.8689 41.5233 66.8442 41.608C66.8195 41.6928 66.7765 41.771 66.7183 41.837C66.6601 41.903 66.5881 41.9551 66.5076 41.9897C66.427 42.0242 66.3398 42.0403 66.2524 42.0369C65.7978 42.0369 65.3433 42.0369 64.8887 42.0369H64.6107C64.5539 42.1618 64.5012 42.2785 64.4504 42.3972C64.2475 42.8703 64.0446 43.3453 63.8417 43.8204C63.7997 43.9412 63.7201 44.045 63.6147 44.1162C63.5094 44.1875 63.3839 44.2224 63.2573 44.2156C63.1427 44.2182 63.03 44.1863 62.9335 44.1239C62.8369 44.0615 62.7611 43.9715 62.7155 43.8654L62.1047 42.5918C62.0682 42.5181 62.0316 42.4464 61.985 42.3583C61.9403 42.4116 61.9038 42.4505 61.8713 42.4955C61.4472 43.073 61.0252 43.6545 60.599 44.232C60.5642 44.2695 60.5389 44.315 60.5255 44.3646C60.512 44.4142 60.5108 44.4664 60.5219 44.5166C60.5346 44.5729 60.5343 44.6315 60.5212 44.6877C60.5081 44.7439 60.4825 44.7965 60.4464 44.8412C60.4102 44.886 60.3644 44.9219 60.3125 44.9462C60.2605 44.9705 60.2038 44.9825 60.1465 44.9814C60.0794 44.9802 60.0129 44.9954 59.9529 45.0257C59.8928 45.056 59.8409 45.1005 59.8016 45.1555C59.2099 45.8075 58.5739 46.4172 57.8982 46.98C57.8515 47.0098 57.8133 47.0513 57.7874 47.1005C57.7614 47.1496 57.7485 47.2048 57.7501 47.2605C57.7527 47.3223 57.7407 47.3839 57.7149 47.4401C57.6891 47.4963 57.6503 47.5454 57.6018 47.5833C57.5533 47.6212 57.4964 47.6468 57.4361 47.658C57.3757 47.6692 57.3136 47.6656 57.2549 47.6475C57.2137 47.6337 57.1698 47.6298 57.1268 47.6362C57.0838 47.6426 57.0429 47.6591 57.0074 47.6844C56.0724 48.3958 55.0915 49.0436 54.0712 49.6235C54.0874 49.857 54.1016 50.0904 53.8337 50.2051C53.6166 50.2972 53.4604 50.1907 53.3062 50.0351L53.1032 50.1232C52.1337 50.5988 51.1062 50.943 50.0473 51.147C49.96 51.1634 49.8707 51.1757 49.7835 51.19C49.6552 51.199 49.5347 51.255 49.4446 51.3477C49.4107 51.3868 49.3689 51.4181 49.322 51.4396C49.2751 51.4611 49.2242 51.4722 49.1727 51.4722C49.1212 51.4722 49.0703 51.4611 49.0234 51.4396C48.9765 51.4181 48.9347 51.3868 48.9008 51.3477C48.8227 51.2664 48.7183 51.2163 48.6066 51.2064C47.4723 51.0211 46.3706 50.6714 45.3355 50.1682L45.0839 50.0515C44.9256 50.2112 44.7491 50.33 44.5238 50.2071C44.429 50.1571 44.3566 50.0726 44.3212 49.9707C44.2858 49.8688 44.29 49.7572 44.3331 49.6583C44.2803 49.6235 44.2397 49.5969 44.1971 49.5744C43.245 49.0282 42.3286 48.4209 41.4537 47.756C41.4068 47.7135 41.3501 47.6835 41.2889 47.6684C41.2276 47.6534 41.1636 47.654 41.1026 47.67C41.0471 47.6848 40.9889 47.6862 40.9328 47.6742C40.8766 47.6622 40.8241 47.637 40.7793 47.6008C40.7345 47.5646 40.6987 47.5182 40.6749 47.4655C40.6511 47.4128 40.6398 47.3552 40.642 47.2974C40.6442 47.2375 40.6309 47.1781 40.6035 47.125C40.5761 47.0719 40.5356 47.0269 40.4858 46.9943C39.8049 46.4242 39.1629 45.8085 38.5641 45.1514C38.5298 45.1022 38.4837 45.0625 38.4301 45.036C38.3766 45.0096 38.3173 44.9971 38.2577 44.9999C38.2004 45.0047 38.1428 44.9959 38.0895 44.9742C38.0362 44.9525 37.9886 44.9185 37.9507 44.8749C37.9128 44.8312 37.8856 44.7792 37.8713 44.7231C37.8569 44.6669 37.8558 44.6081 37.8681 44.5514C37.8778 44.4926 37.8736 44.4323 37.856 44.3754C37.8384 44.3185 37.8078 44.2666 37.7666 44.2238C37.3608 43.673 36.955 43.1201 36.5491 42.5672L36.4091 42.3747C36.3645 42.4587 36.3259 42.5201 36.2955 42.5795C36.0926 43.0054 35.8896 43.4313 35.6746 43.8572C35.6291 43.976 35.5481 44.0776 35.4429 44.148C35.3377 44.2183 35.2135 44.2539 35.0873 44.2499C34.9612 44.2458 34.8394 44.2023 34.7389 44.1254C34.6383 44.0484 34.5639 43.9419 34.526 43.8204C34.3231 43.331 34.1202 42.8416 33.9173 42.3542C33.8767 42.256 33.8321 42.1618 33.7813 42.0532H32.8053C32.6024 42.0532 32.3832 42.0532 32.1722 42.0532C32.0561 42.0615 31.94 42.036 31.8378 41.9797C31.7356 41.9234 31.6516 41.8387 31.5956 41.7357C31.5397 41.6327 31.5142 41.5156 31.5221 41.3984C31.5301 41.2812 31.5712 41.1688 31.6405 41.0744C32.2351 40.1264 32.8398 39.1865 33.4404 38.2425L33.6616 37.8923L33.1868 37.79C32.5939 37.676 32.0384 37.415 31.5704 37.0303C31.1024 36.6457 30.7367 36.1496 30.5062 35.5867C30.2087 34.8787 30.0041 34.1345 29.8975 33.3731C29.6853 32.0557 29.6065 30.7198 29.6621 29.3863C29.6815 28.3486 29.8259 27.3172 30.0923 26.3148L29.7432 26.1407C29.2059 25.8897 28.6958 25.5829 28.2214 25.2254C28.0351 25.0807 27.8638 24.9175 27.71 24.738C27.5983 24.6212 27.5359 24.4652 27.5359 24.3029C27.5359 24.1406 27.5983 23.9846 27.71 23.8678C27.9947 23.5094 28.3296 23.1948 28.7043 22.934C29.5385 22.3515 30.4324 21.8613 31.3707 21.472L31.6527 21.3471C31.5939 21.3082 31.5634 21.2836 31.5289 21.2652C30.0011 20.4162 28.6918 19.2176 27.7059 17.7657C27.3894 17.3131 27.1215 16.8238 26.8354 16.3487C26.6 15.9555 26.6974 15.6074 27.0931 15.3453C27.8732 14.8419 28.7224 14.4569 29.6134 14.2027C30.7415 13.8718 31.8955 13.6388 33.063 13.5065C33.1523 13.5065 33.2416 13.484 33.3288 13.4696C33.3549 13.4628 33.3807 13.4546 33.4059 13.4451C33.4001 13.4134 33.3891 13.383 33.3735 13.355C32.516 12.0525 31.8336 10.6409 31.3443 9.15723C31.0561 8.33816 30.8268 7.48837 30.5752 6.65087C30.5521 6.5813 30.5378 6.50906 30.5326 6.43586C30.5214 6.35221 30.5279 6.2671 30.5517 6.18618C30.5756 6.10526 30.6162 6.03038 30.6709 5.96649C30.7255 5.9026 30.793 5.85116 30.8689 5.81559C30.9448 5.78001 31.0273 5.76111 31.1109 5.76013C31.3625 5.74989 31.6142 5.76013 31.8658 5.77241C34.3037 5.91462 36.7166 6.34484 39.0552 7.05426L39.4042 7.1505C39.4387 6.94574 39.4671 6.74097 39.4975 6.55463C39.7623 4.85632 40.2396 3.19879 40.918 1.62176C40.9507 1.52062 41.006 1.42838 41.0795 1.35208C41.153 1.27577 41.2428 1.21743 41.3421 1.18151C41.5082 1.13698 41.6848 1.15443 41.8392 1.23066C42.5993 1.54178 43.3329 1.91502 44.0328 2.34664C45.8145 3.4563 47.4861 4.73656 49.0246 6.16966C49.1159 6.24952 49.2052 6.33143 49.3026 6.42153L49.5055 6.30891C53.3441 3.96368 57.5 2.19374 61.8429 1.05456C63.4046 0.642354 64.9955 0.352765 66.6014 0.188387C67.2101 0.129004 67.8189 0.0921457 68.4276 0.0409536C68.496 0.0311072 68.5637 0.0174349 68.6306 0L68.6752 0ZM49.195 18.6441L49.0469 18.9185C48.3796 20.2033 47.6172 21.4354 46.7661 22.6044C46.3547 23.1531 45.9015 23.6687 45.4106 24.1463C45.0291 24.5169 44.6517 24.5353 44.2742 24.1299C44.0713 23.9251 43.8684 23.7203 43.6655 23.491C42.5945 22.247 41.7205 20.8435 41.0742 19.3301C41.0377 19.2482 40.9991 19.1683 40.9464 19.0537C40.9038 19.1581 40.8713 19.2318 40.8429 19.3055C40.6603 19.7786 40.4878 20.2536 40.293 20.7225C39.7529 22.0748 39.0553 23.3575 38.2151 24.5435C38.1603 24.6152 38.1096 24.6889 38.0507 24.7483C38.0009 24.813 37.9387 24.8671 37.8678 24.9072C37.7969 24.9473 37.7188 24.9727 37.638 24.9818C37.5573 24.991 37.4755 24.9837 37.3976 24.9605C37.3197 24.9373 37.2471 24.8985 37.1843 24.8466C37.1011 24.7831 37.0219 24.7114 36.9428 24.6418C36.4727 24.2018 36.0595 23.7037 35.7131 23.1593C35.6725 23.0958 35.6259 23.0364 35.5812 22.975C35.5475 23.0982 35.5338 23.2262 35.5406 23.3538C35.5623 24.9087 35.5846 26.4636 35.6076 28.0184C35.6441 30.8852 35.6827 33.7642 35.705 36.6371C35.7013 36.9524 35.806 37.2592 36.0013 37.5053C36.886 38.6684 37.7484 39.8458 38.6209 41.0171C38.7028 41.1094 38.7551 41.2244 38.7711 41.3472C38.787 41.47 38.7658 41.5947 38.7102 41.7051C38.6556 41.8181 38.568 41.9115 38.4591 41.9727C38.3503 42.0338 38.2254 42.0598 38.1015 42.0471H37.6753C38.0186 42.5614 38.3877 43.0576 38.7812 43.5337L39.7715 42.6082C39.8226 42.5548 39.8783 42.5062 39.9379 42.4628C40.0185 42.4131 40.1137 42.3934 40.2072 42.4069C40.3006 42.4205 40.3865 42.4665 40.45 42.5371C40.5134 42.6077 40.5505 42.6984 40.5548 42.7936C40.5591 42.8888 40.5304 42.9825 40.4736 43.0586C40.4317 43.1084 40.3855 43.1543 40.3356 43.1958L39.4813 43.9985C39.4286 44.0477 39.3819 44.1009 39.3352 44.1501C39.6457 44.5924 41.0316 45.9152 41.4151 46.1343C41.4638 46.0749 41.5186 46.0175 41.5693 45.9541C41.8331 45.6326 42.0949 45.3091 42.3567 44.9876C42.3962 44.9352 42.4396 44.8859 42.4865 44.8401C42.5563 44.7764 42.6458 44.739 42.7399 44.7345C42.8339 44.7301 42.9265 44.7587 43.0019 44.8156C43.0797 44.8765 43.1329 44.9639 43.1516 45.0615C43.1703 45.159 43.1531 45.2601 43.1034 45.3459C43.0691 45.4009 43.0305 45.4529 42.9877 45.5015L42.1761 46.509C42.1375 46.5561 42.1071 46.6114 42.0645 46.6749C42.9628 47.3647 43.9081 47.9901 44.8931 48.5464C44.9398 48.4625 44.9804 48.3929 45.0169 48.3212L45.6054 47.1643C45.6299 47.1127 45.6577 47.0627 45.6886 47.0148C45.7441 46.9323 45.8274 46.8731 45.923 46.8482C46.0187 46.8234 46.12 46.8345 46.2081 46.8796C46.2944 46.926 46.3613 47.0023 46.3964 47.0945C46.4314 47.1867 46.4323 47.2885 46.3988 47.3813C46.3698 47.4579 46.3345 47.5318 46.2933 47.6025C46.1107 47.9669 45.924 48.3314 45.7393 48.6959C45.7048 48.7676 45.6724 48.8393 45.6399 48.9109C46.2284 49.3205 48.2393 50.0064 48.7709 49.9552V49.7177C48.7709 49.1689 48.7709 48.6202 48.7709 48.0796C48.7684 47.9978 48.7752 47.9161 48.7912 47.8359C48.8099 47.751 48.8558 47.6746 48.9218 47.6187C48.9879 47.5628 49.0704 47.5305 49.1565 47.5267C49.2422 47.5195 49.3279 47.5417 49.3996 47.5896C49.4714 47.6375 49.5251 47.7084 49.5522 47.7908C49.5855 47.9003 49.6026 48.0142 49.6029 48.1287C49.6029 48.6509 49.6029 49.1751 49.6029 49.6993V49.9573C50.2218 49.9798 52.2834 49.2795 52.742 48.9027C52.5249 48.4748 52.3058 48.0468 52.0886 47.6168C52.0441 47.5392 52.0067 47.4576 51.977 47.3731C51.9544 47.2812 51.9641 47.1841 52.0044 47.0985C52.0447 47.013 52.1132 46.9442 52.1982 46.9038C52.2831 46.8635 52.3793 46.8541 52.4703 46.8774C52.5614 46.9006 52.6416 46.9549 52.6974 47.0312C52.7276 47.0799 52.7547 47.1305 52.7786 47.1827C52.9815 47.5758 53.1844 47.969 53.3873 48.3601C53.4198 48.4236 53.4604 48.4809 53.4989 48.5464C54.4831 47.9867 55.4288 47.3607 56.3296 46.6728C56.2688 46.5909 56.2221 46.5254 56.1714 46.468C55.9258 46.1629 55.6762 45.8537 55.4307 45.5568C55.384 45.4995 55.3353 45.4442 55.2948 45.3828C55.2459 45.3117 55.2206 45.2269 55.2224 45.1405C55.2242 45.0541 55.2531 44.9704 55.3049 44.9016C55.3527 44.8342 55.421 44.7846 55.4995 44.7602C55.5779 44.7357 55.6621 44.7379 55.7391 44.7664C55.8409 44.8134 55.9305 44.8834 56.0009 44.9712C56.2789 45.3009 56.5488 45.6408 56.8126 45.9745C56.8613 46.036 56.9161 46.0913 56.979 46.1588C57.7242 45.5477 58.4197 44.8774 59.0589 44.1542C58.9818 44.0845 58.9189 44.0313 58.856 43.976C58.5516 43.6934 58.2472 43.4129 57.9469 43.1242C57.9037 43.0886 57.8683 43.0444 57.8428 42.9944C57.8173 42.9443 57.8023 42.8895 57.7987 42.8334C57.7951 42.7772 57.8031 42.721 57.822 42.668C57.8409 42.6151 57.8704 42.5667 57.9087 42.5258C57.947 42.4849 57.9932 42.4524 58.0445 42.4304C58.0958 42.4083 58.151 42.3971 58.2068 42.3976C58.2625 42.398 58.3176 42.41 58.3685 42.4328C58.4195 42.4557 58.4652 42.4889 58.5029 42.5303C58.6125 42.6286 58.718 42.7351 58.8235 42.8293L59.5723 43.5296C59.9152 43.1877 60.5869 42.2642 60.6295 42.0553C60.4814 42.0553 60.3352 42.0553 60.1912 42.0553C60.1021 42.0517 60.0148 42.0285 59.9356 41.9872C59.8564 41.9459 59.7872 41.8875 59.7328 41.8162C59.6784 41.7449 59.6402 41.6624 59.6209 41.5746C59.6016 41.4868 59.6016 41.3957 59.621 41.3079C59.6586 41.1833 59.7207 41.0677 59.8036 40.968C60.7005 39.7544 61.6008 38.5428 62.5044 37.3333C62.6196 37.1967 62.679 37.0211 62.6708 36.8419C62.6587 36.5962 62.6708 36.3504 62.6708 36.1047C62.6993 33.87 62.727 31.636 62.754 29.4027C62.7642 28.5263 62.7703 27.6498 62.7804 26.7734C62.7953 25.579 62.8102 24.3845 62.8251 23.19C62.8251 23.1245 62.8149 23.0589 62.8048 22.9484C62.7277 23.0651 62.681 23.1327 62.6384 23.2002C62.2625 23.7883 61.8053 24.3192 61.2808 24.7769C60.9136 25.0902 60.5625 25.0554 60.2784 24.6725C60.0633 24.3858 59.8564 24.091 59.6697 23.7879C58.8183 22.4033 58.1176 20.93 57.5796 19.3936C57.5411 19.2912 57.5005 19.1888 57.4457 19.0373L57.2428 19.4735C56.5566 21.0527 55.6151 22.5059 54.4567 23.7736C54.3004 23.9394 54.1381 24.1012 53.9677 24.2507C53.8536 24.3651 53.6993 24.4293 53.5385 24.4293C53.3777 24.4293 53.2234 24.3651 53.1093 24.2507C53.0403 24.1934 52.9754 24.1319 52.9064 24.0685C52.4241 23.6057 51.9834 23.1006 51.5895 22.5593C50.7499 21.404 49.997 20.187 49.3371 18.9185C49.3087 18.8387 49.2579 18.7609 49.193 18.6441H49.195ZM32.6531 26.0158C32.3827 26.0242 32.1159 26.0818 31.8658 26.1858C31.6805 26.2484 31.5156 26.3604 31.3884 26.5101C31.2612 26.6597 31.1765 26.8413 31.1434 27.0355C30.9795 27.8449 30.8852 28.667 30.8613 29.4928C30.8177 30.6566 30.8816 31.822 31.0521 32.9738C31.1449 33.6962 31.3311 34.4032 31.606 35.0768C32.0119 36.0085 32.7322 36.4999 33.7123 36.6433C33.7677 36.649 33.8234 36.649 33.8787 36.6433C33.0132 33.1711 32.6005 29.5998 32.6511 26.0199L32.6531 26.0158ZM64.5073 36.6535C64.5464 36.6561 64.5858 36.6561 64.6249 36.6535C64.7196 36.6399 64.815 36.6235 64.9111 36.6044C65.3051 36.5372 65.6767 36.3731 65.9931 36.1267C66.3095 35.8803 66.5609 35.5591 66.7252 35.1915C66.8398 34.9474 66.9374 34.6956 67.0174 34.4379C67.2962 33.4455 67.459 32.4236 67.5023 31.393C67.5734 30.4045 67.5571 29.4115 67.4536 28.4259C67.3968 27.9222 67.3014 27.4246 67.2122 26.925C67.1911 26.8118 67.1472 26.7042 67.0834 26.6087C67.0195 26.5133 66.937 26.4321 66.8408 26.37C66.5135 26.1537 66.1357 26.028 65.7451 26.0056C65.7914 29.594 65.3753 33.1733 64.5073 36.6535Z" fill="#EFEFEF"/>
<path d="M80.6988 55.9999C80.4675 55.9672 80.2341 55.9426 80.0048 55.8996C77.8437 55.5044 76.405 54.2758 75.7638 52.136C75.6368 51.6867 75.576 51.2209 75.5832 50.7538C75.5832 49.517 75.5832 48.2809 75.5832 47.0454C75.5836 46.5946 75.652 46.1465 75.7861 45.7165C75.8185 45.6168 75.8268 45.5108 75.8105 45.4073C75.2869 42.5692 74.7614 39.7318 74.2338 36.8951C74.0065 35.6665 73.7799 34.444 73.554 33.2277C73.4629 32.8471 73.4501 32.4518 73.5162 32.0661C73.5823 31.6803 73.726 31.3123 73.9384 30.9847C74.1508 30.6572 74.4275 30.377 74.7514 30.1614C75.0752 29.9459 75.4394 29.7996 75.8214 29.7315C76.2035 29.6634 76.5953 29.675 76.9727 29.7656C77.3501 29.8562 77.7051 30.0238 78.0159 30.2581C78.3267 30.4924 78.5866 30.7885 78.7796 31.1281C78.9727 31.4676 79.0948 31.8435 79.1383 32.2325C79.5685 34.6897 80.0149 37.1469 80.4553 39.6042C80.4647 39.6612 80.4943 39.7128 80.5385 39.7495C80.5939 39.3646 80.6474 38.9796 80.6988 38.5946C80.8571 37.4438 81.014 36.293 81.1696 35.1423C81.3224 34.016 81.4753 32.8898 81.6281 31.7636C81.6578 31.4883 81.7025 31.2148 81.7621 30.9445C81.9189 30.3128 82.2851 29.7543 82.8 29.3618C83.3148 28.9692 83.9473 28.7662 84.5923 28.7865C85.2373 28.8069 85.8559 29.0493 86.3455 29.4735C86.8351 29.8978 87.1661 30.4782 87.2835 31.1186C87.3468 31.507 87.34 31.9038 87.2632 32.2898C86.8979 34.4017 86.5347 36.5128 86.1735 38.6233C86.1662 38.6804 86.1622 38.7378 86.1613 38.7953C86.5855 38.6248 87.0438 38.5582 87.4984 38.601C87.953 38.6438 88.3911 38.7949 88.7767 39.0417C89.1623 39.2885 89.4844 39.624 89.7165 40.0208C89.9487 40.4176 90.0843 40.8643 90.1122 41.3242C90.4012 41.2565 90.6939 41.2059 90.9888 41.1727C91.6855 41.1205 92.3763 41.3339 92.9248 41.7706C93.4733 42.2073 93.8396 42.8357 93.9514 43.5316C94.0308 43.977 94.0015 44.4352 93.8662 44.8667C93.4786 46.081 93.0951 47.2973 92.7075 48.5116C92.6776 48.6309 92.6312 48.7453 92.5695 48.8515C92.4472 49.0638 92.394 49.3094 92.4173 49.5538C92.4173 49.9961 92.4173 50.4384 92.4173 50.8807C92.3912 52.093 91.9465 53.2579 91.16 54.1746C90.3735 55.0912 89.2945 55.7021 88.1094 55.9017C87.8801 55.9365 87.6467 55.9651 87.4154 55.9958H87.1739C87.1448 55.982 87.1141 55.9717 87.0826 55.9651C86.5178 55.9271 85.9572 55.8414 85.4065 55.7092C84.7258 55.5582 84.0232 55.5366 83.3347 55.6457C82.7381 55.744 82.1375 55.832 81.5389 55.9221C81.3238 55.9528 81.1087 55.9713 80.8936 55.9958L80.6988 55.9999ZM91.1876 50.2521L90.9604 50.3299C90.5849 50.4643 90.1855 50.517 89.7884 50.4847C89.3913 50.4524 89.0054 50.3358 88.6561 50.1424C88.3069 49.9491 88.002 49.6834 87.7616 49.3628C87.5212 49.0422 87.3507 48.674 87.2612 48.2822C87.2287 48.1471 87.2186 48.0078 87.1881 47.8727C87.1838 47.8424 87.1709 47.8141 87.151 47.791C87.1312 47.7679 87.1052 47.7511 87.0762 47.7425C87.0471 47.7338 87.0162 47.7338 86.9871 47.7424C86.9581 47.7509 86.932 47.7677 86.9122 47.7908C86.8817 47.8174 86.8574 47.8502 86.829 47.8788C86.3563 48.3849 85.7108 48.6909 85.023 48.7348C84.6679 48.7593 84.3087 48.7511 83.9536 48.7593C83.8846 48.7593 83.8176 48.7593 83.7243 48.7778C83.8826 48.9825 84.0287 49.1586 84.1585 49.345C84.2494 49.4727 84.2883 49.6308 84.2672 49.7866C84.246 49.9424 84.1665 50.0841 84.0449 50.1825C83.9223 50.2803 83.7671 50.3268 83.6115 50.3123C83.4558 50.2978 83.3117 50.2235 83.2089 50.1047C83.1345 50.028 83.0666 49.9451 83.006 49.8569C82.8152 49.5518 82.4987 49.4474 82.2044 49.2979C82.1598 49.3388 82.1273 49.3634 82.0989 49.3921C81.8574 49.6337 81.618 49.8774 81.3765 50.121C81.3096 50.1988 81.2243 50.2583 81.1285 50.2941C81.0328 50.3299 80.9297 50.3408 80.8286 50.3258C80.719 50.3131 80.6152 50.2692 80.5294 50.1992C80.4435 50.1292 80.3791 50.0361 80.3437 49.9306C80.2992 49.8236 80.2878 49.7056 80.3109 49.5919C80.3341 49.4783 80.3908 49.3743 80.4735 49.2938C80.7495 49.0051 81.0275 48.7184 81.3177 48.444C81.7811 47.9894 82.3733 47.6917 83.0121 47.5922C83.3821 47.5521 83.7539 47.5316 84.1261 47.5307C84.4244 47.5184 84.7348 47.5307 85.023 47.4959C85.4097 47.4102 85.752 47.1849 85.9856 46.8623C86.2191 46.5397 86.3278 46.1421 86.2911 45.7442C86.2545 45.3464 86.075 44.9759 85.7865 44.7022C85.4981 44.4286 85.1204 44.2708 84.7247 44.2585C82.9958 44.2585 81.2676 44.2585 79.5401 44.2585C79.1778 44.253 78.8181 44.321 78.4822 44.4583C78.1464 44.5957 77.8414 44.7997 77.5851 45.0583C77.3289 45.3169 77.1267 45.6247 76.9906 45.9636C76.8545 46.3025 76.7871 46.6655 76.7926 47.0311C76.7926 48.2597 76.7926 49.5026 76.7926 50.7394C76.7897 51.0913 76.834 51.4419 76.9245 51.7817C77.5048 53.9236 79.3595 54.7857 80.9727 54.7242C81.4557 54.7058 81.9366 54.6034 82.4175 54.544C82.9897 54.4724 83.5579 54.3823 84.1322 54.3393C84.7088 54.3319 85.2839 54.4007 85.8428 54.544C86.4026 54.6801 86.9777 54.742 87.5534 54.7283C88.0883 54.6886 88.6097 54.5396 89.0858 54.2901C89.5619 54.0407 89.9827 53.6961 90.3227 53.2774C90.6626 52.8587 90.9146 52.3746 91.0633 51.8545C91.212 51.3344 91.2543 50.7892 91.1876 50.2521ZM79.8364 43.0361C79.7978 42.8313 79.7674 42.6572 79.7349 42.4832C79.1262 39.1352 78.5174 35.7873 77.935 32.4393C77.8644 32.0113 77.6284 31.629 77.2788 31.3764C76.9292 31.1238 76.4945 31.0215 76.0702 31.0919C75.6567 31.1571 75.2855 31.3846 75.0377 31.7249C74.7898 32.0651 74.6854 32.4905 74.7472 32.9082C74.9501 34.1246 75.1895 35.3388 75.4148 36.5511C75.8125 38.7079 76.2123 40.8628 76.614 43.0156C76.679 43.3657 76.7459 43.7179 76.817 44.1091C77.2232 43.735 77.6999 43.4473 78.2186 43.263C78.7373 43.0786 79.2875 43.0015 79.8364 43.0361ZM83.7689 43.0238C83.7974 42.9419 83.8298 42.8579 83.8562 42.774L84.538 40.6259C84.6299 40.3785 84.6979 40.1228 84.7409 39.8622C84.8119 39.2704 84.9337 38.6847 85.0331 38.0971C85.3862 36.0494 85.7413 33.9894 86.0842 31.9335C86.1238 31.7169 86.1238 31.4949 86.0842 31.2783C86.0078 30.897 85.7962 30.557 85.4892 30.3218C85.1822 30.0866 84.8007 29.9724 84.4163 30.0005C84.037 30.0258 83.6787 30.1846 83.4035 30.4491C83.1284 30.7137 82.9539 31.0672 82.9106 31.4482C82.7023 32.9881 82.4926 34.5273 82.2815 36.0658C81.9893 38.2117 81.6978 40.3584 81.407 42.5057C81.3846 42.6716 81.3664 42.8395 81.3461 43.0238H83.7689ZM91.1816 42.387C90.8337 42.3819 90.4937 42.4909 90.2126 42.6978C89.9316 42.9046 89.7247 43.1979 89.6231 43.5337C89.2396 44.7315 88.8723 45.9335 88.4807 47.1294C88.4076 47.3576 88.385 47.5993 88.4147 47.8374C88.4443 48.0754 88.5253 48.3039 88.6521 48.5069C88.7789 48.7098 88.9483 48.8822 89.1483 49.0118C89.3484 49.1414 89.5742 49.2251 89.8098 49.2569C90.0598 49.2988 90.3162 49.2757 90.5548 49.1897C90.7934 49.1037 91.0063 48.9577 91.1734 48.7655C91.3633 48.5642 91.5025 48.3198 91.5793 48.0529C91.6604 47.7457 91.768 47.4386 91.8654 47.1417C92.1414 46.2694 92.4254 45.3991 92.6933 44.5247C92.7736 44.2818 92.7959 44.0232 92.7583 43.7699C92.7206 43.5166 92.6242 43.2759 92.4767 43.0675C92.3293 42.859 92.1352 42.6887 91.9101 42.5704C91.685 42.4521 91.4353 42.3893 91.1816 42.387ZM85.0656 43.0463C86.5023 43.3023 87.3363 44.1459 87.6305 45.5588C88.0363 44.3159 88.4422 43.1016 88.8135 41.8586C88.8868 41.618 88.8984 41.3626 88.8473 41.1162C88.7962 40.8699 88.6841 40.6406 88.5213 40.4498C88.3403 40.2223 88.1023 40.0477 87.8319 39.9441C87.5616 39.8404 87.2688 39.8115 86.9837 39.8604C86.6986 39.9093 86.4316 40.0341 86.2103 40.2219C85.9891 40.4098 85.8215 40.6539 85.7251 40.929C85.508 41.5617 85.3192 42.2047 85.1163 42.8436C85.0981 42.8948 85.0859 42.9562 85.0656 43.0381V43.0463Z" fill="#EFEFEF"/>
<path d="M8.52168 41.0726C8.56786 40.2448 8.93179 39.4677 9.53627 38.9061H9.33335C8.42428 38.9061 7.51723 38.9061 6.60816 38.9061C6.39568 38.9086 6.18901 38.8362 6.02375 38.7014C5.35615 38.1976 5.08018 37.4912 4.97263 36.6987C4.8889 36.0971 4.93247 35.4843 5.10047 34.9009C5.26572 34.3323 5.60442 33.8307 6.06839 33.4675C6.18343 33.3747 6.327 33.3255 6.47423 33.3282C6.6528 33.3282 6.83137 33.3282 7.00994 33.3282H11.5756C11.4965 32.8675 11.4315 32.4416 11.3483 32.0177C11.2606 31.6342 11.2513 31.2366 11.3211 30.8493C11.3909 30.462 11.5382 30.0931 11.7542 29.7653C12.0711 29.2903 12.5217 28.9219 13.0479 28.7077C13.5741 28.4935 14.1518 28.4432 14.7066 28.5633C15.2534 28.6798 15.7531 28.9587 16.1414 29.3641C16.5298 29.7695 16.7891 30.2829 16.886 30.8383C16.9996 31.514 17.0889 32.1979 17.1741 32.8859C17.1924 33.0231 17.2127 33.1603 17.235 33.3119H19.2195C19.2358 33.2525 19.2561 33.191 19.2682 33.1296C19.3474 32.6955 19.4164 32.2594 19.5057 31.8273C19.6342 31.1877 19.9793 30.6131 20.4817 30.2022C20.9841 29.7912 21.6126 29.5694 22.2593 29.5748C22.9144 29.5705 23.5507 29.7957 24.0596 30.2121C24.5684 30.6285 24.9183 31.2103 25.0494 31.858C25.1244 32.2365 25.1244 32.6262 25.0494 33.0047C25.0311 33.0989 25.019 33.1972 24.9966 33.3303H25.5668C26.1411 33.3303 26.1898 33.2484 26.7052 33.8709C27.2655 34.5094 27.5657 35.3383 27.5453 36.1909C27.5288 36.6341 27.4217 37.0691 27.2308 37.4687C27.0278 37.8977 26.7617 38.2933 26.4414 38.642C26.3749 38.7192 26.292 38.7805 26.199 38.8212C26.1059 38.862 26.005 38.8812 25.9037 38.8775C25.3517 38.8775 24.7998 38.8775 24.2479 38.8775H23.9638C23.909 39.1539 23.8562 39.416 23.8075 39.6781C23.4747 41.4855 23.1413 43.2943 22.8071 45.1045C22.78 45.2318 22.7877 45.3642 22.8295 45.4874C22.9678 45.8987 23.0364 46.3307 23.0324 46.7651C23.0324 47.9937 23.0141 49.2387 23.0324 50.4735C23.0492 51.667 22.6531 52.8291 21.9124 53.7598C21.1716 54.6904 20.1326 55.3313 18.974 55.5722C18.1854 55.7353 17.3731 55.7429 16.5816 55.5947C16.0946 55.5149 15.6056 55.4412 15.1165 55.3654C14.4966 55.283 13.8672 55.3086 13.2558 55.4412C12.787 55.5333 12.3163 55.6316 11.8353 55.6766C11.0973 55.7637 10.3494 55.6821 9.64684 55.4379C8.94432 55.1937 8.30525 54.7931 7.77697 54.2658C7.2634 53.7794 6.85623 53.1901 6.58157 52.5356C6.30691 51.8811 6.17082 51.1759 6.18203 50.4653C6.18203 49.9984 6.18203 49.5315 6.18203 49.0647C6.18276 48.9424 6.15274 48.8219 6.09477 48.7145C6.01383 48.5708 5.94591 48.4201 5.89186 48.264C5.50022 47.0354 5.10656 45.8232 4.72913 44.5966C4.61693 44.2386 4.57593 43.8618 4.60849 43.4877C4.64106 43.1136 4.74654 42.7498 4.91888 42.417C5.09122 42.0842 5.32703 41.789 5.61275 41.5485C5.89847 41.3079 6.22848 41.1267 6.58381 41.0152C7.12921 40.8412 7.71452 40.8412 8.25992 41.0152L8.52168 41.0726ZM16.4213 49.0319C15.912 49.2367 15.8288 49.2961 15.5305 49.6769C15.4919 49.7281 15.4513 49.7814 15.4087 49.8305C15.3075 49.9497 15.1648 50.0252 15.0101 50.0416C14.8554 50.058 14.7003 50.0139 14.5768 49.9186C14.4497 49.82 14.3663 49.6748 14.3447 49.5146C14.323 49.3543 14.3649 49.1919 14.4611 49.0626C14.5646 48.9172 14.6823 48.7801 14.7898 48.6367C14.8203 48.5978 14.8426 48.5507 14.8832 48.4852C14.5504 48.4852 14.2521 48.4852 13.9518 48.4852C13.5407 48.5022 13.1309 48.4282 12.7513 48.2683C12.3716 48.1084 12.0313 47.8665 11.7542 47.5596C11.7374 47.5335 11.715 47.5116 11.6886 47.4955C11.6622 47.4794 11.6325 47.4696 11.6018 47.4669C11.5711 47.4641 11.5402 47.4685 11.5114 47.4796C11.4826 47.4907 11.4567 47.5082 11.4356 47.531C11.4083 47.9935 11.269 48.4423 11.0299 48.8378C10.7907 49.2334 10.459 49.5637 10.0639 49.7998C9.22378 50.3138 8.33297 50.3342 7.41577 49.9677C7.33065 50.8173 7.49956 51.6731 7.90075 52.4249C8.27752 53.1141 8.85021 53.6735 9.54498 54.0312C10.2398 54.3889 11.0248 54.5283 11.7988 54.4317C12.2412 54.3682 12.6795 54.2883 13.1158 54.2023C13.7519 54.0671 14.4053 54.0346 15.0516 54.1061C15.5995 54.1716 16.1433 54.2637 16.6871 54.3538C17.3962 54.4959 18.1269 54.4861 18.832 54.3252C19.6886 54.1208 20.4505 53.6278 20.9921 52.9275C21.5336 52.2273 21.8224 51.3617 21.8108 50.4735C21.8108 49.2203 21.8108 47.9671 21.8108 46.716C21.8165 46.271 21.7116 45.8317 21.5057 45.4382C21.2997 45.0447 20.9993 44.7096 20.6319 44.4635C20.1371 44.1262 19.5483 43.9576 18.9517 43.9823C17.306 43.9823 15.6583 43.9823 14.0127 43.9823C13.899 43.9823 13.7854 43.9823 13.6718 43.9967C13.2665 44.0392 12.8923 44.2348 12.6241 44.5443C12.356 44.8538 12.2138 45.2542 12.2261 45.6651C12.2385 46.076 12.4044 46.467 12.6906 46.7596C12.9768 47.0521 13.3621 47.2245 13.7692 47.2422C14.175 47.2586 14.5626 47.2422 14.9603 47.2422C15.7393 47.2272 16.4977 47.4954 17.097 47.9978C17.4648 48.3191 17.8143 48.6609 18.1441 49.0217C18.198 49.0781 18.2404 49.1447 18.2687 49.2177C18.2971 49.2906 18.3109 49.3685 18.3094 49.4469C18.3079 49.5253 18.2911 49.6026 18.2599 49.6744C18.2288 49.7462 18.1839 49.8111 18.1278 49.8653C18.014 49.9785 17.8605 50.0419 17.7007 50.0419C17.5409 50.0419 17.3874 49.9785 17.2736 49.8653C17.1477 49.7507 17.0321 49.6237 16.9103 49.5029L16.4213 49.0319ZM21.7966 43.7939C21.8149 43.7202 21.8352 43.6506 21.8473 43.5789C22.0016 42.7435 22.1517 41.906 22.3059 41.0705C22.8011 38.4113 23.2962 35.7493 23.7913 33.0846C23.8523 32.8304 23.8836 32.57 23.8846 32.3085C23.8616 31.9123 23.6957 31.5382 23.4183 31.2569C23.1408 30.9756 22.771 30.8064 22.3785 30.7812C21.9859 30.756 21.5978 30.8766 21.2873 31.1202C20.9768 31.3638 20.7653 31.7136 20.6927 32.1037C20.4776 33.2852 20.2707 34.4688 20.0576 35.6524C19.6721 37.7929 19.2845 39.9286 18.8949 42.0596C18.8543 42.2828 18.8178 42.506 18.7812 42.7291C20.6968 42.9687 20.3904 42.8848 21.7885 43.7939H21.7966ZM8.26194 34.5609C8.6313 35.5643 8.6313 36.6681 8.26194 37.6714H18.4525C18.6392 36.6332 18.8218 35.6073 19.0085 34.5609H8.26194ZM8.5785 48.9848C8.83297 48.9893 9.08484 48.9326 9.31333 48.8194C9.54182 48.7063 9.74037 48.54 9.8926 48.3341C10.0448 48.1283 10.1464 47.8889 10.1889 47.6357C10.2313 47.3825 10.2135 47.1227 10.1369 46.8778C9.76625 45.6587 9.38273 44.4444 8.98636 43.2349C8.93669 43.0134 8.84188 42.8046 8.70798 42.622C8.57408 42.4394 8.404 42.2869 8.20855 42.1742C8.0131 42.0615 7.79655 41.991 7.57267 41.9672C7.34878 41.9435 7.12245 41.967 6.90805 42.0363C6.69366 42.1055 6.49588 42.2191 6.32729 42.3696C6.15869 42.5201 6.02297 42.7044 5.92874 42.9107C5.83451 43.117 5.78383 43.3409 5.77993 43.568C5.77603 43.7951 5.81898 44.0206 5.90606 44.2301C6.28146 45.4403 6.66903 46.6443 7.05255 47.8504C7.14394 48.1213 7.30005 48.3654 7.50709 48.5609C7.64766 48.6992 7.81404 48.8078 7.99658 48.8806C8.17911 48.9533 8.37416 48.9888 8.57038 48.9848H8.5785ZM13.5378 42.7619C13.5409 42.7374 13.5409 42.7127 13.5378 42.6882C13.3106 41.9715 13.1056 41.2548 12.8459 40.5443C12.749 40.2674 12.5733 40.0255 12.3409 39.8488C12.1085 39.6722 11.8295 39.5686 11.5391 39.5511C11.2394 39.5082 10.9339 39.5557 10.6609 39.6876C10.388 39.8195 10.1597 40.0299 10.005 40.2924C9.86811 40.5016 9.78205 40.7404 9.75384 40.9895C9.72563 41.2386 9.75607 41.4908 9.84268 41.7258C10.1775 42.766 10.5062 43.8083 10.837 44.8505C10.8796 44.9877 10.9242 45.1249 10.9689 45.2601C11.2753 43.8492 12.1194 43.0117 13.5297 42.7619H13.5378ZM17.2938 42.7455C17.1173 41.4616 16.9469 40.1962 16.7744 38.9389C15.7805 38.8906 14.7847 38.8974 13.7915 38.9594C13.8345 39.1409 13.8617 39.3259 13.8726 39.5122C13.8928 39.801 13.9614 40.0842 14.0756 40.3497L14.7513 42.4732C14.7797 42.5653 14.8122 42.6554 14.8446 42.7455H17.2938ZM12.8093 33.2873C13.8708 33.3398 14.9342 33.3357 15.9952 33.275C15.8978 32.5481 15.8125 31.8171 15.6989 31.0922C15.6249 30.6743 15.3919 30.3021 15.0496 30.0553C14.7074 29.8084 14.283 29.7065 13.8672 29.7712C13.4515 29.8359 13.0773 30.0622 12.8246 30.4016C12.5719 30.741 12.4609 31.1667 12.5151 31.5877C12.6044 32.1488 12.7079 32.7119 12.8093 33.2873ZM24.185 37.6018C24.2195 37.6181 24.2337 37.6304 24.2479 37.6304C24.5482 37.6304 24.8566 37.6304 25.1468 37.6304C25.7556 37.6304 25.7454 37.6304 26.0396 37.0919C26.5145 36.2237 26.3663 35.3984 25.7738 34.6592C25.7321 34.6009 25.6695 34.5612 25.5993 34.5487C25.3274 34.5364 25.0535 34.5487 24.7552 34.5487C24.5624 35.5786 24.3737 36.5922 24.185 37.6018ZM7.30417 36.1049C7.31807 35.769 7.26351 35.4338 7.14386 35.12C7.08804 34.9748 7.01442 34.8372 6.92471 34.7104C6.7847 34.52 6.67715 34.52 6.53917 34.7104C6.44987 34.8378 6.37564 34.9752 6.31798 35.12C6.20247 35.4187 6.14528 35.7372 6.14956 36.0578C6.13431 36.4185 6.1916 36.7787 6.31798 37.1165C6.37073 37.2522 6.43882 37.3814 6.5209 37.5014C6.66498 37.7062 6.77861 37.7062 6.92674 37.5014C7.01645 37.3747 7.09007 37.2371 7.14589 37.0919C7.26429 36.7771 7.31814 36.4413 7.30417 36.1049ZM18.0589 39.457H18.1218L18.205 38.9287H18L18.0589 39.457Z" fill="#EFEFEF"/>
<path d="M3.81878 22.3197C3.80051 21.8692 3.78834 21.4391 3.76399 21.0071C3.65238 19.2481 4.18809 17.7287 5.51924 16.5452C5.93151 16.1707 6.43623 15.9153 6.98025 15.806C7.28598 15.7372 7.60269 15.7347 7.90947 15.7986C8.21624 15.8624 8.50608 15.9913 8.75984 16.1766C9.12818 16.4469 9.44741 16.7794 9.70342 17.1595C10.3769 18.1441 10.7904 19.2859 10.9047 20.4767C10.9902 21.2188 10.9211 21.9706 10.7018 22.6841C10.6354 22.903 10.5512 23.116 10.4502 23.321C9.54717 25.0779 8.74361 26.8839 7.96238 28.6982C7.66611 29.3882 7.32724 30.0599 6.99039 30.7315C6.85704 30.9935 6.70086 31.2429 6.52368 31.4769C6.40659 31.6739 6.2202 31.8192 6.00169 31.8837C5.78318 31.9482 5.5486 31.9272 5.34473 31.825C5.06697 31.7135 4.80002 31.5765 4.54726 31.4155C3.81345 30.9359 3.13311 30.3777 2.51807 29.7507C1.91162 29.1694 1.37123 28.5218 0.906896 27.8197C0.518195 27.2439 0.238843 26.6003 0.0830463 25.9215C-0.162485 24.781 0.170301 23.8247 0.984005 23.022C1.10981 22.8971 1.25186 22.7865 1.38984 22.6719C1.68422 22.4238 2.03662 22.2559 2.41349 22.1843C2.79036 22.1126 3.17915 22.1394 3.54281 22.2623C3.60571 22.2807 3.66659 22.3012 3.72949 22.3176C3.75916 22.3205 3.78901 22.3212 3.81878 22.3197ZM5.62678 30.6496C5.71201 30.5083 5.77897 30.4162 5.8297 30.3158C6.1706 29.6196 6.53383 28.9316 6.84429 28.2211C7.63568 26.3782 8.44735 24.5537 9.36251 22.7742C9.43329 22.6279 9.49167 22.4759 9.53702 22.3197C9.72071 21.7238 9.76857 21.0938 9.67704 20.4767C9.56657 19.4848 9.19604 18.5404 8.6036 17.741C8.44058 17.541 8.25615 17.3597 8.05369 17.2004C7.93044 17.0982 7.78333 17.0295 7.62635 17.0008C7.46936 16.9722 7.30772 16.9845 7.15679 17.0366C6.98549 17.0865 6.82014 17.1551 6.6637 17.2414C6.32478 17.4369 6.03029 17.702 5.79926 18.0195C5.19846 18.8155 4.90298 19.8038 4.9673 20.8023C4.98759 21.2938 5.01803 21.7832 5.02817 22.2746C5.02817 22.6657 5.02817 23.0609 5.00991 23.452C5.00377 23.5364 4.97947 23.6184 4.93871 23.6923C4.89795 23.7662 4.8417 23.8302 4.77389 23.8799C4.70608 23.9296 4.62834 23.9638 4.54609 23.9801C4.46384 23.9964 4.37906 23.9944 4.29767 23.9742C4.18886 23.9442 4.08592 23.8958 3.99329 23.8308C3.71431 23.6481 3.40904 23.51 3.08827 23.4213C2.93997 23.3763 2.78315 23.3679 2.63097 23.3968C2.47879 23.4257 2.33569 23.4909 2.21369 23.5872C2.07368 23.6977 1.93163 23.8083 1.80785 23.9312C1.55619 24.1563 1.37427 24.4499 1.28392 24.7769C1.19357 25.1038 1.19865 25.45 1.29853 25.7741C1.48939 26.4473 1.81387 27.0743 2.25225 27.617C2.94316 28.5184 3.75285 29.3203 4.65886 30.0005C4.95512 30.2053 5.27573 30.408 5.62678 30.6435V30.6496Z" fill="#EFEFEF"/>
<path d="M49.2054 39.0863H56.6139C57.0502 39.0863 57.4905 39.1068 57.9268 39.0863C58.0241 39.0746 58.1227 39.0903 58.2117 39.1317C58.3007 39.1732 58.3765 39.2387 58.4308 39.321C58.485 39.4034 58.5156 39.4993 58.519 39.5981C58.5225 39.697 58.4987 39.7948 58.4503 39.8808C57.9902 40.9231 57.3294 41.8627 56.5064 42.6452C55.218 43.8844 53.6072 44.7288 51.8616 45.0799C49.8077 45.5439 47.6698 45.4628 45.6563 44.8444C43.4411 44.1949 41.5545 42.718 40.3804 40.7142C40.2262 40.4562 40.1024 40.1798 39.9746 39.9074C39.7453 39.4385 40.0659 39.0884 40.5083 39.0884C43.2497 39.1047 45.9871 39.0884 48.7326 39.0884H49.2196L49.2054 39.0863ZM45.4128 40.1347V43.6567C46.054 44.0151 48.1786 44.4 48.6595 44.2854C48.7042 43.9209 48.6879 40.3026 48.6392 40.1306L45.4128 40.1347ZM52.9796 40.1511C51.8982 40.0906 50.8143 40.0906 49.7329 40.1511V44.312C50.8429 44.2781 51.9398 44.0602 52.9796 43.667V40.1511ZM44.3698 43.2062V40.147C44.0411 40.0917 41.4072 40.1081 41.2307 40.1695C41.9826 41.452 43.0683 42.5022 44.3698 43.2062ZM57.1801 40.1347H54.0368C53.9872 41.1506 53.994 42.1686 54.0571 43.1837C55.3531 42.4723 56.4326 41.4183 57.1801 40.1347Z" fill="#EFEFEF"/>
<path d="M58.7362 29.8431C58.7103 30.1309 58.6206 30.4091 58.4738 30.6572C58.3269 30.9053 58.1268 31.1169 57.888 31.2765C57.5546 31.5012 57.1552 31.6044 56.7557 31.5693C55.8852 31.5017 55.2724 30.8854 55.0634 29.8492C54.9843 29.8492 54.899 29.8349 54.8138 29.8349H53.231C53.1507 29.841 53.0699 29.841 52.9896 29.8349C52.852 29.8067 52.7282 29.7314 52.6394 29.6217C52.5505 29.5119 52.502 29.3746 52.502 29.2329C52.502 29.0912 52.5505 28.9539 52.6394 28.8441C52.7282 28.7344 52.852 28.6591 52.9896 28.6309C53.0051 28.6289 53.0207 28.6289 53.0362 28.6309C53.7586 28.6309 54.479 28.6309 55.2014 28.6309C55.3434 28.6309 55.4875 28.6104 55.6295 28.6084C56.4737 28.6084 57.3178 28.592 58.1599 28.6084C59.002 28.6247 59.8239 28.6084 60.6558 28.6206C60.7372 28.6203 60.8185 28.6251 60.8993 28.635C61.0346 28.6664 61.1551 28.7435 61.2409 28.8535C61.3268 28.9636 61.3728 29.0999 61.3714 29.2399C61.37 29.3799 61.3212 29.5152 61.2331 29.6235C61.145 29.7317 61.023 29.8063 60.8872 29.8349C60.8071 29.8452 60.7264 29.8493 60.6457 29.8472H58.7362V29.8431Z" fill="#EFEFEF"/>
<path d="M39.6463 29.8513H37.7165C37.6119 29.8525 37.5076 29.8401 37.4061 29.8144C37.2805 29.7677 37.1736 29.6805 37.1021 29.5664C37.0305 29.4522 36.9983 29.3174 37.0103 29.1829C37.0223 29.0483 37.0779 28.9216 37.1685 28.8221C37.2592 28.7227 37.3797 28.6562 37.5116 28.6329C37.5927 28.6278 37.674 28.6278 37.7551 28.6329C38.4673 28.6329 39.1755 28.6513 39.8939 28.6493C40.7908 28.6493 41.6897 28.6186 42.5866 28.6145C43.4835 28.6104 44.3662 28.6247 45.255 28.6329C45.4063 28.6294 45.5535 28.6829 45.6678 28.7829C45.7822 28.8829 45.8555 29.0224 45.8735 29.174C45.8915 29.3257 45.8528 29.4786 45.7651 29.6031C45.6774 29.7276 45.5469 29.8146 45.399 29.8472C45.3184 29.8585 45.2369 29.8626 45.1555 29.8595H43.3293C43.304 30.1361 43.2202 30.404 43.0837 30.6453C42.9472 30.8865 42.7611 31.0955 42.5379 31.258C42.2058 31.4991 41.8018 31.6177 41.3934 31.5939C40.5128 31.5488 39.8797 30.9304 39.6463 29.8513Z" fill="#EFEFEF"/>
</g>
<defs>
<clipPath id="clip0_1711_33652">
<rect width="94" height="56" fill="white"/>
</clipPath>
</defs>
</svg>
