<svg width="241" height="240" viewBox="0 0 241 240" fill="none" xmlns="http://www.w3.org/2000/svg">
<path d="M0 206.362V201.013C0.085765 200.85 0.150984 200.678 0.194159 200.499C0.961243 193.97 4.12289 187.958 9.06723 183.626C12.2499 180.784 15.8518 178.449 19.746 176.705C19.445 176.462 19.212 176.268 18.979 176.093C11.2127 170.404 8.47504 162.618 10.0186 153.328C10.9894 147.62 14.5716 143.523 19.1344 140.203C22.6486 137.784 26.4347 135.787 30.415 134.252C32.1504 133.561 33.7088 132.49 34.9755 131.117C36.2423 129.745 37.1852 128.105 37.7348 126.32C39.4793 120.764 40.2961 114.959 40.1521 109.137C39.9604 99.6718 38.624 90.2643 36.1718 81.12C33.9778 72.3246 33.007 63.4516 34.2885 54.5106C36.3369 40.4631 43.2295 29.2699 54.4713 20.6783C67.0917 11.0966 81.6536 6.93188 97.1863 5.51452C99.0211 5.29124 100.963 5.15533 102.904 5H107.331C107.534 5.0837 107.746 5.14553 107.962 5.18445C111.399 5.52423 114.855 5.66985 118.253 6.20379C126.026 7.3033 133.477 10.0397 140.115 14.2323C140.487 14.4949 140.911 14.6735 141.358 14.7556C141.806 14.8378 142.266 14.8215 142.707 14.708C153.842 12.4557 165.035 11.9897 176.238 14.572C187.441 17.1544 196.625 22.7073 203.265 32.1628C211.031 43.094 214.187 55.4037 214.371 68.6065C214.555 81.2268 212.109 93.4103 208.051 105.312C207.663 106.468 207.245 107.613 206.828 108.788C207.313 109.001 207.663 109.147 208.012 109.322C212.866 111.671 216.351 115.146 216.963 120.758C217.478 125.447 218.021 130.155 218.167 134.873C218.283 138.649 217.759 142.445 217.643 146.241C217.575 148.503 218.05 150.59 220.06 152.066C222.069 153.541 223.875 155.114 225.758 156.677C228.668 158.892 231.126 161.643 233.001 164.783C236.039 170.404 235.437 176.151 233.428 181.889C232.339 184.885 230.456 187.529 227.982 189.538C228.36 189.718 228.726 189.923 229.079 190.15C231.107 191.694 233.35 193.062 235.088 194.849C239.262 199.266 240.408 204.78 240.068 210.682C239.955 215.544 238.022 220.186 234.651 223.691C229.904 228.467 223.972 230.545 217.39 230.564C192.606 230.642 167.821 230.564 143.037 230.564C142.27 230.593 141.513 230.743 140.794 231.011C137.746 231.982 134.766 233.244 131.659 234.04C129.137 234.776 126.52 235.139 123.893 235.117C118.388 234.875 113.214 233.127 108.117 231.001C107.447 230.721 106.728 230.572 106.001 230.564C92.2353 230.564 78.4661 230.564 64.6938 230.564C62.7522 230.564 60.898 230.865 59.0049 230.846C50.2678 230.758 41.6374 230.603 32.9585 230.477C26.8133 230.516 20.7293 229.256 15.1056 226.778C7.56249 223.351 2.39786 217.847 0.601893 209.527C0.368902 208.479 0.194159 207.421 0 206.362ZM45.4526 224.526V224.837C47.2292 224.837 49.0154 224.837 50.8017 224.837C54.4422 224.837 58.0827 225.108 61.7134 224.943C64.7302 224.896 67.6543 223.893 70.065 222.079C72.4758 220.265 74.2491 217.733 75.1298 214.847C76.585 210.358 76.8592 205.571 75.9259 200.945C74.7027 194.616 71.1496 190.267 64.8879 188.199C64.3097 188.019 63.8039 187.659 63.4443 187.172C63.0846 186.685 62.8897 186.096 62.8881 185.49C62.9088 184.873 63.1103 184.275 63.4675 183.771C63.8247 183.267 64.322 182.879 64.8977 182.656C66.4195 182.014 67.852 181.179 69.1594 180.17C73.2853 176.607 75.2366 166.443 69.9264 160.851C66.82 157.63 62.9496 155.245 58.6749 153.92C57.9585 153.705 57.2971 153.338 56.7358 152.843C56.1745 152.349 55.7266 151.739 55.4227 151.056C51.5128 143.448 49.9773 134.84 51.0153 126.349C51.6596 120.827 53.3954 115.488 56.1217 110.642C56.394 110.109 56.8125 109.664 57.3282 109.36C57.8439 109.055 58.4356 108.904 59.0341 108.924C62.4804 108.865 65.9267 108.788 69.373 108.623C79.841 108.241 90.2238 106.588 100.293 103.701C109.176 101.041 117.505 97.2644 124.563 91.0804C131.776 84.7799 136.688 77.1495 137.678 67.3736C137.706 66.6251 138.027 65.9176 138.572 65.4036C139.117 64.8896 139.842 64.6104 140.591 64.6262C140.983 64.6259 141.371 64.7049 141.733 64.8585C142.094 65.0121 142.42 65.2371 142.692 65.52C142.964 65.8029 143.176 66.1379 143.316 66.5048C143.455 66.8717 143.519 67.263 143.503 67.6551C143.69 71.4902 144.372 75.2851 145.532 78.9455C148.852 89.5077 155.026 97.7595 165.055 102.827C172.384 106.526 180.248 107.788 188.354 107.875C190.693 107.875 191.46 108.399 192.188 110.623C193.711 115.347 194.673 120.235 195.052 125.184C195.745 133.386 195.115 141.646 193.188 149.648C193.098 149.931 193.089 150.234 193.161 150.522C193.233 150.81 193.383 151.073 193.596 151.28C193.808 151.488 194.074 151.632 194.364 151.697C194.654 151.762 194.956 151.745 195.237 151.648C196.46 151.309 197.654 150.862 197.906 149.318C198.042 148.522 198.382 147.755 198.566 146.969C200.79 137.572 200.702 128.058 199.828 118.525C199.498 114.855 198.518 111.147 200.916 107.768C205.2 97.0239 207.746 85.6658 208.459 74.1206C209.081 65.3145 207.925 56.4732 205.061 48.1227C202.793 41.4116 199.025 35.3059 194.043 30.2698C188.276 24.5906 181.189 21.4356 173.355 19.8823C162.676 17.7854 152.143 18.4552 141.639 20.8531C141.098 20.9918 140.533 21.0053 139.986 20.8926C139.44 20.7799 138.926 20.5439 138.484 20.2027C137.05 19.1313 135.545 18.1583 133.979 17.2903C125.233 12.7664 115.806 11.0869 106.04 10.9413C99.407 10.8689 92.7858 11.5199 86.294 12.8829C75.8288 15.0283 66.1209 18.9212 57.6361 25.5032C47.6757 33.2696 41.6083 43.327 39.9773 55.9473C39.0855 63.5139 39.6256 71.1807 41.5694 78.5474C44.2391 89.3427 46.1807 100.225 45.9089 111.399C45.8166 116.521 45.0894 121.611 43.744 126.553C43.0129 129.562 41.5669 132.349 39.5287 134.68C37.4906 137.01 34.9204 138.815 32.0362 139.941C28.7618 141.332 25.6143 143.004 22.6292 144.94C19.3674 147.027 16.8045 149.891 15.8337 153.803C14.0862 161.434 17.1151 170.812 28.0366 173.918C29.8034 174.423 30.6965 175.355 30.7257 176.831C30.7548 178.306 29.852 179.335 28.0269 179.85C24.0223 180.957 20.2205 182.697 16.7656 185.005C10.7661 189.034 6.56258 194.276 5.94127 201.761C5.31996 209.246 7.76636 215.468 14.2707 219.73C18.7592 222.632 23.9477 224.269 29.2889 224.468C34.6574 224.73 40.0647 224.526 45.4526 224.526ZM193.897 157.667C190.713 157.793 189.392 155.493 187.946 153.454C187.549 152.831 187.284 152.133 187.168 151.403C187.051 150.673 187.084 149.928 187.266 149.212C187.907 145.746 188.693 142.29 189.091 138.805C190.032 130.676 189.433 122.442 187.325 114.535C187.14 113.846 186.81 113.671 186.131 113.564C182.742 113.244 179.335 113.069 175.976 112.428C158.269 109.03 146.25 98.9341 140.338 81.7802C140.231 81.4792 140.086 81.1977 139.921 80.8094C139.775 81.023 139.688 81.1103 139.639 81.2074C135.477 89.2001 129.192 95.8911 121.476 100.546C110.671 107.409 98.7687 110.817 86.4008 112.758C78.1613 114.06 69.8319 114.709 61.4902 114.7C61.2283 114.659 60.9604 114.71 60.732 114.845C60.5036 114.979 60.329 115.189 60.2378 115.438C55.3839 126.194 55.248 136.941 60.364 147.649C60.6174 148.091 60.9956 148.449 61.4513 148.678C63.888 149.93 66.48 150.94 68.7905 152.396C77.1685 157.687 80.2653 164.89 78.4403 174.53C77.739 178.65 75.6411 182.404 72.499 185.16C74.0937 186.579 75.6073 188.086 77.0326 189.674C80.8187 194.324 82.2652 199.8 82.1875 205.712C82.1511 206.094 82.2142 206.479 82.3707 206.829C82.5272 207.18 82.7718 207.484 83.0807 207.712C87.2842 210.944 91.3421 214.381 95.701 217.42C102.225 222.179 109.514 225.791 117.253 228.098C120.087 228.885 122.971 229.807 125.932 229.312C128.844 228.879 131.711 228.177 134.494 227.215C147.114 222.604 157.977 215.041 167.705 205.858C176.18 197.858 182.568 188.306 187.664 177.889C190.752 171.559 192.217 164.676 193.897 157.667ZM153.124 224.788H154.473C175.258 224.788 196.042 224.788 216.837 224.788C218.803 224.776 220.761 224.515 222.662 224.011C227.836 222.623 231.962 219.818 233.505 214.381C234.047 212.326 234.296 210.205 234.243 208.081C234.286 205.958 233.83 203.854 232.913 201.939C231.996 200.024 230.643 198.35 228.962 197.052C226.158 194.95 222.856 193.612 219.38 193.169C218.696 193.103 218.06 192.787 217.593 192.282C217.125 191.778 216.86 191.119 216.847 190.432C216.831 189.754 217.053 189.093 217.473 188.561C217.893 188.03 218.485 187.661 219.147 187.519C219.778 187.335 220.409 187.15 221.04 186.946C228.972 184.316 232.467 170.86 225.525 164.55C222.409 161.715 219.196 158.978 216.031 156.192C215.837 156.396 215.769 156.444 215.74 156.512C215.594 156.949 215.458 157.386 215.313 157.832C214.305 161.31 212.443 164.481 209.896 167.055C206.517 170.239 202.372 171.588 197.867 171.909C197.35 171.876 196.838 172.026 196.421 172.333C196.004 172.641 195.708 173.085 195.586 173.588C194.477 176.725 193.181 179.792 191.703 182.772C185.335 195.237 177.044 206.226 166.132 215.09C161.967 218.468 157.521 221.487 153.104 224.788H153.124ZM205.372 114.506C205.356 114.793 205.356 115.082 205.372 115.37C206.151 121.954 206.378 128.591 206.051 135.213C205.888 140.822 204.927 146.379 203.197 151.716C202.942 152.769 202.421 153.739 201.683 154.532C200.265 155.667 199.916 157.114 199.595 158.716C199.178 160.803 198.625 162.861 198.139 164.939C198.071 165.259 198.042 165.589 197.984 165.977C203.071 165.443 206.779 163.123 208.789 158.424C209.284 157.287 209.709 156.12 210.061 154.93C211.45 149.683 212.206 144.289 212.313 138.863C212.676 132.629 212.212 126.375 210.934 120.263C210.235 117.311 207.935 115.865 205.352 114.506H205.372ZM95.7981 224.72L81.3915 214.265C80.5009 218.162 78.6182 221.764 75.9259 224.72H95.7981Z" fill="#1C1919"/>
<path d="M113.369 177.734H142.92C150.629 177.734 158.34 177.734 166.055 177.734C168.53 177.734 169.608 179.307 168.598 181.569C164.841 189.861 158.499 196.714 150.522 201.101C149.134 201.897 147.804 202.819 146.444 203.664C146.185 203.832 145.9 203.957 145.6 204.033C142.959 204.693 140.319 205.402 137.659 205.974C126.984 208.43 115.835 207.858 105.467 204.324C105.05 204.178 104.496 204.256 104.128 204.11C103.389 203.842 102.672 203.517 101.982 203.14C101.448 202.868 101.011 202.421 100.458 202.169C91.9273 198.004 85.0052 191.147 80.7605 182.656C79.1101 179.404 80.2654 177.608 83.8185 177.666C93.6721 177.802 103.516 177.734 113.369 177.734ZM142.649 182.656H126.98V202.421C127.156 202.466 127.334 202.498 127.514 202.518C132.393 202.296 137.215 201.378 141.833 199.79C142.522 199.557 142.668 199.169 142.668 198.509C142.668 193.975 142.668 189.442 142.668 184.918L142.649 182.656ZM106.341 182.656C106.341 188.17 106.341 193.558 106.341 198.936C106.382 199.122 106.467 199.296 106.589 199.443C106.71 199.589 106.865 199.705 107.04 199.781C108.23 200.218 109.442 200.594 110.671 200.907C114.326 201.87 118.077 202.42 121.854 202.547V182.656H106.341ZM101.429 182.656H86.2552C89.8703 188.831 95.1213 193.887 101.429 197.266V182.656ZM147.561 197.218C153.842 193.852 159.067 188.812 162.657 182.656H147.561V197.218Z" fill="#1C1919"/>
<path d="M96.1669 133.737C94.5845 139.64 91.6333 142.135 86.5852 141.911C82.5661 141.746 79.4401 138.63 78.5179 133.737H69.1691C67.1207 133.737 65.849 132.621 65.8393 130.825C65.8296 129.029 67.0431 127.912 69.1206 127.912C76.8869 127.912 84.6533 127.815 92.4973 127.806C96.7979 127.806 101.108 127.874 105.409 127.912C106.181 127.912 106.922 128.219 107.468 128.765C108.014 129.312 108.321 130.052 108.321 130.825C108.321 131.597 108.014 132.338 107.468 132.884C106.922 133.43 106.181 133.737 105.409 133.737C103.856 133.737 102.302 133.737 100.759 133.737H96.1669Z" fill="#1C1919"/>
<path d="M170.346 133.737C169.219 138.989 166.142 141.902 161.744 141.999C157.162 142.096 154.201 139.426 152.667 133.737H151.444C148.687 133.737 145.94 133.737 143.183 133.737C142.457 133.754 141.754 133.487 141.221 132.994C140.689 132.502 140.369 131.821 140.329 131.097C140.254 130.375 140.458 129.652 140.898 129.075C141.338 128.498 141.981 128.11 142.697 127.99C143.002 127.939 143.311 127.916 143.62 127.922H179.675C180.394 127.846 181.118 128.03 181.713 128.441C182.308 128.853 182.735 129.465 182.917 130.165C183.031 130.599 183.041 131.055 182.945 131.493C182.85 131.932 182.652 132.343 182.368 132.691C182.085 133.039 181.723 133.315 181.312 133.497C180.901 133.679 180.453 133.761 180.005 133.737C177.209 133.737 174.423 133.737 171.627 133.737H170.346Z" fill="#1C1919"/>
</svg>
