<svg width="240" height="240" viewBox="0 0 240 240" fill="none" xmlns="http://www.w3.org/2000/svg">
<path d="M119.37 237.043C117.227 236.658 114.998 236.336 112.844 235.875C104.12 234.032 96.1251 230.378 88.4196 226.005C77.7134 219.95 67.9288 212.705 60.0412 203.21C57.0297 199.609 54.3933 195.708 51.5855 191.904C51.3509 191.514 51.0184 191.193 50.621 190.971C50.8675 193.243 51.0925 195.515 51.3605 197.777C51.6284 200.038 51.9499 202.278 52.2178 204.528C52.3532 205.279 52.2173 206.053 51.8345 206.713C51.4517 207.372 50.8468 207.874 50.128 208.129C49.4142 208.391 48.6307 208.392 47.9165 208.131C47.2023 207.87 46.6037 207.364 46.227 206.704C42.2189 200.624 38.2215 194.551 34.2348 188.485L33.1845 186.985C32.4665 189.707 31.8128 192.172 31.1697 194.637C30.4624 197.326 29.7765 199.995 29.0799 202.717C28.9716 203.423 28.6316 204.072 28.1135 204.563C27.5954 205.054 26.9288 205.358 26.2185 205.428C25.4908 205.527 24.7517 205.366 24.1306 204.974C23.5095 204.582 23.046 203.984 22.8212 203.285C20.6136 198.227 18.438 193.147 16.2518 188.088C16.0803 187.703 15.9088 187.328 15.6516 186.781C13.2082 190.628 10.8611 194.283 8.52485 197.991C7.72108 199.256 6.93874 200.531 6.11354 201.785C5.74112 202.462 5.14051 202.986 4.41844 203.263C3.69637 203.539 2.8996 203.551 2.1697 203.296C1.46984 203.055 0.874431 202.58 0.483949 201.952C0.0934679 201.323 -0.0681696 200.579 0.0263161 199.845C0.43356 193.736 0.797936 187.617 1.37665 181.519C2.18399 173.217 3.09136 164.915 4.09875 156.613C5.82418 142.113 8.17119 127.677 11.0433 113.391C13.9692 98.2591 17.8566 83.3288 22.6819 68.6911C27.3116 54.9412 32.8952 41.6308 40.965 29.4456C41.5617 28.4236 42.3726 27.5428 43.342 26.8639C44.3114 26.1849 45.4162 25.7239 46.5807 25.5125C47.9724 25.3265 49.3855 25.3773 50.7603 25.6625C50.9285 25.7283 51.1079 25.7603 51.2884 25.7565C51.469 25.7528 51.647 25.7134 51.8122 25.6408C51.9775 25.5681 52.1268 25.4635 52.2516 25.333C52.3764 25.2025 52.4741 25.0486 52.5393 24.8802C57.376 15.9689 65.2984 9.12874 74.8198 5.64331C82.1098 3.09674 89.8593 2.1358 97.5505 2.82475C104.948 3.38508 112.238 4.92387 119.231 7.40088C119.919 7.54761 120.636 7.48414 121.288 7.2187C130.686 3.85328 140.648 2.3464 150.621 2.78188C162.677 3.45705 173.298 7.55092 181.486 16.7139C183.632 19.3253 185.615 22.067 187.423 24.9231C187.884 25.609 188.173 25.9412 189.105 25.6947C190.946 25.1203 192.927 25.1882 194.724 25.8872C196.522 26.5862 198.028 27.8749 198.997 29.5421C206.252 40.4091 211.461 52.2513 215.823 64.5007C221.706 81.2574 226.232 98.4599 229.358 115.942C231.802 129.252 234.031 142.606 235.724 156.023C237.471 169.773 238.457 183.63 239.786 197.444C239.838 197.773 239.909 198.099 240 198.42V200.992C238.157 204.303 235.51 204.357 233.463 201.131C230.648 196.68 227.826 192.232 224.996 187.788C224.803 187.488 224.568 187.199 224.268 186.77C223.967 187.424 223.732 187.906 223.517 188.41L217.291 202.91C216.498 204.732 215.405 205.504 213.808 205.386C212.211 205.268 211.332 204.314 210.839 202.492C210.089 199.634 209.346 196.776 208.61 193.919C208.021 191.668 207.421 189.417 206.767 186.931C206.242 187.724 205.845 188.281 205.481 188.849L194.003 206.404C192.931 208.108 191.484 208.708 189.898 208.161C188.312 207.615 187.594 206.2 187.841 204.207C188.13 201.817 188.452 199.448 188.73 197.069C188.977 195.022 189.17 192.975 189.416 190.639C187.198 193.747 185.269 196.608 183.179 199.363C174.605 210.583 163.803 219.125 151.585 226.016C143.88 230.378 135.896 234.053 127.183 235.897C125.039 236.358 122.832 236.668 120.667 237.054L119.37 237.043ZM185.14 79.5044L183.886 79.5687L156.226 81.9586C146.42 82.7945 136.603 83.6519 126.786 84.4771C124.24 84.8186 121.671 84.9584 119.102 84.8951C109.628 84.2092 100.155 83.3197 90.6809 82.5052L64.6923 80.2332L55.1114 79.4401C54.9828 79.8688 54.8756 80.201 54.7899 80.5118C51.1155 94.6142 48.9846 109.074 48.4347 123.637C47.9953 133.389 48.0275 143.163 48.0275 152.926C48.0275 159.86 48.1775 166.858 50.4281 173.492C51.4355 176.493 51.982 179.729 53.4717 182.462C60.8408 196.256 71.6548 207.908 84.8616 216.285C92.9422 221.418 101.269 226.059 110.582 228.663C114.955 229.885 119.349 230.881 123.989 229.981C131.332 228.443 138.411 225.843 145.005 222.265C161.777 213.509 175.548 201.538 185.129 185.023C188.677 178.711 190.802 171.699 191.356 164.479C192.181 155.327 192.01 146.078 191.988 136.872C191.995 123.76 190.92 110.669 188.773 97.734C187.755 91.6039 186.372 85.6024 185.14 79.483V79.5044ZM232.498 187.617C232.527 187.06 232.527 186.502 232.498 185.945C231.212 174.156 230.226 162.368 228.533 150.579C226.604 137.194 224.246 123.862 221.695 110.584C218.453 93.6392 213.733 77.0109 207.592 60.8891C204.001 51.1617 199.328 41.8689 193.66 33.1858C192.717 31.7819 192.17 31.5997 190.52 32.0177C179.405 34.8546 168.501 38.4606 157.887 42.8097C154.918 44.0314 151.982 45.3281 149.035 46.5927C148.455 46.8855 147.799 46.9901 147.157 46.8921C146.516 46.7942 145.921 46.4984 145.455 46.0462C144.986 45.6737 144.652 45.1573 144.504 44.5763C144.357 43.9954 144.405 43.3822 144.641 42.8311C145.103 41.9025 145.856 41.1501 146.784 40.6877C156.746 36.1299 167.004 32.2487 177.488 29.0705L181.561 27.8381C181.389 27.5059 181.314 27.313 181.207 27.1415C174.777 16.4888 165.131 10.8303 152.85 9.53356C142.24 8.46186 132.027 10.3266 122.092 13.9597C120.739 14.495 119.233 14.495 117.881 13.9597C107.924 10.1551 97.7219 8.32254 87.1122 9.41567C77.9277 10.3588 69.9115 13.8203 63.5349 20.6577C61.5454 22.7639 59.828 25.1114 58.4229 27.6452C62.8383 29.0705 67.1679 30.2815 71.3583 31.8569C78.6887 34.6219 85.9226 37.6119 93.1887 40.5055C93.79 40.6826 94.3264 41.0315 94.7319 41.5094C95.1375 41.9873 95.3945 42.5734 95.4714 43.1955C95.7714 46.0569 93.328 47.6216 90.4558 46.3462C77.8593 40.672 64.8198 36.0375 51.4676 32.4892C47.1808 31.3532 47.5131 31.2568 45.1339 34.9756C38.2965 45.6925 33.4203 57.3204 29.3479 69.2698C20.142 96.3408 14.9229 124.301 11.1291 152.551C9.67156 163.236 8.72847 173.953 7.52817 184.638C7.44244 185.474 7.44244 186.32 7.41029 187.167C7.74557 186.967 8.02266 186.682 8.21406 186.342C9.8859 183.705 11.5792 181.069 13.2296 178.422C13.5324 177.824 14.0083 177.332 14.5952 177.009C15.1821 176.686 15.8528 176.547 16.5197 176.611C17.1635 176.669 17.7748 176.92 18.2738 177.331C18.7728 177.742 19.1363 178.294 19.3168 178.915C19.6276 179.708 19.992 180.49 20.3242 181.273C21.8674 184.841 23.4107 188.399 25.0397 192.182C25.2218 191.604 25.3397 191.25 25.4362 190.907C26.5079 186.931 27.526 182.955 28.5119 178.968C28.9085 177.382 29.5836 176.15 31.3412 175.882C33.0988 175.614 34.0633 176.503 34.9207 177.843C37.6749 182.13 40.4613 186.299 43.237 190.521C43.4192 190.8 43.6443 191.057 44.0729 191.593C43.8264 188.753 43.5371 186.331 43.3978 183.898C42.7226 172.913 41.8652 161.939 41.4902 150.944C41.0846 138.479 41.4676 126.001 42.6369 113.584C43.5863 102.059 45.5007 90.6344 48.3597 79.4294C50.192 71.803 52.9903 64.4418 56.6868 57.524C58.23 54.7912 59.366 54.4268 62.2703 55.5521C81.175 62.8682 100.08 70.1628 118.984 77.4361C119.679 77.6745 120.433 77.6745 121.128 77.4361C134.467 72.3205 147.799 67.18 161.123 62.0144C166.839 59.7996 172.587 57.5812 178.367 55.3592C178.749 55.1562 179.169 55.0326 179.6 54.9957C180.032 54.9589 180.466 55.0095 180.877 55.1446C181.289 55.2797 181.668 55.4965 181.994 55.782C182.319 56.0675 182.584 56.4158 182.772 56.806C183.093 57.3097 183.393 57.8777 183.682 58.3492C187.637 66.16 190.579 74.4431 192.438 82.9982C195.848 97.6026 197.772 112.514 198.183 127.506C198.483 136.411 198.515 145.328 198.333 154.234C198.172 161.928 197.593 169.623 197.1 177.318C196.789 182.055 196.296 186.781 195.868 191.797C196.275 191.229 196.543 190.853 196.789 190.478C199.604 186.192 202.426 181.905 205.256 177.618C205.58 177.034 206.078 176.565 206.681 176.276C207.284 175.988 207.962 175.895 208.621 176.01C209.284 176.117 209.896 176.429 210.373 176.902C210.85 177.375 211.166 177.985 211.279 178.647C211.997 181.551 212.768 184.445 213.529 187.338C213.947 188.903 214.376 190.468 214.869 192.322C215.115 191.764 215.222 191.539 215.33 191.304C217.13 187.145 218.898 182.966 220.688 178.818C220.895 178.253 221.256 177.758 221.731 177.388C222.206 177.018 222.775 176.789 223.373 176.726C223.971 176.664 224.575 176.77 225.116 177.034C225.657 177.298 226.113 177.708 226.432 178.218C226.732 178.636 226.99 179.076 227.268 179.515L232.498 187.617ZM137.932 77.8648L137.996 78.1005L183.468 74.1996L178.592 62.143L137.932 77.8648ZM61.3701 62.1216L56.4939 74.1781L102.009 78.0791V77.8433L61.3701 62.1216Z" fill="#1C1919"/>
<path d="M118.427 178.111H140.933C148.981 178.111 157.008 178.111 165.089 178.197C167.232 178.197 168.304 180.105 167.425 182.152C165.492 186.702 162.775 190.877 159.398 194.487C155.256 199.027 150.288 202.737 144.759 205.418C144.233 205.743 143.728 206.101 143.247 206.49C142.817 206.83 142.336 207.102 141.822 207.294C139.4 207.926 136.967 208.494 134.545 209.073C122.171 212.17 109.167 211.634 97.0896 207.529C96.618 207.369 96.0822 207.433 95.5999 207.315C94.9429 207.187 94.3053 206.975 93.703 206.683C92.7599 206.158 91.9347 205.397 90.9702 204.893C81.6762 200.189 74.1946 192.549 69.6864 183.159C69.4623 182.697 69.269 182.221 69.1077 181.734C68.9634 181.351 68.9102 180.94 68.9522 180.533C68.9942 180.126 69.1303 179.735 69.3496 179.39C69.569 179.045 69.8656 178.755 70.2161 178.545C70.5665 178.334 70.9612 178.208 71.3689 178.176C71.6686 178.154 71.9695 178.154 72.2692 178.176H118.406L118.427 178.111ZM121.224 183.598V205.622C126.949 205.44 132.61 204.355 137.996 202.407C138.178 202.266 138.326 202.086 138.428 201.88C138.531 201.674 138.584 201.447 138.586 201.217C138.586 195.612 138.586 189.996 138.586 184.381C138.573 184.122 138.54 183.864 138.489 183.609L121.224 183.598ZM115.469 205.59V183.609H98.0648C98.0648 189.664 98.0648 195.612 98.0648 201.549C98.0648 201.881 98.59 202.374 98.9758 202.514C104.286 204.37 109.847 205.407 115.469 205.59ZM160.598 183.609H144.019V199.545C148.992 197.938 158.39 188.86 160.598 183.609ZM92.6528 199.685V183.609H75.9451C79.9419 190.398 85.7197 195.965 92.6528 199.706V199.685Z" fill="#1C1919"/>
<path d="M170.704 138.662C168.561 145.371 165.496 148.018 160.255 147.782C155.658 147.59 152.325 144.31 151.114 138.727C150.685 138.727 150.224 138.662 149.774 138.662C146.816 138.662 143.858 138.662 140.901 138.662C140.456 138.7 140.009 138.644 139.588 138.499C139.166 138.354 138.779 138.123 138.452 137.821C138.124 137.519 137.863 137.151 137.685 136.743C137.507 136.334 137.416 135.893 137.417 135.447C137.434 134.583 137.792 133.761 138.412 133.159C139.032 132.556 139.865 132.224 140.729 132.232C140.986 132.232 141.243 132.232 141.501 132.232C150.074 132.232 158.551 132.157 167.082 132.146C171.712 132.146 176.356 132.175 181.014 132.232C183.672 132.232 185.301 134.258 184.497 136.519C184.278 137.197 183.833 137.78 183.236 138.17C182.639 138.56 181.927 138.734 181.218 138.662C177.702 138.673 174.23 138.662 170.704 138.662Z" fill="#1C1919"/>
<path d="M88.9127 138.662C87.1229 144.942 83.9186 147.846 78.9674 147.793C74.0161 147.739 70.7796 144.578 69.3221 138.662H60.5021C59.7733 138.662 59.0446 138.662 58.3587 138.662C57.5842 138.561 56.8729 138.182 56.3575 137.596C55.8421 137.009 55.5578 136.255 55.5578 135.474C55.5578 134.693 55.8421 133.939 56.3575 133.352C56.8729 132.765 57.5842 132.386 58.3587 132.285C58.6156 132.269 58.8734 132.269 59.1303 132.285C68.0754 132.285 77.0276 132.257 85.9869 132.2C90.4023 132.2 94.8177 132.2 99.2224 132.285C99.9357 132.255 100.639 132.463 101.221 132.876C101.803 133.289 102.231 133.885 102.437 134.568C102.651 135.205 102.646 135.895 102.425 136.529C102.204 137.163 101.779 137.706 101.216 138.073C100.469 138.468 99.6385 138.678 98.7937 138.683C95.4822 138.694 92.1921 138.662 88.9127 138.662Z" fill="#1C1919"/>
</svg>
