<svg width="240" height="241" viewBox="0 0 240 241" fill="none" xmlns="http://www.w3.org/2000/svg">
<path d="M120.685 0C122.744 0.494102 124.803 1.02938 126.861 1.46172C147.109 5.69247 165.978 13.3511 182.355 26.0433C197.425 37.7062 207.359 52.9101 211.044 71.7993C213.268 83.4259 212.026 95.4496 207.472 106.376C207.359 106.675 207.235 106.973 207.071 107.406C207.328 107.498 207.534 107.611 207.75 107.663C213.216 109.145 216.418 112.594 217.395 118.265C218.793 126.75 219.076 135.38 218.24 143.938C217.894 149.574 216.704 155.126 214.709 160.408C211.672 167.923 206.011 171.989 198.064 172.761C197.208 172.729 196.368 173.003 195.695 173.532C195.022 174.062 194.559 174.814 194.389 175.653C191.301 184.856 186.246 193.06 180.472 200.77C168.297 217.07 151.817 229.651 132.883 237.097C128.853 238.779 124.57 239.778 120.212 240.051C118.173 239.992 116.152 239.663 114.2 239.074C105.368 237.169 97.483 233.103 89.845 228.409C71.5388 217.235 56.9089 200.941 47.7639 181.541C46.6368 179.032 45.6404 176.465 44.7787 173.852C44.719 173.524 44.5418 173.229 44.2803 173.023C44.0188 172.816 43.6909 172.712 43.3581 172.73C38.2112 172.37 33.4864 170.99 29.688 167.295C26.3631 164.052 24.6543 159.945 23.5117 155.56C22.2314 150.58 21.4657 145.482 21.2265 140.346C21.1758 139.957 21.1002 139.572 21 139.193L21 128.58C21.0721 128.23 21.1647 127.88 21.2162 127.551C21.7206 123.845 22.122 120.129 22.7602 116.454C23.0463 114.78 23.7395 113.202 24.7789 111.86C25.8182 110.517 27.1718 109.45 28.7204 108.754C29.9556 108.136 31.2835 107.725 32.5599 107.189C32.5702 107.111 32.5702 107.031 32.5599 106.953C32.4467 106.644 32.3129 106.345 32.1894 106.036C27.8201 95.4329 26.5425 83.809 28.5042 72.5095C31.5923 54.866 40.445 40.2899 53.8166 28.7918C70.2353 14.6584 89.7729 6.4851 110.793 1.72936C113.582 1.10144 116.403 0.576453 119.203 0H120.685ZM48.1242 163.167C49.5241 168.551 50.8623 173.79 53.2196 178.69C61.6648 196.626 75.0849 211.757 91.8831 222.284C98.7903 226.628 105.883 230.591 113.881 232.578C116.444 233.206 119.223 233.906 121.745 233.535C125.643 232.959 129.449 231.88 133.069 230.324C148.437 223.827 162.001 213.7 172.597 200.811C181.017 190.518 187.718 179.195 190.93 166.121C191.146 165.267 191.362 164.402 191.609 163.383C186.854 164.618 182.582 163.527 178.433 161.644C177.698 161.359 177.065 160.859 176.619 160.209C176.172 159.558 175.933 158.788 175.932 158C175.902 157.235 176.095 156.479 176.486 155.821C176.876 155.163 177.449 154.633 178.135 154.294C179.618 153.418 181.033 152.431 182.366 151.339C183.419 150.546 184.269 149.513 184.845 148.326C185.422 147.14 185.708 145.833 185.68 144.515C185.598 141.684 185.917 138.853 186.03 136.012C186.648 120.914 187.252 105.817 187.842 90.7193C187.965 87.6311 188.089 84.543 188.233 81.146L183.323 86.0871L173.204 96.2059C172.656 96.8035 171.934 97.2143 171.14 97.3805C170.346 97.5466 169.52 97.4599 168.778 97.1323C168.015 96.8566 167.361 96.342 166.914 95.665C166.467 94.9881 166.251 94.185 166.297 93.3751C166.194 89.4566 166.108 85.5346 166.04 81.6093C166.04 79.8799 165.906 78.1608 165.834 76.4624C165.413 76.8981 165.066 77.3986 164.804 77.9447C161.373 84.1209 157.959 90.2629 154.562 96.3706C154.192 97.2048 153.549 97.8884 152.739 98.3093C151.929 98.7301 151 98.8632 150.105 98.6867C149.216 98.4944 148.416 98.0135 147.83 97.319C147.243 96.6244 146.903 95.7553 146.862 94.8471C146.554 92.2736 146.204 89.7002 145.833 87.1473C145.339 83.3386 144.804 79.5402 144.299 75.4021C143.959 76.0609 143.774 76.4315 143.609 76.7712C139.327 85.9601 135.052 95.1559 130.783 104.359C130.459 105.189 129.866 105.888 129.1 106.345C128.334 106.801 127.438 106.99 126.553 106.881C125.708 106.786 124.916 106.421 124.295 105.841C123.674 105.26 123.256 104.495 123.104 103.659C122.62 101.837 122.147 100.004 121.673 98.1823C121.097 96.0103 120.531 93.8383 119.882 91.3884C119.687 91.9442 119.584 92.2119 119.512 92.4795C118.578 96.0823 117.652 99.692 116.732 103.309C116.594 104.167 116.181 104.957 115.556 105.56C114.93 106.163 114.126 106.547 113.263 106.654C112.357 106.793 111.431 106.613 110.644 106.143C109.857 105.673 109.258 104.944 108.95 104.081C104.689 94.9192 100.42 85.7611 96.1448 76.6065C95.9801 76.2462 95.7948 75.9168 95.5168 75.3712C95.4228 75.6298 95.3472 75.8946 95.2904 76.1638C94.6041 81.5098 93.9179 86.8488 93.2316 92.181C93.1184 93.0766 93.0051 93.9721 92.861 94.8677C92.8056 95.736 92.463 96.5612 91.8872 97.2134C91.3113 97.8656 90.535 98.3079 89.6803 98.4705C88.7835 98.6628 87.8479 98.5406 87.0306 98.1245C86.2133 97.7083 85.5642 97.0236 85.1922 96.1853L74.7645 77.3373C74.5484 76.9462 74.3013 76.5653 74.0646 76.1844C73.7352 81.774 73.6116 87.24 73.5293 92.6545C73.603 93.5229 73.4049 94.3926 72.9622 95.1433C72.5195 95.894 71.8543 96.4884 71.0588 96.8441C69.4118 97.5852 67.8059 97.1529 66.2721 95.6294L52.6637 82.0622C52.3652 81.7637 52.0564 81.4857 51.5829 81.0328C51.5829 81.5578 51.5829 81.7946 51.5829 82.0622C51.8437 88.5885 52.101 95.1079 52.3549 101.62C52.9314 115.867 53.549 130.114 54.0534 144.36C54.0479 145.512 54.2842 146.653 54.747 147.708C55.2097 148.763 55.8888 149.709 56.7401 150.485C58.2145 151.788 59.8027 152.956 61.4855 153.975C62.1964 154.308 62.797 154.839 63.2165 155.502C63.636 156.166 63.8569 156.936 63.8531 157.722C63.8368 158.553 63.5695 159.359 63.0863 160.035C62.6031 160.711 61.9267 161.225 61.1458 161.51C57.0283 163.352 52.7976 164.371 48.1242 163.167ZM57.0283 157.639C55.3813 156.136 53.7446 154.829 52.3343 153.306C50.4404 151.439 49.2883 148.948 49.0918 146.296C48.6183 135.315 48.1516 124.353 47.6918 113.407C47.2183 101.837 46.7345 90.2561 46.3433 78.6755C46.3264 77.5403 46.6647 76.4282 47.311 75.4947C48.7727 73.5286 51.48 73.5904 53.3637 75.4947C58.0302 80.1132 62.683 84.7557 67.3221 89.4223C67.6206 89.7208 67.9294 89.9987 68.3515 90.4002C68.3515 89.9884 68.4133 89.8237 68.4133 89.659C68.5574 83.7504 68.6706 77.8314 68.8456 71.9125C68.8704 71.136 69.0525 70.3726 69.3809 69.6684C69.6848 69.0359 70.1653 68.5049 70.7645 68.1395C71.3636 67.7742 72.0558 67.5902 72.7572 67.6097C73.5232 67.5641 74.2854 67.7473 74.9471 68.1358C75.6087 68.5244 76.14 69.1008 76.4733 69.792L87.3847 89.4737C87.6009 89.8752 87.848 90.2561 88.2391 90.9149C89.1244 84.0592 89.9788 77.5844 90.8023 71.1096C91.0802 68.8964 92.1919 67.4759 94.0448 67.1465C96.1036 66.7759 97.6888 67.6817 98.6667 69.7714L109.815 93.7765L112.399 99.3249C112.574 98.6764 112.687 98.2955 112.79 97.9146C114.258 92.2736 115.734 86.6326 117.216 80.9916C117.308 80.3952 117.611 79.8517 118.07 79.4604C118.529 79.0692 119.114 78.8563 119.718 78.8608C120.407 78.8707 121.071 79.1225 121.594 79.5721C122.117 80.0217 122.466 80.6407 122.579 81.321C123.701 85.5621 124.782 89.8237 125.894 94.0751C126.336 95.7941 126.81 97.5132 127.335 99.4896L127.911 98.3367L141.098 69.967C141.399 69.0824 142.004 68.3329 142.804 67.8507C143.605 67.3685 144.55 67.1847 145.473 67.3318C146.384 67.4277 147.23 67.849 147.856 68.5183C148.482 69.1876 148.845 70.0601 148.88 70.9758C149.703 77.152 150.486 83.3283 151.289 89.4325C151.34 89.8752 151.443 90.3178 151.577 91.0384C151.947 90.4105 152.153 90.009 152.349 89.7105C155.979 83.1705 159.609 76.6511 163.24 70.1523C163.623 69.2991 164.293 68.6078 165.135 68.1994C165.976 67.791 166.934 67.6916 167.841 67.9185C168.741 68.1076 169.545 68.6093 170.111 69.3348C170.676 70.0603 170.966 70.9626 170.929 71.8816C171.053 75.3712 171.125 78.8608 171.176 82.3607C171.176 85.0474 171.176 87.7444 171.176 90.4413L171.897 90.8737C172.042 90.4439 172.25 90.038 172.514 89.6693C177.051 85.092 181.611 80.5216 186.195 75.958C187.811 74.3418 189.365 73.8992 191.074 74.6609C192.783 75.4227 193.565 76.8535 193.473 79.0873C193.421 80.3637 193.349 81.6299 193.298 82.9063C192.937 92.1707 192.598 101.435 192.268 110.627C191.805 121.951 191.239 133.367 190.889 144.741C190.894 148.181 189.549 151.486 187.142 153.944C185.804 155.313 184.291 156.507 182.777 157.855C185.248 158.741 187.739 159.286 190.302 158.38C191.084 158.14 191.771 157.661 192.268 157.011C192.958 155.941 193.469 154.766 193.781 153.532C194.811 149.507 195.84 145.493 196.478 141.416C197.938 131.117 198.777 120.739 198.99 110.339C199.006 109.98 199.101 109.628 199.268 109.31C205.524 98.1967 207.563 85.2004 205.012 72.7051C201.811 56.0909 193.051 42.5443 179.998 32.0961C163.106 18.5288 143.558 10.8394 122.466 6.91743C121.204 6.56905 119.891 6.44022 118.585 6.53656C103.52 9.01569 88.9865 14.0423 75.6086 21.4008C66.8074 26.2698 58.4283 31.6946 51.7476 39.4459C41.8038 50.9646 34.8966 63.8216 33.9496 79.3138C33.2203 89.5448 35.4539 99.7694 40.3832 108.764C40.6502 109.268 40.808 109.822 40.8465 110.391C41.567 119.851 42.092 129.331 43.0287 138.771C43.6155 144.628 44.4905 150.495 47.1463 155.92C47.3933 156.479 47.7617 156.976 48.2246 157.375C48.6875 157.774 49.2334 158.064 49.8226 158.226C52.2726 159.039 54.6504 158.422 57.0283 157.639ZM34.4849 113.376C33.1088 113.376 31.7758 113.856 30.7159 114.734C29.656 115.611 28.9357 116.831 28.6792 118.183C26.4955 129.509 26.632 141.159 29.0806 152.431C29.8321 156.033 30.9644 159.513 33.4761 162.344C35.7813 164.795 38.9387 166.268 42.2979 166.461C40.4862 157.619 38.3142 148.962 37.0172 140.119C35.7201 131.277 35.2981 122.27 34.4849 113.345V113.376ZM204.878 113.376C204.681 131.359 202.039 149.231 197.024 166.502C199.297 166.507 201.527 165.89 203.474 164.718C205.421 163.545 207.01 161.863 208.069 159.852C208.87 158.373 209.506 156.809 209.963 155.189C213.019 143.254 213.413 130.792 211.116 118.688C210.55 115.435 208.697 113.932 204.878 113.397V113.376Z" fill="#1C1919"/>
<path d="M138.957 193.74C132.78 193.74 126.707 193.74 120.582 193.74C107.543 193.692 94.4772 193.627 81.3834 193.544C80.9728 193.575 80.5601 193.523 80.1698 193.392C79.7794 193.261 79.4192 193.053 79.1103 192.781C78.8015 192.508 78.5502 192.177 78.3714 191.806C78.1925 191.435 78.0897 191.032 78.0688 190.621C78.0506 190.195 78.1194 189.769 78.271 189.371C78.4225 188.972 78.6537 188.609 78.9504 188.302C79.247 187.996 79.603 187.754 79.9965 187.589C80.3901 187.425 80.8129 187.343 81.2393 187.347C81.6099 187.347 81.9805 187.347 82.3511 187.347C94.5595 187.347 106.778 187.347 118.987 187.347C132.026 187.389 145.092 187.454 158.186 187.543C160.327 187.543 161.665 188.788 161.644 190.703C161.624 192.618 160.285 193.709 158.196 193.719L138.957 193.74Z" fill="#1C1919"/>
<path d="M158.783 126.233H177.888C179.823 126.233 181.1 127.149 181.377 128.683C181.473 129.146 181.461 129.625 181.341 130.083C181.222 130.542 180.999 130.966 180.69 131.324C180.38 131.682 179.993 131.965 179.557 132.149C179.121 132.334 178.649 132.415 178.176 132.388C175.211 132.388 172.257 132.388 169.293 132.388C168.346 132.388 167.913 132.533 167.707 133.644C167.26 135.734 166.104 137.606 164.434 138.941C162.765 140.276 160.686 140.992 158.548 140.969C156.411 140.946 154.347 140.185 152.707 138.814C151.067 137.444 149.951 135.548 149.549 133.449C149.395 132.615 149.076 132.419 148.273 132.419C145.277 132.419 142.271 132.419 139.276 132.419C138.631 132.439 137.998 132.249 137.47 131.878C136.943 131.507 136.551 130.974 136.352 130.361C136.126 129.781 136.093 129.143 136.26 128.543C136.427 127.944 136.785 127.415 137.279 127.036C138.036 126.569 138.902 126.31 139.79 126.284C146.121 126.212 152.452 126.233 158.783 126.233Z" fill="#1C1919"/>
<path d="M71.7176 132.245H61.5473C60.9469 132.281 60.3491 132.139 59.8302 131.834C59.3113 131.53 58.8949 131.078 58.6341 130.536C58.3676 130.044 58.2473 129.486 58.2874 128.928C58.3275 128.37 58.5264 127.835 58.8606 127.386C59.203 126.922 59.6603 126.556 60.1874 126.323C60.7145 126.09 61.2932 125.999 61.8664 126.058C72.2082 126.058 82.5569 126.058 92.9125 126.058C95.3316 126.058 97.7609 126.058 100.18 126.058C102.239 126.058 103.546 127.273 103.536 129.146C103.525 131.02 102.208 132.234 100.118 132.234C96.9271 132.234 93.7257 132.234 90.4214 132.234C90.2979 133.629 89.8754 134.981 89.1826 136.197C88.4899 137.414 87.5431 138.467 86.4068 139.286C84.7506 140.474 82.7401 141.066 80.7041 140.963C76.2057 140.819 73.1587 137.937 71.7176 132.245Z" fill="#1C1919"/>
</svg>
