<svg width="240" height="240" viewBox="0 0 240 240" fill="none" xmlns="http://www.w3.org/2000/svg">
<path d="M114.385 0H124.321C124.566 0.0901141 124.821 0.152921 125.08 0.187284C131.759 0.416845 138.405 1.23153 144.942 2.62198C158.505 5.51996 171.024 10.8428 181.965 19.5367C189.306 25.2328 195.407 32.367 199.895 40.5027C200.536 41.637 200.875 42.9163 200.881 44.2188C200.881 57.9399 200.881 71.6609 200.881 85.382C200.892 86.2318 201.116 87.0654 201.531 87.8068C203.558 91.2442 206.109 94.3438 209.092 96.9936C216.346 103.465 224.689 108.601 233.735 112.164C235.706 112.972 236.356 114.007 236.051 115.998C235.079 122.958 232.936 129.704 229.713 135.949C225.366 144.15 219.304 150.626 210.896 154.756C210.127 155.131 209.348 155.476 208.56 155.83C209.052 159.911 209.545 163.894 210.009 167.886C211.162 177.388 212.345 186.89 213.449 196.392C213.666 198.176 214.079 200.108 213.626 201.755C211.302 210.161 207.558 218.108 202.557 225.254C198.877 230.733 194.231 235.496 188.845 239.31C188.362 239.692 187.776 239.922 187.162 239.971C186.548 240.02 185.933 239.886 185.395 239.586C184.898 239.298 184.495 238.872 184.236 238.359C183.977 237.846 183.873 237.269 183.937 236.698C183.937 233.425 183.937 230.153 183.986 226.841C183.986 221.094 184.084 215.338 184.094 209.581C184.094 198.364 184.094 187.156 184.094 176.067C183.99 176.168 183.898 176.281 183.818 176.402C175.988 188.618 165.553 198.952 153.261 206.663C145.08 211.858 136.613 216.442 127.081 218.62C124.419 219.32 121.681 219.688 118.929 219.714C114.154 219.477 109.46 218.385 105.07 216.491C84.7153 208.191 67.8203 195.545 55.6961 176.954C55.4693 176.609 55.2229 176.294 54.9075 175.86C54.8633 176.035 54.8336 176.213 54.8188 176.392C54.8911 186.795 54.9666 197.197 55.0455 207.6C55.1046 217.22 55.1441 226.841 55.2131 236.461C55.2973 237.071 55.1967 237.692 54.9243 238.243C54.6519 238.795 54.2203 239.253 53.6852 239.556C53.1306 239.878 52.4865 240.01 51.85 239.934C51.2136 239.857 50.6192 239.576 50.1564 239.133C47.4595 237.035 44.8797 234.79 42.4284 232.41C34.1485 223.647 28.8651 213.169 25.4447 201.686C25.2547 201.006 25.2011 200.296 25.287 199.596C26.1676 192.164 27.0646 184.731 27.978 177.299C28.7928 170.498 29.6208 163.696 30.462 156.895C30.5093 156.731 30.523 156.56 30.5022 156.39C30.4813 156.221 30.4264 156.058 30.3407 155.911C30.2551 155.763 30.1404 155.635 30.0037 155.533C29.8669 155.431 29.711 155.358 29.5452 155.318C24.6893 153.215 20.3251 150.123 16.7311 146.24C11.0116 140.04 6.94386 132.501 4.90257 124.317C4.15343 121.557 3.63101 118.728 3.01001 115.929V114.273C3.65753 113.14 4.71652 112.3 5.96713 111.927C12.8385 109.161 19.3226 105.516 25.2574 101.084C30.1268 97.3977 34.5034 93.1986 37.6182 87.8857C38.0656 87.1155 38.3066 86.243 38.318 85.3524C38.318 72.8635 38.5349 60.3549 38.249 47.8955C38.0776 43.6792 39.358 39.5318 41.8764 36.1459L41.9454 36.0572C50.3141 23.4204 61.8173 14.5392 75.5876 8.50665C86.2917 3.9347 97.6938 1.21166 109.309 0.453425C111.014 0.315426 112.719 0.147856 114.385 0ZM54.1386 94.1548V95.6136C54.1978 99.9902 54.2504 104.363 54.2964 108.733C54.3555 117.053 54.4081 125.372 54.4541 133.691C54.5132 143.273 54.5526 152.854 54.6315 162.425C54.6578 163.111 54.8327 163.784 55.1441 164.396C62.9554 179.82 74.8429 192.808 89.5157 201.952C96.8592 206.535 104.41 210.656 112.877 212.794C115.588 213.475 118.308 214.204 121.157 213.78C125.3 213.225 129.352 212.131 133.212 210.527C155.607 201.055 172.936 185.993 184.084 164.199C184.327 163.667 184.448 163.088 184.439 162.504C184.525 155.893 184.594 149.272 184.646 142.642C184.751 126.87 184.843 111.063 184.922 95.2193C184.913 94.8896 184.887 94.5606 184.843 94.2336C183.858 95.9882 182.971 97.5752 182.044 99.1621C179.173 103.903 175.813 108.33 172.019 112.371C170.442 114.056 168.786 114.125 167.091 112.538C166.278 111.791 165.508 110.998 164.784 110.163C159.954 104.613 157.125 98.0187 154.927 91.1089C154.543 89.9162 154.198 88.7038 153.853 87.4914C153.508 86.279 153.232 85.1454 152.867 83.657C152.631 84.3963 152.493 84.7905 152.374 85.2045C150.314 91.9665 147.82 98.5412 143.73 104.386C142.182 106.78 140.147 108.819 137.756 110.37C136.189 111.355 134.927 111.286 133.685 109.965C132 108.258 130.467 106.408 129.102 104.436C125.159 98.4327 122.803 91.6806 120.644 84.8793C120.319 83.8935 120.004 82.7896 119.659 81.5278C119.481 82.1094 119.383 82.4446 119.264 82.7797C117.529 87.6195 115.933 92.5283 114.001 97.2992C112.227 101.838 109.536 105.962 106.095 109.414C104.124 111.306 102.793 111.503 100.703 109.798C98.9929 108.411 97.4393 106.841 96.0706 105.116C92.5517 100.591 90.3042 95.3869 88.4018 90.0247C87.6921 88.0532 87.0514 85.9734 86.3121 83.726C86.1643 84.1597 86.0953 84.3667 86.0361 84.5835C84.8139 88.4179 83.8281 92.2622 82.458 95.9882C80.1909 102.139 77.0465 107.817 72.1968 112.361C70.3042 114.145 68.668 114.184 67.0218 112.213C64.3309 108.98 61.6497 105.717 59.1362 102.356C57.3718 99.8029 55.9129 97.0527 54.1386 94.1548Z" fill="#1C1919"/>
<path d="M119.52 165.894C133.626 165.894 147.741 165.894 161.906 165.894C162.828 165.924 163.716 166.249 164.439 166.821C165.247 167.501 165.149 168.566 164.735 169.561C162.93 173.77 160.397 177.627 157.253 180.956C149.663 189.157 140.171 193.721 129.23 195.357C119.621 196.958 109.766 196.152 100.546 193.011C88.9537 188.94 80.2302 181.508 74.8285 170.34C74.5395 169.781 74.3431 169.178 74.2469 168.556C74.1881 168.214 74.2063 167.863 74.3003 167.528C74.3942 167.194 74.5615 166.885 74.79 166.623C75.0185 166.362 75.3024 166.154 75.6211 166.016C75.9398 165.878 76.2853 165.813 76.6323 165.825C76.9478 165.825 77.2632 165.825 77.618 165.825L119.52 165.894ZM100.989 170.882V187.984C105.149 189.758 114.464 191.493 116.918 190.941V170.882H100.989ZM122.152 191.158C127.225 190.967 132.243 190.05 137.056 188.438C137.396 188.377 137.699 188.187 137.901 187.908C138.103 187.628 138.189 187.281 138.14 186.939C138.091 181.932 138.14 176.925 138.14 171.917C138.14 171.582 138.14 171.237 138.071 170.931H122.152V191.158ZM143.118 170.872V185.766C149.551 182.333 154.9 177.176 158.564 170.872H143.118ZM95.9424 170.922H80.5653C84.2314 177.172 89.5527 182.289 95.9424 185.707V170.922Z" fill="#1C1919"/>
<path d="M144.025 123.272C150.304 123.272 156.593 123.272 162.872 123.272C167.229 123.272 171.576 123.341 175.932 123.391C176.325 123.37 176.718 123.427 177.088 123.559C177.458 123.691 177.798 123.896 178.088 124.161C178.378 124.427 178.612 124.747 178.777 125.104C178.941 125.461 179.033 125.847 179.047 126.239C179.071 126.637 179.011 127.035 178.872 127.409C178.733 127.782 178.517 128.122 178.238 128.407C177.96 128.692 177.625 128.915 177.255 129.063C176.885 129.211 176.488 129.28 176.09 129.266C173.222 129.344 170.344 129.325 167.465 129.266C166.48 129.266 166.066 129.384 165.839 130.508C165.402 132.499 164.294 134.279 162.699 135.548C161.104 136.818 159.121 137.5 157.083 137.479C155.044 137.458 153.075 136.736 151.507 135.434C149.939 134.132 148.866 132.33 148.471 130.33C148.313 129.492 147.988 129.246 147.16 129.266C144.4 129.315 141.65 129.315 138.89 129.266C136.829 129.266 135.617 128.024 135.676 126.151C135.677 125.775 135.754 125.403 135.902 125.057C136.05 124.711 136.266 124.399 136.538 124.138C136.809 123.878 137.13 123.675 137.482 123.541C137.833 123.408 138.208 123.347 138.584 123.361C140.388 123.361 142.202 123.361 144.015 123.361L144.025 123.272Z" fill="#1C1919"/>
<path d="M90.8955 129.226C89.7521 134.579 86.5781 137.595 82.0833 137.664C77.5885 137.733 74.3652 134.914 72.8965 129.226C69.624 129.226 66.3218 129.226 63.0394 129.226C62.5148 129.24 61.9963 129.11 61.5395 128.852C61.0826 128.594 60.7044 128.216 60.4453 127.76C60.1863 127.303 60.056 126.785 60.0684 126.26C60.0809 125.736 60.2356 125.224 60.516 124.781C60.7688 124.33 61.1406 123.957 61.5908 123.703C62.0411 123.45 62.5524 123.324 63.069 123.342C66.7358 123.342 70.3928 123.411 74.0596 123.44C74.5525 123.44 75.0454 123.282 75.5382 123.282C83.759 123.282 91.9732 123.282 100.181 123.282C100.958 123.202 101.736 123.433 102.343 123.924C102.951 124.416 103.339 125.128 103.424 125.904C103.491 126.315 103.469 126.735 103.357 127.135C103.245 127.535 103.047 127.906 102.776 128.222C102.505 128.537 102.169 128.79 101.791 128.962C101.412 129.134 101.001 129.22 100.585 129.216C98.9685 129.216 97.3519 129.216 95.7354 129.216L90.8955 129.226Z" fill="#1C1919"/>
</svg>
