<svg width="240" height="241" viewBox="0 0 240 241" fill="none" xmlns="http://www.w3.org/2000/svg">
<path d="M83.3982 0H94.4288C94.6877 0.0885817 94.9541 0.153474 95.2247 0.193878L116.888 1.91837C118.367 2.1413 119.861 2.25385 121.357 2.2551C129.766 1.62245 138.153 0.897959 146.551 0.214286C146.895 0.173416 147.236 0.108633 147.572 0.0204082H156.388C156.77 0.114739 157.159 0.179556 157.551 0.214286C164.201 0.319925 170.82 1.15832 177.286 2.71429C182.388 4.02041 187.245 5.88775 191.133 9.61224C194.43 12.9731 197.022 16.9594 198.755 21.3367C203.857 32.9898 206.194 45.3469 208.031 57.8163C208.796 62.9184 209.327 68.1633 209.97 73.4082C210.378 73.2551 210.827 73.0918 211.266 72.898L220.786 68.7347C222.541 67.9694 223.898 68.0816 224.868 69.1224C226.021 70.398 225.888 71.7551 225.184 73.2041C222.259 79.7959 219.368 86.398 216.51 93.0102C216.26 93.6675 216.26 94.3938 216.51 95.051C219.398 101.745 222.347 108.408 225.266 115.092C225.99 116.735 225.827 117.908 224.796 118.918C223.766 119.929 222.582 120.051 220.959 119.357L218.072 118.133C218.072 118.622 218.072 118.898 218.072 119.153C219.083 126.016 219.326 132.971 218.796 139.888C218.552 145.72 217.522 151.493 215.735 157.051C215.52 157.492 215.47 157.995 215.596 158.469C215.721 158.943 216.013 159.356 216.419 159.633C221.197 163.758 226.981 166.546 233.184 167.714C233.835 167.769 234.453 168.025 234.952 168.447C235.451 168.869 235.806 169.436 235.967 170.069C236.129 170.702 236.089 171.37 235.854 171.979C235.618 172.589 235.199 173.109 234.653 173.469C231.381 176.108 227.767 178.291 223.908 179.959C221.572 180.98 219.153 181.735 216.684 182.653C217.143 182.939 217.582 183.224 218.031 183.48C223.612 186.615 229.531 189.108 235.674 190.908C236.341 191.058 236.97 191.34 237.526 191.738C238.082 192.136 238.552 192.641 238.908 193.224V194.898C238.466 195.619 237.965 196.302 237.408 196.939C232.082 202.133 225.47 204.469 218.235 205.102C215.174 205.378 212.112 205.102 209 205.102C209.34 205.631 209.797 206.075 210.337 206.398C213.766 208.531 217.184 210.663 220.643 212.755C221.16 212.997 221.603 213.372 221.928 213.842C222.252 214.312 222.446 214.859 222.49 215.429C222.572 217.031 221.857 218.031 220.082 218.684C212.766 221.389 205.092 223.001 197.306 223.469C186.148 224.247 174.97 222.256 164.766 217.673C164.461 217.502 164.108 217.436 163.762 217.483C163.415 217.531 163.094 217.691 162.847 217.939C153.786 224.969 144.306 231.275 133.439 235.214C133.053 235.391 132.732 235.683 132.521 236.051C132.249 236.54 131.797 236.903 131.26 237.061C130.724 237.219 130.147 237.161 129.653 236.898C129.339 236.732 128.988 236.651 128.633 236.663C126.796 237.01 124.959 237.398 123.133 237.796C122.897 237.891 122.69 238.046 122.531 238.245C121.97 238.837 121.429 239.449 120.878 240.051H120.143C119.694 239.724 118.939 239.459 118.847 239.031C118.521 237.561 117.398 237.663 116.357 237.48C115.317 237.296 114.041 236.949 112.878 236.775C112.3 236.69 111.709 236.739 111.153 236.918C110.702 237.111 110.198 237.144 109.725 237.012C109.252 236.88 108.838 236.592 108.551 236.194C108.117 235.704 107.599 235.297 107.021 234.99C106.396 234.691 105.752 234.435 105.092 234.224C95.1635 230.235 86.3778 224.347 77.99 217.806C77.7714 217.578 77.4819 217.43 77.1687 217.388C76.8556 217.345 76.5372 217.41 76.2655 217.571C74.9819 218.193 73.6672 218.748 72.3267 219.235C62.7775 222.787 52.5602 224.181 42.4084 223.316C35.037 222.824 27.7717 221.295 20.8267 218.775C20.168 218.616 19.5785 218.247 19.1464 217.725C18.7142 217.203 18.4625 216.555 18.4288 215.878C18.4134 215.229 18.5928 214.59 18.9438 214.045C19.2949 213.499 19.8015 213.071 20.3982 212.816C23.1193 211.231 25.8404 209.599 28.5614 207.918C29.7553 207.184 30.8676 206.296 32.2553 205.306C31.6431 205.306 31.3676 205.306 31.0921 205.306C27.1874 205.664 23.2519 205.479 19.3982 204.755C13.2757 203.612 7.76552 201.296 3.31654 196.827C1.05124 194.551 1.77573 192.112 4.80634 191.041C9.17369 189.49 13.5308 187.878 17.8267 186.112C20.0614 185.194 22.1533 183.898 24.5512 182.653C23.9594 182.449 23.7043 182.337 23.439 182.265C17.2049 180.562 11.3874 177.596 6.34716 173.551C5.76889 173.211 5.31519 172.694 5.05287 172.076C4.79054 171.458 4.73345 170.773 4.89 170.12C5.04655 169.468 5.40847 168.883 5.92246 168.452C6.43646 168.02 7.07537 167.765 7.74511 167.724C14.1146 166.532 20.0341 163.613 24.8574 159.286C25.1344 159.097 25.3349 158.815 25.4228 158.492C25.5108 158.168 25.4803 157.824 25.337 157.52C24.7591 155.954 24.282 154.352 23.9084 152.724C21.852 142.922 21.3459 132.857 22.4084 122.898C22.5614 121.327 22.7859 119.755 22.99 118.051C21.9186 118.51 20.9492 118.888 20.0614 119.316C19.4617 119.68 18.7591 119.836 18.0621 119.76C17.365 119.684 16.7121 119.381 16.2043 118.898C15.1839 117.949 15.0512 116.612 15.7859 114.949C18.6533 108.265 21.6023 101.592 24.4492 94.898C24.6839 94.2836 24.6839 93.6042 24.4492 92.9898C21.5512 86.2551 18.5921 79.551 15.6533 72.8367C15.305 72.2414 15.1637 71.5474 15.2514 70.8633C15.3391 70.1791 15.6508 69.5433 16.138 69.0549C16.6251 68.5666 17.2602 68.2534 17.9442 68.1641C18.6281 68.0747 19.3224 68.2144 19.9186 68.5612C23.1839 70.0306 26.4798 71.4592 29.7655 72.898C30.1533 73.0612 30.5512 73.1939 31.0206 73.3571C31.0921 72.9082 31.1635 72.5918 31.1839 72.2755C32.0359 62.1964 33.5356 52.1825 35.6737 42.2959C37.3243 34.0298 39.9729 25.9947 43.5614 18.3673C47.1941 11 52.7451 5.91837 60.6635 3.53061C66.1049 1.92941 71.7008 0.910095 77.3574 0.489796L83.3982 0ZM187.317 72.3469C187.272 71.9614 187.2 71.5795 187.102 71.2041C186.225 68.4082 185.276 65.6327 184.449 62.8163C184.123 61.7347 183.592 61.4388 182.408 61.4388C141.061 61.4796 99.7145 61.4796 58.3676 61.4388H56.9084L53.3778 72.449C56.5308 71.0612 59.3063 69.8163 62.1125 68.6327C62.7734 68.3286 63.498 68.1886 64.2247 68.2245C66.4492 68.5102 67.4186 70.6327 66.4288 72.898C63.49 79.6122 60.5376 86.3231 57.5716 93.0306C57.4185 93.3308 57.3386 93.663 57.3386 94C57.3386 94.337 57.4185 94.6692 57.5716 94.9694C58.8982 97.898 60.1737 100.857 61.4594 103.806L66.5614 115.337C66.8678 115.911 66.9833 116.567 66.8913 117.211C66.7992 117.855 66.5043 118.453 66.0494 118.919C65.5945 119.384 65.0032 119.692 64.3614 119.798C63.7195 119.905 63.0604 119.804 62.4798 119.51C61.4594 119.071 60.439 118.592 59.3472 118.133L52.5206 115.153C52.5206 115.673 52.5206 116.02 52.5206 116.378C53.2145 123.724 53.888 131.071 54.5614 138.418C55.1533 144.541 55.8165 150.592 56.388 156.673C56.6125 159.082 55.3676 160.357 52.9594 160.388H48.939C49.1533 161.408 49.3267 162.296 49.5206 163.163C49.7145 164.031 49.9492 164.959 50.1635 165.857C52.2043 165.857 53.99 165.857 55.8165 165.857C56.1089 165.82 56.4059 165.845 56.6881 165.929C56.9704 166.014 57.2316 166.158 57.4548 166.35C57.6781 166.543 57.8583 166.78 57.9839 167.047C58.1095 167.313 58.1777 167.603 58.1839 167.898C58.1839 169.133 57.2757 169.939 55.7859 169.939H51.1941C51.7043 171.5 52.1125 172.949 52.6635 174.337C52.7836 174.537 52.9465 174.709 53.1405 174.839C53.3345 174.97 53.5549 175.056 53.7859 175.092C54.9186 175.194 56.0614 175.092 57.2043 175.092C58.6941 175.092 59.5308 175.888 59.5206 177.184C59.5224 177.472 59.4632 177.757 59.3468 178.02C59.2305 178.284 59.0598 178.52 58.8458 178.712C58.6319 178.905 58.3795 179.05 58.1054 179.139C57.8313 179.227 57.5416 179.256 57.2553 179.224H54.939C66.5104 202.469 84.6533 218.378 108.184 228.929C108.184 225.265 108.184 221.959 108.184 218.663C108.184 217.153 109.072 216.173 110.327 216.214C111.582 216.255 112.296 217.163 112.296 218.653C112.296 222.163 112.296 225.673 112.296 229.184C112.296 229.561 112.5 230.204 112.735 230.255C114.561 230.755 116.408 231.153 118.398 231.612V228.051C118.398 222.418 118.398 216.827 118.398 211.163C118.366 210.877 118.396 210.587 118.484 210.313C118.572 210.039 118.718 209.787 118.91 209.573C119.103 209.359 119.339 209.188 119.602 209.072C119.866 208.955 120.151 208.896 120.439 208.898C120.72 208.908 120.997 208.975 121.253 209.093C121.508 209.212 121.738 209.38 121.928 209.588C122.118 209.796 122.264 210.039 122.359 210.305C122.454 210.57 122.495 210.851 122.48 211.133C122.48 211.418 122.48 211.704 122.48 211.99V231.633C124.296 231.224 125.939 230.796 127.582 230.48C128.408 230.327 128.602 229.929 128.602 229.153C128.602 225.602 128.541 222.01 128.602 218.5C128.626 218.132 128.723 217.773 128.888 217.444C129.052 217.114 129.281 216.821 129.561 216.582C130.929 215.612 132.572 216.684 132.623 218.52C132.684 220.765 132.623 223.01 132.623 225.255V228.98C156.214 218.357 174.357 202.449 185.888 179.224H183.633C182.174 179.224 181.245 178.418 181.245 177.184C181.262 176.891 181.337 176.604 181.467 176.341C181.598 176.078 181.78 175.844 182.003 175.653C182.226 175.462 182.486 175.319 182.766 175.231C183.046 175.144 183.341 175.113 183.633 175.143C184.776 175.143 185.929 175.143 187.061 175.143C187.408 175.143 187.949 174.939 188.082 174.694C188.653 173.194 189.102 171.633 189.653 170.02C188.01 170.02 186.592 170.02 185.153 170.02C183.715 170.02 182.684 169.214 182.715 167.918C182.745 166.622 183.602 165.949 185.133 165.939C186.663 165.929 188.194 165.939 189.786 165.939C190.112 165.939 190.684 165.827 190.735 165.653C191.184 163.99 191.551 162.296 191.98 160.429C190.388 160.429 189.092 160.429 187.786 160.429C185.266 160.347 184.153 159.071 184.398 156.592C184.643 154.112 184.929 151.643 185.163 149.163C186.055 140.068 186.936 130.976 187.806 121.888C188.021 119.714 188.194 117.531 188.398 115.245C187.99 115.398 187.714 115.48 187.459 115.592C184.48 116.888 181.5 118.214 178.5 119.51C176.643 120.306 174.633 119.592 174.225 117.816C174.048 116.832 174.165 115.817 174.561 114.898C177.368 108.347 180.245 101.827 183.143 95.3061C183.34 94.9151 183.442 94.4835 183.442 94.0459C183.442 93.6083 183.34 93.1767 183.143 92.7857C180.174 86.1327 177.266 79.4388 174.327 72.7653C174.016 72.1911 173.898 71.5327 173.988 70.8863C174.078 70.2399 174.373 69.6393 174.829 69.1721C175.284 68.7049 175.878 68.3956 176.522 68.2894C177.166 68.1832 177.827 68.2856 178.408 68.5816C179.276 68.9388 180.133 69.3265 180.99 69.7041L187.317 72.3469ZM24.2859 110.724C29.4798 108.449 34.3676 106.327 39.2349 104.153C39.7993 103.873 40.421 103.727 41.0512 103.727C41.6815 103.727 42.3032 103.873 42.8676 104.153C47.3982 106.194 51.9594 108.163 56.5104 110.163C56.8574 110.316 57.2247 110.418 57.7757 110.612C55.5308 105.51 53.4084 100.622 51.2451 95.7551C50.9735 95.2063 50.8321 94.6022 50.8321 93.9898C50.8321 93.3774 50.9735 92.7733 51.2451 92.2245C52.0206 90.5714 52.7349 88.8775 53.4696 87.2041C54.888 83.9694 56.2961 80.7449 57.7961 77.2959C57.2349 77.5 56.9084 77.602 56.5921 77.7449C54.7553 78.5408 52.9186 79.3265 51.1023 80.1429C50.4688 80.4405 49.7592 80.5365 49.0694 80.4179C48.3796 80.2992 47.7428 79.9717 47.2451 79.4796C46.773 79.079 46.4335 78.5447 46.2714 77.9471C46.1092 77.3496 46.1321 76.7169 46.337 76.1327C46.6329 74.9082 46.888 73.6735 47.1941 72.449C49.3165 63.9898 52.0716 55.7857 56.8063 48.3776C59.083 44.5881 62.1534 41.3367 65.8063 38.8469C68.0067 37.2413 70.7158 36.4906 73.4288 36.7347C75.2961 36.9592 77.1737 37.051 79.0206 37.3571C86.9192 38.7885 94.5763 41.3271 101.766 44.898C108.123 47.9592 114.337 51.2653 120.541 54.4286C126.266 51.4796 132.061 48.3061 138.01 45.4694C146.237 41.392 155.012 38.5322 164.061 36.9796C170.051 36.0408 175 37.5612 178.959 41.9898C181.311 44.5292 183.416 47.2865 185.245 50.2245C190.092 58.2755 192.663 67.2041 194.674 76.3061C194.835 76.8815 194.824 77.4915 194.643 78.0608C194.461 78.6302 194.118 79.134 193.653 79.5102C193.186 79.9746 192.592 80.2902 191.945 80.4174C191.299 80.5445 190.629 80.4774 190.021 80.2245L184.347 77.7551C184.031 77.6224 183.704 77.5306 183.245 77.3776C183.408 77.8163 183.49 78.0816 183.602 78.3367C185.561 82.8061 187.48 87.3061 189.521 91.7551C189.87 92.4391 190.052 93.1962 190.052 93.9643C190.052 94.7323 189.87 95.4895 189.521 96.1735C187.48 100.571 185.592 105.041 183.653 109.439C183.51 109.765 183.398 110.112 183.194 110.673C188.296 108.429 193.174 106.327 198.01 104.163C198.595 103.876 199.237 103.727 199.888 103.727C200.539 103.727 201.181 103.876 201.766 104.163C205.48 105.847 209.215 107.459 212.99 109.092C214.123 109.592 215.255 110.112 216.592 110.643C216.357 110.041 216.225 109.622 216.061 109.296C214.092 104.878 212.204 100.388 210.163 95.9184C209.867 95.3188 209.712 94.6588 209.712 93.9898C209.712 93.3208 209.867 92.6608 210.163 92.0612C212.204 87.6122 214.112 83.1224 216.072 78.6429C216.245 78.2551 216.378 77.8571 216.612 77.2449C213.908 78.4286 211.459 79.5204 208.99 80.5714C208.121 80.9404 207.141 80.9513 206.264 80.6016C205.387 80.2519 204.683 79.5699 204.306 78.7041C204.108 77.9962 204.001 77.2657 203.99 76.5306C203.128 63.9584 201.22 51.4798 198.286 39.2245C196.713 32.2185 194.186 25.4615 190.776 19.1429C188.368 14.7295 184.38 11.3903 179.612 9.79592C175.167 8.29392 170.561 7.32121 165.888 6.89796C152.959 5.60204 140.072 6.32653 127.194 7.73469C124.408 8.04082 121.561 8.57143 118.837 8.26531C106.786 6.88776 94.7349 5.80612 82.6125 6.32653C76.4511 6.50881 70.3258 7.33646 64.3369 8.79592C57.4492 10.5408 52.1635 14.2857 49.2349 20.8571C47.4226 24.7712 45.8417 28.7883 44.5002 32.8878C40.041 47.3878 38.1227 62.3367 36.9186 77.398C36.9216 77.9992 36.7691 78.591 36.4761 79.116C36.1831 79.6409 35.7594 80.0813 35.2462 80.3944C34.7329 80.7075 34.1475 80.8827 33.5466 80.903C32.9457 80.9233 32.3498 80.788 31.8165 80.5102C29.6737 79.5918 27.5104 78.5714 25.3574 77.6633C25.0818 77.5408 24.7859 77.4796 24.337 77.3367C26.3778 82.0306 28.2757 86.5918 30.3982 91.0306C30.8806 91.9387 31.1329 92.9513 31.1329 93.9796C31.1329 95.0079 30.8806 96.0205 30.3982 96.9286C28.2655 101.367 26.388 105.918 24.2859 110.724ZM211.898 214.98C211.368 214.633 211.031 214.418 210.714 214.184C207.868 212.071 204.949 210.051 202.204 207.816C200.234 206.337 198.678 204.377 197.684 202.122C197.425 201.595 197.323 201.003 197.391 200.419C197.459 199.835 197.694 199.283 198.067 198.829C198.441 198.375 198.937 198.038 199.497 197.858C200.057 197.678 200.657 197.664 201.225 197.816C202.817 198.163 204.408 198.48 206.021 198.724C212.306 199.745 218.541 199.684 224.633 197.622C226.255 197.082 227.796 196.296 229.378 195.582C229.083 195.254 228.706 195.011 228.286 194.878C223.242 193.12 218.393 190.846 213.817 188.092C211.299 186.65 209.068 184.758 207.235 182.51C206.825 182.048 206.559 181.477 206.47 180.866C206.382 180.255 206.474 179.631 206.735 179.071C207.019 178.53 207.446 178.077 207.97 177.76C208.493 177.444 209.093 177.276 209.704 177.275C212.206 176.988 214.687 176.545 217.133 175.949C220.14 175.094 223.009 173.812 225.653 172.143C223.245 170.969 220.847 169.959 218.623 168.653C216.398 167.347 214.245 165.704 212.041 164.184C210.474 166.196 208.493 167.849 206.233 169.032C203.973 170.215 201.486 170.9 198.939 171.041C196.204 171.255 194.939 172.265 194.663 174.837C194.681 174.923 194.705 175.009 194.735 175.092C194.968 175.104 195.199 175.132 195.429 175.173C195.707 175.193 195.978 175.27 196.225 175.398C196.472 175.527 196.69 175.705 196.866 175.921C197.042 176.137 197.172 176.386 197.248 176.655C197.323 176.923 197.343 177.203 197.306 177.48C197.242 178.009 196.974 178.492 196.558 178.826C196.142 179.159 195.612 179.317 195.082 179.265C194.838 179.291 194.591 179.291 194.347 179.265C193.327 179.071 192.796 179.561 192.306 180.5C187.311 190.88 180.737 200.422 172.817 208.786C171.541 210.092 170.204 211.337 168.735 212.745C182.98 218.49 197.214 218.582 211.898 214.98ZM28.7655 164.031C24.7605 167.569 20.1063 170.297 15.0614 172.061C20.2451 175.031 25.4696 177.041 31.2655 177.296C31.861 177.265 32.4525 177.409 32.9674 177.71C33.4822 178.011 33.8979 178.456 34.1635 178.99C34.4487 179.516 34.5692 180.115 34.5091 180.71C34.4491 181.305 34.2113 181.868 33.8267 182.327C32.9669 183.414 32.0069 184.418 30.9594 185.327C26.2655 189.235 20.7553 191.694 15.1431 193.939C13.9696 194.408 12.7757 194.837 11.4084 195.357C15.0912 197.474 19.1954 198.752 23.4288 199.102C28.8821 199.552 34.3724 199.111 39.6839 197.796C40.2559 197.631 40.8641 197.64 41.431 197.822C41.998 198.003 42.498 198.35 42.8676 198.816C43.2505 199.249 43.4942 199.787 43.567 200.361C43.6398 200.934 43.5383 201.516 43.2757 202.031C42.8508 202.998 42.3094 203.909 41.6635 204.745C38.8063 208.347 35.0818 210.929 31.3267 213.459C30.6329 213.929 29.9186 214.378 29.0206 214.959C43.7247 218.551 57.9594 218.48 72.0512 212.745C71.0308 211.724 70.1227 210.847 69.2451 209.959C60.9385 201.405 54.0493 191.581 48.837 180.857C48.2655 179.694 47.6839 179.112 46.2961 179.235C44.6431 179.388 43.7553 178.633 43.6635 177.367C43.5716 176.102 44.3676 175.327 46.1023 175.112C46.1737 175.112 46.2451 175.041 46.3472 174.98C46.0818 174.102 45.7451 173.214 45.5512 172.306C45.3982 171.622 45.0614 171.449 44.3982 171.337C41.8635 170.984 39.3522 170.48 36.8778 169.827C33.6355 168.788 30.7991 166.761 28.7655 164.031ZM59.8574 55.2857H108.837C108.581 55.1105 108.315 54.9504 108.041 54.8061C102.408 52.2347 96.8165 49.5 91.1329 47.1531C85.4975 44.7889 79.521 43.3387 73.4288 42.8571C71.7113 42.7354 70.0087 43.2473 68.6431 44.2959C64.7757 47.1122 62.2043 51.0204 59.8574 55.2857ZM181.051 55.2857C180.643 54.5306 180.317 53.8878 179.949 53.2449C178.043 49.7629 175.429 46.7181 172.276 44.3061C171.613 43.7611 170.849 43.3525 170.028 43.1038C169.206 42.8552 168.344 42.7713 167.49 42.8571C165.449 43.1429 163.357 43.3163 161.368 43.7245C152.959 45.449 145.133 48.8265 137.459 52.5204C135.776 53.3469 134.112 54.2245 132.429 55.0714L132.521 55.2449L181.051 55.2857ZM50.041 154.265C49.3982 147.663 48.7451 141.214 48.1329 134.765C47.4492 127.541 46.8063 120.316 46.0921 113.092C46.0515 112.869 45.9652 112.657 45.8388 112.469C45.7124 112.281 45.5485 112.122 45.3574 112C44.1227 111.378 42.8472 110.827 41.5614 110.316C41.2531 110.207 40.9229 110.173 40.5987 110.218C40.2745 110.262 39.9658 110.384 39.6987 110.573C39.4315 110.763 39.2138 111.013 39.0638 111.304C38.9138 111.595 38.836 111.918 38.8369 112.245C39.0104 115.908 39.0818 119.592 39.4492 123.235C40.3063 131.582 41.3063 139.918 42.2859 148.265C42.5206 150.306 42.888 152.347 43.1839 154.316L50.041 154.265ZM197.735 154.265C197.817 153.827 197.919 153.398 197.99 152.959C200.081 139.713 201.46 126.364 202.123 112.969C202.204 110.602 202.561 111.306 200.459 110.367C200.091 110.23 199.685 110.23 199.317 110.367C198.061 110.839 196.831 111.378 195.633 111.98C195.442 112.088 195.275 112.234 195.144 112.41C195.012 112.585 194.918 112.786 194.868 113C194.572 115.633 194.368 118.276 194.112 120.908C193.323 129.146 192.534 137.381 191.745 145.612C191.47 148.449 191.184 151.265 190.888 154.224L197.735 154.265ZM197.306 165.122C201.714 164.633 205.47 163.265 207.817 159.49C208.833 157.823 209.648 156.042 210.245 154.184C211.782 148.976 212.639 143.591 212.796 138.163C213.281 131.158 212.852 124.119 211.521 117.224C211.143 115.357 210.255 114.163 208.286 113.918C208.286 114.306 208.163 114.704 208.133 115.102C207.541 122.245 207.112 129.388 206.317 136.531C205.551 143.5 204.449 150.429 203.521 157.378C203.493 157.933 203.317 158.47 203.012 158.935C202.708 159.399 202.284 159.774 201.786 160.02C200.632 160.403 199.442 160.667 198.235 160.806L197.306 165.122ZM32.6125 113.929C31.8208 113.99 31.0771 114.332 30.5157 114.893C29.9543 115.454 29.6122 116.198 29.5512 116.99C29.2757 118.878 28.837 120.755 28.6125 122.653C27.811 129.545 27.811 136.506 28.6125 143.398C29.1533 148.214 29.9084 153.01 31.99 157.469C33.1731 160.249 35.3587 162.482 38.1125 163.724C39.8662 164.516 41.7523 164.972 43.6737 165.071C43.439 163.918 43.1737 162.969 43.0716 162.01C42.9492 160.878 42.5104 160.449 41.2859 160.51C39.0308 160.612 37.7451 159.378 37.4492 157.122C37.3982 156.796 37.3574 156.48 37.3165 156.153C36.2043 147.469 35.0002 138.806 34.0002 130.082C33.3267 124.735 33.041 119.388 32.6125 113.929Z" fill="#1C1919"/>
<path d="M120.633 186.408H159.071C161.602 186.408 163.153 188.449 162.286 190.602C162.102 191.102 161.784 191.543 161.366 191.874C160.948 192.205 160.447 192.415 159.918 192.48C159.512 192.527 159.103 192.544 158.694 192.531H81.949C79.4898 192.531 77.9592 190.765 78.551 188.622C78.7596 187.931 79.2006 187.333 79.7993 186.93C80.3981 186.526 81.1178 186.342 81.8367 186.408H120.612H120.633Z" fill="#1C1919"/>
<path d="M168.755 131.143C167.316 136.888 164.051 139.868 159.388 139.827C154.724 139.786 151.418 136.766 150.153 131.143H148.939C146.163 131.143 143.388 131.143 140.612 131.143C138.571 131.143 137.224 129.908 137.204 128.082C137.184 126.255 138.5 125.021 140.663 125.021C149.102 125.021 157.551 124.949 165.99 124.949C170.316 124.949 174.633 124.949 178.959 125.031C179.663 125.031 180.345 125.273 180.891 125.716C181.437 126.16 181.813 126.778 181.957 127.467C182.101 128.155 182.003 128.872 181.68 129.497C181.357 130.122 180.829 130.617 180.184 130.898C179.557 131.079 178.906 131.158 178.255 131.133C175.082 131.153 171.939 131.143 168.755 131.143Z" fill="#1C1919"/>
<path d="M90.8469 131.061C89.0306 137.184 85.8674 140.01 81.1633 139.786C77.0816 139.602 73 136.724 72.2347 131.061H62.0306C61.6432 131.087 61.2543 131.037 60.8865 130.913C60.5186 130.788 60.1789 130.592 59.8868 130.336C59.5948 130.08 59.3562 129.769 59.1848 129.421C59.0133 129.072 58.9124 128.694 58.8878 128.306C58.8135 127.505 59.0578 126.706 59.5676 126.084C60.0775 125.461 60.812 125.065 61.6123 124.979C61.952 124.957 62.2929 124.957 62.6327 124.979C75.1565 124.979 87.6769 124.979 100.194 124.979C100.894 124.967 101.588 125.099 102.235 125.367C102.846 125.667 103.336 126.169 103.62 126.788C103.904 127.407 103.967 128.106 103.796 128.765C103.657 129.431 103.289 130.027 102.756 130.448C102.222 130.87 101.557 131.09 100.878 131.071C97.4898 131.082 94.1939 131.061 90.8469 131.061Z" fill="#1C1919"/>
</svg>
