<svg width="240" height="240" viewBox="0 0 240 240" fill="none" xmlns="http://www.w3.org/2000/svg">
<path d="M212.944 21.0296C213.604 21.3227 214.176 21.7836 214.604 22.3664C215.031 22.9493 215.298 23.6338 215.379 24.3519C217.527 34.5765 218.712 44.98 218.918 55.4259C219.223 65.9099 218.406 76.3964 216.483 86.7069C215.842 90.0588 215.014 93.391 214.146 96.7034C213.959 97.1139 213.934 97.5801 214.077 98.0081C214.22 98.4362 214.519 98.7943 214.915 99.0103C220.848 103.041 226.354 107.666 231.349 112.812C234.13 115.77 236.614 118.974 239.128 122.158C240.38 123.735 240.252 124.978 238.95 126.535C234.346 131.896 228.626 136.186 222.191 139.105C219.884 140.199 217.488 141.077 215.034 142.131C215.467 142.703 215.95 143.305 216.404 143.936C220.761 149.851 223.354 156.594 225.217 163.653C225.701 165.476 226.095 167.33 226.46 169.183C226.874 171.293 226.115 172.525 224.084 173.127C219.112 174.528 213.994 175.345 208.833 175.562C203.759 175.807 198.676 175.346 193.729 174.191C194.114 176.873 194.587 179.495 194.834 182.147C195.325 188.253 195.117 194.396 194.212 200.454C193.976 202.189 192.832 202.998 190.959 203.037C180.361 203.254 168.462 200.208 159.836 193.613C159.412 195.229 159.027 196.797 158.574 198.354C156.957 203.974 155.015 209.465 151.673 214.335C150.766 215.656 149.652 216.849 148.637 218.101C148.12 218.754 147.416 219.231 146.619 219.469C145.821 219.708 144.97 219.694 144.181 219.432C138.265 218.071 133.533 214.828 129.255 210.737C125.759 207.314 122.709 203.466 120.175 199.281C118.46 201.618 116.853 203.993 115.059 206.182C110.77 211.496 105.762 215.922 99.285 218.436C97.8752 218.988 96.3274 219.323 94.9176 219.757H93.9318C92.9908 219.22 92.1086 218.585 91.2996 217.864C90.0805 216.578 88.9785 215.186 88.0068 213.704C84.5071 208.282 82.5255 202.219 80.9186 196.028C80.7214 195.249 80.5144 194.48 80.2876 193.622C79.9229 193.869 79.6863 194.007 79.4694 194.165C70.3207 200.711 59.9693 203.116 48.908 203.037C48.5202 203.064 48.131 203.011 47.7646 202.881C47.3983 202.751 47.0626 202.547 46.7786 202.282C46.4946 202.016 46.2684 201.695 46.1141 201.338C45.9597 200.981 45.8805 200.597 45.8815 200.208C45.6646 198.414 45.428 196.609 45.29 194.805C44.5965 188.251 44.9291 181.629 46.2758 175.177C46.3217 174.877 46.3415 174.574 46.335 174.27C46.0195 174.27 45.8223 174.319 45.6251 174.359C35.6286 176.607 25.7405 175.847 15.9511 173.136C13.9103 172.574 13.1611 171.253 13.585 169.193C13.7033 168.611 13.8118 168.03 13.9399 167.458C15.5863 159.867 18.0213 152.572 22.2506 145.986C23.0985 144.675 24.0646 143.443 25.0307 142.102C24.6167 141.934 24.2716 141.776 23.9069 141.648C17.8862 139.617 12.2626 136.558 7.28543 132.608C4.52505 130.459 1.77453 128.113 0 124.899V123.716C0.650661 122.73 1.26189 121.655 1.9717 120.679C5.98881 115.311 10.6544 110.46 15.8623 106.237C19.2241 103.437 22.7633 100.805 26.2138 98.054C26.125 97.7386 26.0264 97.3245 25.9081 96.9105C24.2339 90.7971 23.0082 84.5697 22.2408 78.2779C21.1931 69.6314 20.8633 60.913 21.2549 52.212C21.6244 42.881 22.7586 33.596 24.6463 24.4505C25.0012 22.7745 25.711 21.4929 27.4362 21.0296H28.146C31.8627 22.3999 35.6779 23.5829 39.2861 25.1899C49.0204 29.6921 58.2254 35.2601 66.7322 41.7916C66.9234 42.0067 67.1838 42.1481 67.4683 42.1913C67.7528 42.2345 68.0434 42.1768 68.2898 42.0282C77.3005 37.2567 87.021 34.6737 97.0077 33.0767C105.407 31.7458 113.866 31.6077 122.344 31.5585C128.844 31.5185 135.338 31.9535 141.775 32.8598C152.008 34.3188 161.926 36.882 171.144 41.6733C171.551 41.9418 172.039 42.0628 172.525 42.0162C173.011 41.9696 173.466 41.7581 173.815 41.417C183.082 34.516 192.773 28.4037 203.46 23.9576C206.092 22.8633 208.833 21.9859 211.524 21L212.944 21.0296ZM233.301 124.08C232.67 123.272 232.138 122.543 231.556 121.843C225.109 114.123 217.41 107.834 209.148 102.126C207.443 100.962 207.048 99.9469 207.64 98.0048C211.214 85.8951 213.036 73.3362 213.052 60.71C213.142 52.5523 212.618 44.3993 211.485 36.3201C211.09 33.4809 210.568 30.6613 210.065 27.5559C206.871 28.946 203.834 30.1388 200.906 31.5585C191.752 36.0863 183.09 41.5472 175.057 47.8546C174.544 48.3577 173.879 48.6763 173.165 48.7602C172.451 48.844 171.73 48.6885 171.114 48.3179C160.743 42.3338 149.425 39.6523 137.595 38.2524C131.598 37.6412 125.571 37.3844 119.544 37.4834C111.188 37.3842 102.839 38.0441 94.6022 39.4551C85.838 41.0522 77.3794 43.5661 69.5714 47.9827C67.304 49.2643 66.6139 49.1953 64.5732 47.618C56.884 41.6336 48.6295 36.4135 39.9269 32.0317C36.7328 30.4543 33.4105 29.1333 30.0684 27.6545C29.9206 28.2657 29.822 28.6403 29.7628 28.9361C27.5966 40.4864 26.6843 52.2368 27.0419 63.9831C27.3193 75.5517 29.1327 87.0322 32.4345 98.1231C33.0161 100.036 32.5823 100.992 31.0148 102.195C26.2926 105.813 21.5211 109.362 16.9665 113.187C13.0924 116.457 9.6357 120.192 6.67421 124.307C8.64591 125.973 10.6176 127.728 12.678 129.236C18.2532 133.261 24.5789 136.128 31.281 137.666C32.6415 137.991 33.7456 138.592 34.0414 140.061C34.1752 140.724 34.091 141.413 33.8014 142.024C33.5118 142.635 33.0323 143.136 32.4345 143.452C31.5674 144.066 30.7764 144.781 30.0783 145.582C26.5293 149.725 23.8715 154.554 22.2704 159.768C21.3535 162.469 20.6338 165.24 19.7762 168.138C22.083 168.542 24.1238 168.966 26.1842 169.232C34.4752 170.307 42.6084 169.932 50.4262 166.59C51.015 166.301 51.6831 166.216 52.3256 166.348C52.968 166.48 53.5484 166.822 53.9753 167.32C54.3759 167.816 54.6143 168.424 54.6584 169.061C54.7025 169.697 54.5501 170.332 54.2218 170.879C53.4548 172.382 52.8182 173.949 52.3191 175.562C50.4854 182.463 50.6628 189.452 51.3332 196.462C51.4037 196.626 51.515 196.769 51.6565 196.877C51.798 196.986 51.965 197.057 52.1416 197.083C53.9457 196.974 55.7597 196.866 57.5539 196.58C66.0717 195.229 73.8007 192.193 79.9229 185.824C80.297 185.387 80.7952 185.073 81.3516 184.925C81.908 184.777 82.4962 184.802 83.0382 184.996C83.5818 185.175 84.0637 185.505 84.4282 185.946C84.7928 186.387 85.0252 186.923 85.0986 187.49C86.183 191.966 87.1491 196.471 88.4702 200.868C89.7123 205.151 91.7454 209.164 94.4642 212.699C94.6452 212.998 94.9332 213.218 95.27 213.313C95.6068 213.408 95.9671 213.372 96.2781 213.211C99.0209 212.209 101.579 210.76 103.849 208.923C108.902 204.794 113.064 199.683 116.084 193.898C117.168 191.927 118.686 191.513 120.668 191.562C122.305 191.611 123.083 192.607 123.803 193.869C126.344 198.51 129.545 202.757 133.307 206.478C136.25 209.467 139.823 211.76 143.767 213.191C143.901 213.268 144.05 213.316 144.204 213.334C144.358 213.352 144.514 213.339 144.663 213.296C144.811 213.253 144.95 213.18 145.07 213.083C145.191 212.985 145.29 212.865 145.364 212.728C146.576 210.756 147.976 208.864 148.992 206.813C151.861 200.624 153.836 194.058 154.857 187.313C154.92 186.745 155.146 186.207 155.507 185.764C155.869 185.322 156.352 184.993 156.896 184.819C157.44 184.645 158.024 184.632 158.575 184.783C159.127 184.933 159.623 185.24 160.003 185.667C160.349 185.982 160.654 186.347 160.989 186.652C166.323 191.818 172.82 194.608 180.006 196.048C182.806 196.609 185.665 196.846 188.495 197.24C188.573 196.959 188.632 196.672 188.672 196.383C188.82 192.567 189.135 188.742 189.037 184.937C188.918 179.919 188.258 174.96 185.685 170.465C185.44 169.923 185.364 169.32 185.467 168.734C185.57 168.148 185.847 167.607 186.262 167.182C186.677 166.756 187.211 166.465 187.794 166.347C188.377 166.229 188.982 166.29 189.53 166.521C195.733 169.125 202.475 170.184 209.178 169.607C212.815 169.351 216.424 168.759 220.022 168.325C220.046 168.02 220.046 167.714 220.022 167.409C218.882 162.128 217.053 157.02 214.58 152.217C212.766 148.835 210.696 145.611 207.512 143.344C206.964 143.026 206.529 142.546 206.264 141.971C205.999 141.396 205.919 140.753 206.033 140.13C206.289 138.701 207.305 138.089 208.616 137.705C211.337 136.897 214.067 136.128 216.7 135.092C222.976 132.688 228.645 128.928 233.301 124.08Z" fill="#1C1919"/>
<path d="M159.639 146.163C149.78 152.029 149.78 152.029 138.157 152.798C138.009 153.784 137.891 154.839 137.694 155.864C136.609 161.691 134.135 166.768 128.407 169.114C121.299 172.072 114.191 171.973 107.951 166.758C104.323 163.731 102.883 159.453 102.213 154.928C102.114 154.267 102.026 153.607 101.917 152.788C98.107 153.068 94.2777 152.647 90.6193 151.546C86.9945 150.341 83.5936 148.546 80.5538 146.232C73.8697 149.634 68.0828 148.845 64.238 144.024C62.5298 141.908 61.603 139.268 61.6136 136.548C61.6241 133.828 62.5714 131.195 64.2959 129.092C66.0204 126.989 68.4169 125.545 71.0818 125.002C73.7467 124.459 76.5173 124.851 78.9272 126.111C84.4085 128.931 86.321 134.402 84.3296 141.569C86.7567 143.557 89.5537 145.044 92.559 145.944C95.5642 146.845 98.7181 147.14 101.838 146.814C104.271 146.636 106.685 146.257 109.055 145.68C110.96 145.237 112.699 144.26 114.068 142.863C115.437 141.466 116.379 139.707 116.784 137.794C116.852 137.647 116.889 137.487 116.893 137.326C116.897 137.164 116.868 137.003 116.808 136.853C116.748 136.702 116.659 136.566 116.544 136.451C116.43 136.337 116.293 136.247 116.143 136.187C115.318 135.749 114.634 135.085 114.172 134.274C113.709 133.462 113.487 132.536 113.531 131.602V130.459C112.641 130.396 111.755 130.281 110.879 130.114C108.227 129.443 106.797 127.156 106.935 124.051C106.984 122.85 107.446 121.703 108.244 120.805C109.042 119.907 110.126 119.312 111.312 119.122C111.895 119.023 112.486 118.974 113.077 118.974H128.161C128.891 118.938 129.622 119.054 130.305 119.315C130.988 119.577 131.61 119.977 132.13 120.492C132.65 121.007 133.058 121.624 133.326 122.304C133.595 122.985 133.719 123.714 133.691 124.445C133.691 127.886 131.542 130.193 128.22 130.252H126.514C126.514 130.695 126.435 131.041 126.445 131.376C126.51 132.348 126.296 133.318 125.828 134.172C125.36 135.026 124.657 135.729 123.803 136.197C123.58 136.296 123.401 136.476 123.303 136.7C123.205 136.924 123.193 137.177 123.271 137.409C124.089 141.175 126.228 143.985 129.876 145.128C138.749 147.948 147.345 147.672 155.212 141.934C155.902 141.431 155.695 141.027 155.498 140.446C154.573 137.835 154.594 134.982 155.556 132.385C156.519 129.788 158.362 127.611 160.764 126.233C163.167 124.855 165.977 124.364 168.704 124.845C171.432 125.326 173.904 126.749 175.69 128.866C177.477 130.982 178.464 133.659 178.479 136.428C178.495 139.198 177.539 141.885 175.776 144.022C174.014 146.159 171.558 147.61 168.836 148.122C166.114 148.634 163.299 148.175 160.881 146.824C160.427 146.647 160.023 146.39 159.639 146.163ZM107.872 152.542C108.02 153.528 108.138 154.711 108.414 155.894C109.291 159.64 111.026 162.874 114.891 164.136C119.071 165.506 123.29 165.466 127.175 163.061C128.085 162.438 128.879 161.661 129.521 160.764C130.816 158.917 131.638 156.781 131.917 154.543C132.331 152.197 132.341 152.197 130.103 151.586L129.767 151.467L122.995 148.51C122.995 150.925 122.995 153.518 122.995 156.111C123.016 156.582 122.993 157.054 122.926 157.52C122.816 158.25 122.43 158.91 121.849 159.364C121.268 159.819 120.535 160.034 119.801 159.965C119.061 159.937 118.363 159.619 117.856 159.081C117.349 158.542 117.073 157.826 117.089 157.087C117.089 155.194 117.089 153.301 117.089 151.408V148.628L107.872 152.542ZM172.524 136.542C172.524 134.988 171.913 133.497 170.823 132.39C169.733 131.283 168.251 130.65 166.697 130.626C165.129 130.626 163.624 131.25 162.515 132.359C161.406 133.468 160.782 134.973 160.782 136.542C160.782 138.11 161.406 139.615 162.515 140.724C163.624 141.833 165.129 142.457 166.697 142.457C168.251 142.433 169.733 141.8 170.823 140.693C171.913 139.586 172.524 138.095 172.524 136.542ZM73.5247 142.457C74.6946 142.457 75.8382 142.11 76.811 141.46C77.7837 140.81 78.5418 139.886 78.9895 138.805C79.4372 137.724 79.5544 136.535 79.3261 135.388C79.0979 134.24 78.5346 133.186 77.7073 132.359C76.8801 131.532 75.8261 130.968 74.6787 130.74C73.5313 130.512 72.3419 130.629 71.2611 131.077C70.1802 131.524 69.2564 132.283 68.6065 133.255C67.9565 134.228 67.6096 135.372 67.6096 136.542C67.6044 137.318 67.7523 138.089 68.0447 138.808C68.3372 139.528 68.7686 140.183 69.3142 140.736C69.8598 141.289 70.509 141.729 71.2246 142.031C71.9403 142.333 72.7085 142.491 73.4853 142.496L73.5247 142.457Z" fill="#1C1919"/>
<path d="M148.863 107.656C148.877 105.858 149.424 104.104 150.435 102.616C151.446 101.129 152.876 99.9747 154.543 99.3C156.21 98.6253 158.04 98.4604 159.801 98.8261C161.562 99.1919 163.175 100.072 164.435 101.355C165.696 102.637 166.548 104.265 166.883 106.032C167.218 107.799 167.021 109.626 166.318 111.281C165.614 112.937 164.436 114.346 162.931 115.331C161.426 116.316 159.663 116.832 157.864 116.815C156.671 116.806 155.492 116.562 154.394 116.096C153.296 115.631 152.3 114.953 151.464 114.103C150.628 113.252 149.968 112.245 149.522 111.139C149.075 110.032 148.852 108.849 148.863 107.656Z" fill="#1C1919"/>
<path d="M82.1016 116.854C80.3063 116.836 78.5566 116.287 77.0735 115.275C75.5905 114.263 74.4407 112.835 73.7694 111.169C73.0982 109.504 72.9357 107.678 73.3024 105.92C73.6692 104.163 74.5487 102.553 75.8298 101.296C77.111 100.038 78.7362 99.1881 80.5002 98.8538C82.2641 98.5196 84.0876 98.7158 85.7401 99.4176C87.3925 100.119 88.7999 101.295 89.7841 102.797C90.7684 104.298 91.2855 106.058 91.27 107.853C91.2702 109.049 91.0319 110.234 90.5692 111.337C90.1064 112.44 89.4284 113.44 88.5747 114.278C87.7211 115.116 86.709 115.775 85.5975 116.218C84.4861 116.66 83.2976 116.876 82.1016 116.854Z" fill="#1C1919"/>
</svg>
