<svg width="240" height="241" viewBox="0 0 240 241" fill="none" xmlns="http://www.w3.org/2000/svg">
<path d="M210.078 0H212.139C212.824 0.232721 213.416 0.677125 213.831 1.26893C214.247 1.86073 214.463 2.56925 214.448 3.29198C214.606 14.064 213.446 24.8148 210.994 35.3053C208.885 44.1031 205.823 52.5286 200.689 60.1145C199.258 62.2137 197.626 64.1794 196.061 66.2309C198.256 66.6221 200.479 66.9561 202.674 67.4141C210.04 68.9408 217.082 71.3263 223.351 75.6393C225.813 77.3378 226.08 78.6164 224.42 81.0592C219.309 88.5722 212.366 94.6577 204.248 98.7405C203.933 98.9027 203.628 99.084 203.552 99.1317C207.311 101.04 211.185 102.948 214.859 105.01C217.428 106.401 219.579 108.453 221.09 110.954C222.349 113.111 222.197 114.246 220.431 116.04C218.118 118.138 215.499 119.873 212.664 121.183C211.71 121.679 210.756 122.137 210.059 122.5C210.546 125.429 211.109 128.158 211.433 130.906C212.181 137.565 212.181 144.286 211.433 150.945C211.054 155.584 210.063 160.153 208.485 164.532C206.137 170.62 201.939 174.628 195.479 176.097C194.716 176.269 193.952 176.412 193.084 176.594L193.752 177.681C196.615 182.166 199.477 186.67 202.416 191.145C202.79 191.609 203.023 192.17 203.087 192.762C203.151 193.354 203.044 193.952 202.779 194.485C202.496 195.008 202.061 195.433 201.531 195.703C201 195.972 200.4 196.073 199.811 195.992C197.75 195.992 195.689 195.992 193.628 195.992C193.277 195.933 192.916 196.006 192.616 196.199C192.316 196.391 192.098 196.688 192.006 197.032C191.052 199.475 189.964 201.87 188.933 204.294C188.752 204.859 188.399 205.353 187.925 205.709C187.45 206.065 186.877 206.264 186.284 206.28C185.691 206.296 185.107 206.127 184.614 205.797C184.122 205.467 183.743 204.991 183.532 204.437C182.527 202.376 181.522 200.321 180.517 198.273C180.393 198.025 180.231 197.805 180.116 197.615C177.998 200.429 175.918 203.158 173.905 205.935C173.544 206.475 173.334 207.1 173.294 207.748C173.309 208.286 173.111 208.807 172.743 209.199C172.374 209.591 171.866 209.82 171.328 209.838C170.875 209.879 170.445 210.059 170.097 210.353C166.98 213.273 163.885 216.215 160.813 219.179C160.495 219.511 160.291 219.936 160.231 220.391C160.088 221.565 159.277 222.51 158.218 222.204C157.158 221.899 156.586 222.471 155.899 222.958C155.212 223.445 154.429 224.055 153.666 224.552C150.097 226.899 146.519 229.227 142.884 231.603C143.094 232.471 143.065 233.511 142.025 233.922C141.688 234.053 141.327 234.109 140.966 234.088C140.606 234.067 140.254 233.968 139.935 233.798C139.714 233.605 139.435 233.492 139.142 233.478C138.849 233.464 138.56 233.55 138.323 233.721C133.979 235.869 129.377 237.447 124.63 238.416C123.074 238.721 121.462 238.769 120.326 240.095H119.372C118.676 239.561 117.913 239.122 117.101 238.788C114.429 238.044 111.662 237.595 109.029 236.746C106.166 235.792 103.361 234.571 100.441 233.435C100.167 233.817 99.7677 234.091 99.3128 234.209C98.858 234.328 98.376 234.284 97.9504 234.084C97.5503 233.892 97.2264 233.572 97.0308 233.174C96.8352 232.775 96.7793 232.323 96.8721 231.889C96.8721 231.632 96.5573 231.25 96.2901 231.078C91.9453 228.184 87.5846 225.321 83.208 222.49C82.8342 222.29 82.4076 222.21 81.9866 222.261C81.6984 222.339 81.3959 222.348 81.1034 222.288C80.811 222.228 80.5368 222.099 80.303 221.914C80.0691 221.728 79.882 221.49 79.7568 221.219C79.6316 220.948 79.5718 220.651 79.5821 220.353C79.5044 219.896 79.28 219.478 78.9427 219.16C75.9084 216.221 72.8454 213.305 69.7538 210.41C69.407 210.104 68.9734 209.914 68.5134 209.866C68.2268 209.866 67.9436 209.805 67.6829 209.686C67.4221 209.568 67.1898 209.394 67.0017 209.178C66.8136 208.962 66.674 208.708 66.5924 208.433C66.5108 208.159 66.4891 207.87 66.5286 207.586C66.5516 207.124 66.4207 206.668 66.1565 206.288C64.4103 203.884 62.6164 201.517 60.8512 199.122C60.4695 198.616 60.126 198.082 59.7061 197.481C58.542 199.885 57.4256 202.137 56.3378 204.399C56.1185 204.962 55.7297 205.444 55.2251 205.777C54.7205 206.11 54.125 206.278 53.5207 206.258C52.9165 206.238 52.3333 206.031 51.8517 205.666C51.3701 205.3 51.0138 204.794 50.8321 204.218C49.8779 201.861 48.7901 199.532 47.8645 197.156C47.7676 196.797 47.539 196.488 47.2243 196.29C46.9095 196.092 46.5317 196.02 46.166 196.088C44.1908 196.155 42.2061 196.088 40.2214 196.088C39.613 196.174 38.9926 196.082 38.4354 195.823C37.8782 195.564 37.4081 195.149 37.0821 194.628C36.7814 194.072 36.656 193.438 36.7224 192.81C36.7888 192.181 37.0439 191.588 37.4542 191.107C40.3931 186.594 43.2844 182.071 46.1851 177.548C46.3569 177.271 46.5 176.985 46.6908 176.594L45.7366 176.403C40.0115 175.401 35.4599 172.586 32.7214 167.357C31.8386 165.668 31.1135 163.902 30.5554 162.08C28.7224 155.496 27.8262 148.686 27.8931 141.851C27.6687 135.426 28.3529 129.001 29.9256 122.767C27.7596 121.574 25.5363 120.534 23.5229 119.198C21.7598 118.01 20.1228 116.645 18.6374 115.124C17.521 113.998 17.6832 112.634 18.6374 111.384C19.3283 110.516 20.0843 109.703 20.8989 108.95C24.1911 106.105 27.8855 103.761 31.8626 101.994C33.5897 101.155 35.355 100.363 37.2347 99.4943L36.0515 98.7977C26.5096 93.3683 19.5248 85.5439 14.458 75.8969C14.2417 75.5678 14.0957 75.1976 14.029 74.8095C13.9623 74.4214 13.9764 74.0237 14.0705 73.6413C14.1645 73.2588 14.3365 72.8999 14.5755 72.587C14.8146 72.274 15.1157 72.0138 15.4599 71.8225C16.6234 71.0268 17.8308 70.2973 19.0763 69.6374C25.126 66.4695 31.6908 64.9332 38.3512 63.7786C40.7367 63.3588 43.1221 63.0725 45.6031 62.7099C45.5317 62.55 45.4521 62.394 45.3645 62.2424C38.876 52.4809 34.9924 41.6698 32.1298 30.4771C31.991 30.0375 31.9604 29.5709 32.0406 29.117C32.1209 28.6631 32.3095 28.2353 32.5906 27.8699C32.8716 27.5045 33.2368 27.2124 33.6549 27.0184C34.0731 26.8245 34.5319 26.7343 34.9924 26.7557C35.3741 26.7557 35.7557 26.7557 36.1374 26.7557C46.0631 27.0746 55.9215 28.5086 65.5267 31.0305C68.2557 31.708 70.9657 32.4714 73.7137 33.2061C73.7137 32.958 73.7996 32.7767 73.8283 32.5859C75.0134 23.8526 77.4159 15.3283 80.9657 7.26145C81.7958 5.41985 83.2366 4.79008 85.0782 5.61069C87.8263 6.83206 90.5935 8.04389 93.1985 9.54198C102.855 14.9141 111.433 21.7557 119.573 29.1698C119.678 29.308 119.81 29.4231 119.961 29.5081C120.112 29.5931 120.279 29.6462 120.452 29.6641C120.625 29.682 120.799 29.6643 120.965 29.6121C121.13 29.5599 121.283 29.4744 121.414 29.3607C132.304 22.7428 143.758 17.1007 155.641 12.5C171.968 6.15458 188.742 1.71756 206.271 0.391221C207.54 0.295802 208.809 0.133588 210.078 0ZM173.943 196.231L173.809 195.916C173.094 195.916 172.378 195.916 171.662 195.916C171.307 195.922 170.955 195.854 170.626 195.719C170.298 195.583 170.001 195.382 169.753 195.127C169.506 194.872 169.313 194.57 169.187 194.238C169.06 193.906 169.003 193.551 169.019 193.197C169.116 192.336 169.446 191.518 169.973 190.83C174.191 185.105 178.475 179.466 182.712 173.769C183.078 173.257 183.293 172.652 183.332 172.023C183.447 169.742 183.485 167.452 183.513 165.172C183.666 151.934 183.819 138.699 183.971 125.468C184.038 120.391 184.124 115.324 184.2 110.248C184.2 109.208 184.2 108.158 184.2 107.118C183.849 107.331 183.554 107.626 183.342 107.977C181.553 110.778 179.363 113.301 176.844 115.468C175.097 116.918 173.485 116.737 172.073 114.962C171.51 114.237 170.975 113.492 170.45 112.739C165.613 105.677 162.168 97.9389 159.219 89.9427C159.086 89.5802 158.924 89.2366 158.704 88.6927C156.622 93.6207 154.066 98.3344 151.071 102.767C148.609 106.496 145.702 109.912 142.416 112.939C142.149 113.215 141.83 113.434 141.476 113.583C141.123 113.733 140.743 113.81 140.36 113.81C139.976 113.81 139.596 113.733 139.243 113.583C138.89 113.434 138.57 113.215 138.303 112.939C137.531 112.252 136.786 111.546 136.071 110.811C131.851 106.287 128.165 101.292 125.088 95.9256C123.313 92.9962 121.653 90 119.878 86.9275C119.668 87.2996 119.496 87.624 119.305 87.9485C117.053 91.7653 114.878 95.687 112.511 99.4656C109.599 104.302 106.043 108.719 101.939 112.595C100.155 114.237 98.8187 114.237 97.0439 112.595C96.7672 112.338 96.4809 112.071 96.2138 111.803C89.897 105.487 85.3168 98.0153 81.6813 89.9141C81.5286 89.5611 81.3473 89.208 81.1279 88.7595C79.9256 91.7557 78.8473 94.6088 77.645 97.4046C75.0934 103.617 71.786 109.491 67.7977 114.895C66.395 116.727 64.7538 116.908 63.0267 115.391C62.0573 114.584 61.1542 113.7 60.3263 112.748C58.771 110.906 57.3111 108.979 55.7653 107.023C55.7409 107.168 55.725 107.315 55.7176 107.462C55.7939 112.233 55.8798 117.071 55.937 121.87C56.0706 133.27 56.201 144.676 56.3283 156.088C56.3855 161.431 56.4682 166.772 56.5763 172.109C56.6105 172.665 56.8062 173.199 57.1393 173.645C61.4396 179.427 65.7621 185.197 70.1069 190.954C70.5101 191.391 70.7765 191.937 70.8732 192.524C70.9698 193.11 70.8925 193.712 70.6508 194.256C70.3886 194.814 69.9592 195.276 69.4223 195.579C68.8854 195.881 68.2676 196.009 67.6546 195.945H65.7462L70.937 202.824C71.271 202.548 71.5 202.357 71.7195 202.156C73.208 200.792 74.6775 199.399 76.1851 198.063C76.3635 197.874 76.5787 197.723 76.8174 197.62C77.0562 197.517 77.3135 197.464 77.5735 197.464C77.8335 197.464 78.0908 197.517 78.3295 197.62C78.5683 197.723 78.7834 197.874 78.9618 198.063C79.1342 198.255 79.267 198.48 79.3527 198.723C79.4383 198.967 79.4751 199.225 79.4609 199.483C79.4467 199.741 79.3819 199.993 79.27 200.226C79.1582 200.459 79.0016 200.667 78.8092 200.84C78.5992 201.059 78.3607 201.26 78.1412 201.46L73.4275 205.868L83.2271 215.172L84.1813 214.074C85.5363 212.424 86.8817 210.763 88.2557 209.132C88.4699 208.782 88.8106 208.529 89.2068 208.424C89.6031 208.319 90.0246 208.371 90.3836 208.569C90.996 208.961 91.4361 209.572 91.6145 210.277C91.5584 210.95 91.272 211.584 90.8034 212.071C89.4008 213.865 87.9408 215.601 86.2996 217.567L99.6584 226.374C99.9924 225.744 100.193 225.42 100.384 225.01C101.385 223.101 102.359 221.145 103.38 219.227C103.561 218.841 103.874 218.533 104.262 218.358C104.651 218.183 105.089 218.153 105.498 218.273C105.899 218.344 106.264 218.552 106.528 218.862C106.793 219.172 106.941 219.564 106.948 219.971C106.929 220.5 106.785 221.017 106.529 221.479C105.45 223.645 104.334 225.792 103.189 228.015C107.839 230.432 112.839 232.103 118.008 232.968V231.536C118.008 228.826 118.008 226.116 118.008 223.406C117.975 222.946 118.122 222.49 118.417 222.134C118.712 221.779 119.133 221.551 119.592 221.498C120.066 221.405 120.558 221.504 120.96 221.772C121.362 222.04 121.642 222.456 121.739 222.929C121.864 223.367 121.928 223.82 121.929 224.275C121.929 226.794 121.929 229.313 121.929 231.832C121.929 232.185 121.929 232.548 121.987 232.977C127.105 232.1 132.059 230.439 136.672 228.053C136.462 227.615 136.309 227.271 136.137 226.937C135.126 224.962 134.095 223.015 133.122 221.031C133.003 220.811 132.93 220.569 132.907 220.32C132.883 220.071 132.911 219.819 132.988 219.581C133.064 219.343 133.189 219.123 133.353 218.934C133.517 218.745 133.718 218.592 133.943 218.483C134.386 218.248 134.904 218.198 135.385 218.343C135.865 218.487 136.269 218.815 136.51 219.256C136.729 219.609 136.901 220 137.092 220.372L140.221 226.431L153.58 217.624C151.863 215.534 150.298 213.664 148.809 211.756C148.615 211.567 148.463 211.338 148.363 211.086C148.264 210.834 148.22 210.563 148.233 210.292C148.247 210.021 148.318 209.756 148.442 209.515C148.566 209.274 148.74 209.062 148.952 208.893C149.156 208.72 149.395 208.591 149.652 208.516C149.909 208.44 150.179 208.42 150.445 208.456C150.71 208.492 150.965 208.583 151.193 208.725C151.421 208.866 151.617 209.053 151.767 209.275C152.044 209.59 152.302 209.924 152.569 210.229L156.672 215.219L166.452 205.897L165.45 204.943C164.048 203.655 162.645 202.366 161.252 201.059C161.025 200.898 160.835 200.69 160.694 200.451C160.553 200.211 160.464 199.944 160.434 199.667C160.403 199.391 160.431 199.111 160.516 198.846C160.601 198.581 160.742 198.337 160.927 198.13C161.124 197.935 161.358 197.783 161.615 197.682C161.873 197.581 162.148 197.534 162.424 197.544C162.701 197.554 162.972 197.62 163.222 197.739C163.471 197.858 163.694 198.027 163.876 198.235C164.076 198.406 164.267 198.597 164.468 198.779L168.924 202.891L173.943 196.231ZM191.948 170.802C196.796 170.296 200.422 168.225 202.445 163.836C203.033 162.637 203.506 161.384 203.857 160.095C206.658 149.085 207.02 137.596 204.916 126.431C204.305 123.063 201.385 121.05 197.731 121.288C197.827 129.595 197.406 137.9 196.471 146.155C195.55 154.467 194.039 162.704 191.948 170.802ZM47.8645 170.802C43.757 154.479 41.8034 137.689 42.0534 120.859C40.3073 121.469 38.7805 121.899 37.3397 122.529C36.7609 122.784 36.2547 123.179 35.8666 123.679C35.4785 124.179 35.2207 124.767 35.1164 125.391C34.7538 127.147 34.3912 128.903 34.1622 130.677C33.2872 137.988 33.3674 145.382 34.4008 152.672C34.7936 156.739 35.8915 160.708 37.645 164.399C39.7634 168.511 43.3416 170.305 47.8931 170.802H47.8645Z" fill="#1C1919"/>
<path d="M119.964 182.099H160.994C163.275 182.166 164.324 183.731 163.418 185.83C160.701 192.007 156.459 197.392 151.09 201.479C144.157 206.812 135.864 210.088 127.158 210.935C118.73 212.065 110.156 211.266 102.082 208.597C90.6317 204.656 82.0439 197.414 76.7195 186.403C76.5333 186.029 76.38 185.639 76.2615 185.238C76.1613 184.915 76.1329 184.574 76.1785 184.239C76.224 183.904 76.3423 183.583 76.525 183.299C76.7077 183.014 76.9505 182.773 77.2363 182.592C77.5221 182.411 77.844 182.295 78.1794 182.252C78.5988 182.223 79.0196 182.223 79.4389 182.252H119.964V182.099ZM102.225 186.966C102.169 187.159 102.131 187.357 102.111 187.557C102.111 192.672 102.111 197.786 102.111 202.891C102.111 203.225 102.588 203.721 102.941 203.845C106.454 205.126 110.116 205.953 113.838 206.307C115.021 206.441 116.223 206.488 117.397 206.565V186.966H102.225ZM122.426 206.555C127.317 206.374 132.155 205.477 136.786 203.893C137.09 203.831 137.357 203.654 137.535 203.401C137.712 203.147 137.786 202.835 137.74 202.529C137.74 197.653 137.74 192.767 137.74 187.882C137.74 187.557 137.693 187.233 137.674 186.927H122.406L122.426 206.555ZM97.3111 187.023H82.4637C84.458 191.794 93.0363 199.952 97.3111 201.221V187.023ZM142.569 201.336C148.79 198.004 153.966 193.014 157.521 186.918H142.569V201.336Z" fill="#1C1919"/>
<path d="M74.9638 139.046H65.7462C63.7519 139.046 62.4828 137.92 62.4924 136.183C62.5019 134.447 63.8092 133.321 65.8034 133.321C69.2672 133.321 72.7309 133.454 76.1947 133.445C80.4122 133.445 84.6298 133.301 88.8473 133.282C93.0649 133.263 97.2729 133.282 101.49 133.282C102.206 133.242 102.911 133.471 103.466 133.925C104.021 134.379 104.385 135.025 104.487 135.735C104.578 136.38 104.446 137.038 104.113 137.598C103.78 138.159 103.265 138.588 102.655 138.817C102.218 138.946 101.764 139.004 101.309 138.989C98.5992 138.989 95.8989 138.989 93.1889 138.989C92.5687 138.989 92.2347 139.103 92.1298 139.819C91.8085 141.85 90.7688 143.699 89.1997 145.029C87.6307 146.358 85.6365 147.081 83.5799 147.065C81.5233 147.048 79.5407 146.295 77.9928 144.94C76.4449 143.586 75.4344 141.721 75.1451 139.685C75.0687 139.551 75.0687 139.37 74.9638 139.046Z" fill="#1C1919"/>
<path d="M164.859 139.046C163.905 144.065 160.947 146.889 156.471 147.185C152.244 147.471 149.315 144.857 147.426 139.046C144.41 139.046 141.357 139.046 138.313 139.046C137.937 139.043 137.565 138.966 137.219 138.819C136.873 138.672 136.559 138.459 136.296 138.191C136.032 137.922 135.824 137.605 135.683 137.257C135.542 136.908 135.471 136.535 135.474 136.159C135.477 135.783 135.555 135.412 135.701 135.066C135.848 134.72 136.062 134.406 136.33 134.142C136.598 133.879 136.915 133.67 137.263 133.529C137.612 133.388 137.985 133.318 138.361 133.321C141.824 133.321 145.288 133.445 148.761 133.435C152.903 133.435 157.053 133.302 161.166 133.282C165.46 133.282 169.754 133.282 174.057 133.282C176.061 133.282 177.302 134.399 177.302 136.145C177.302 137.891 176.042 139.008 174.019 139.008L164.859 139.046Z" fill="#1C1919"/>
</svg>
